<svg xmlns="http://www.w3.org/2000/svg" width="443" height="386" viewBox="0 0 443 386">
    <g fill="none" fill-rule="evenodd" transform="translate(0 -1)">
        <path fill="#F5F6FB" fill-rule="nonzero" d="M256.46 327.84c-2.46 9.83-11.42 20-16.86 28.28a1532.946 1532.946 0 0 1-10.46 15.74c-3.07 4.57-5.81 9.79-9.62 13.79-5.31-2.34-3.38-10.87-2.5-15.15 2.79-13.48 4-26.89 5.13-40.59-.26 3.18-3.14 7.45-4.21 10.54a122.91 122.91 0 0 0-3.6 12.46c-1.82 7.81-1.41 16.2-4.64 23.65-.74 1.71-2.2 3.6-4 3.21-1.8-.39-2.38-3-2.36-5 .06-8-.39-15.8-.49-23.75 0-1.31-.12-21.38-.58-21.37l54.19-1.81z"/>
        <ellipse cx="236.855" cy="353.816" fill="#F5F6FB" fill-rule="nonzero" rx="160.28" ry="9.72" transform="rotate(-4.57 236.855 353.816)"/>
        <path fill="#CFD4E2" fill-rule="nonzero" d="M40.46 353.87c35.835 20.768 81.72 8.557 102.492-27.276 20.773-35.832 8.567-81.719-27.263-102.495-35.83-20.777-81.718-8.576-102.499 27.251a75 75 0 0 0 27.27 102.52zm47.91-113.26a47 47 0 1 1-64.23 17.09c13.018-22.455 41.774-30.106 64.23-17.09z"/>
        <path fill="#DDE0E9" fill-rule="nonzero" d="M77 214h-2.71C33.14 214.744.276 248.51.648 289.665c.372 41.156 33.84 74.323 74.997 74.323s74.625-33.167 74.997-74.323C151.014 248.51 118.15 214.744 77 214zm15.38 122c-25.957 0-47-21.043-47-47s21.043-47 47-47 47 21.043 47 47-21.043 47-47 47z"/>
        <path fill="#CFD4E2" fill-rule="nonzero" d="M355.39 338.49c27.714 16.04 63.183 6.586 79.237-21.12 16.054-27.705 6.619-63.179-21.078-79.247-27.697-16.069-63.176-6.652-79.259 21.037a58 58 0 0 0 21.1 79.33zm37.07-87.64a36.37 36.37 0 1 1-49.7 13.22c10.075-17.373 32.325-23.29 49.7-13.22z"/>
        <path fill="#DDE0E9" fill-rule="nonzero" d="M385.91 230.23h-2.1c-31.861.576-57.306 26.72-57.018 58.586.288 31.865 26.202 57.545 58.068 57.545 31.866 0 57.78-25.68 58.068-57.545.288-31.865-25.157-58.01-57.018-58.586zm11.89 94.42c-20.087 0-36.37-16.283-36.37-36.37 0-20.087 16.283-36.37 36.37-36.37 20.087 0 36.37 16.283 36.37 36.37a36.37 36.37 0 0 1-36.38 36.36l.01.01z"/>
        <path fill="#DDE0E9" fill-rule="nonzero" d="M77 214s8.6.9 12.9-1.81c4.3-2.71 24.94-9 31.82-2.71 6.88 6.29 24.94 15.36 24.94 15.36s0-3.62 6.88-2.71c6.88.91 104.06 45.19 104.06 45.19s29.24 9 47.3-22.59S331.56 223 331.56 223l62.78-5.42 1.72 9.94s-31.82 2.71-40.42 42.48c-8.6 39.77-8.6 53.32-8.6 53.32S149.25 355 139.79 349.53c-9.46-5.47-2.58-4.52-20.64-1.81-18.06 2.71 9.46-13.56 9.46-13.56l12.9-35.25-4.3-31.63-6-20.79-21.5-16.27L77 225.71V214z"/>
        <path fill="#DDE0E9" fill-rule="nonzero" d="M234.27 256.44s28.92 14.46 46.09-.9c17.17-15.36 13.56-45.19 38.86-41.57 25.3 3.62 89.48-3.62 89.48-3.62l4.52 30.73-131 47.9-47.95-32.54z"/>
        <path fill="#CFD4E2" fill-rule="nonzero" d="M149.32 342.3l18.08-49.71s3.62-19.88 21.69-20.79c18.07-.91 74.11-8.13 74.11-8.13l3.62 3.62-76.82 9.94s-8.13 0-12.65 10.85-20.79 54.23-20.79 54.23l-7.24-.01z"/>
        <path fill="#CFD4E2" fill-rule="nonzero" d="M268 262.16s3.31 4.52-1.21 5.12c-4.52.6-3.62-3.62-3.62-3.62s2.41-.3 1.81-1.21l3.02-.29zM334 215.17s30.43 7.23 31 16.87c.57 9.64-3.92 25.61-40.37 26.81l.9-3.62s27.72.3 33.14-13c5.42-13.3-3.89-16.23-10.82-19.53-6.93-3.3-19.58-7.53-19.58-7.53H334z"/>
        <path fill="#DCDFE8" fill-rule="nonzero" d="M91 239.27c-26.92 0-48.74 22.39-48.74 50s21.82 50 48.74 50 48.74-22.39 48.74-50-21.74-50-48.74-50zm0 97.61c-25.54 0-46.25-21.24-46.25-47.45C44.75 263.22 65.42 242 91 242s46.25 21.24 46.25 47.45c0 26.21-20.75 47.43-46.25 47.43zM396.06 249.51c-20.79 0-37.65 17.29-37.65 38.63 0 21.34 16.86 38.63 37.65 38.63s37.65-17.29 37.65-38.63c0-21.34-16.86-38.63-37.65-38.63zm-.06 75.4c-19.73 0-35.72-16.41-35.72-36.65s16-36.65 35.72-36.65 35.72 16.41 35.72 36.65-16 36.65-35.72 36.65z"/>
        <path fill="#272B3F" fill-rule="nonzero" d="M220.77 33s-1.05 11.55-10.16 18.89 6.31-20.42 10.16-18.89z"/>
        <path fill="#35C4C4" fill-rule="nonzero" d="M199.66 11.34a12 12 0 0 0-1.74-.65c-4.19-1.25-14.61-2.38-16.6 16.42C178.82 50.77 197 65 202 64.27c5-.73 7.07-3.27 11.36-16.73 4.29-13.46 9.29-34.97-13.7-36.2z"/>
        <ellipse cx="217.71" cy="34.05" fill="#35C4C4" fill-rule="nonzero" rx="2.1" ry="4.14"/>
        <path fill="#272B3F" fill-rule="nonzero" d="M209.84 367.57l-2 7.13s-2.6 6-14.59 9.62c0 0-13.95 2.8 2.6-13.72l4.17-5.38 9.82 2.35zM216.37 364.1l-.68 7.38s.3 6.51 10.18 14.2c0 0 12 7.6 2.47-13.74l-2-6.52-9.97-1.32z"/>
        <path fill="#515872" fill-rule="nonzero" d="M250.82 251.35l-10.67-63.08a.13.13 0 0 0-.12-.11c-2-.22-30.86-3.41-46.23.57l-.6-3.57s0-3.62-.5-4.29c-.5-.67-13.7 10.38-13.7 10.38s-1.78 20.56 4 49c3.87 19.23 6.95 26.19 8.15 34 .35 3.99.486 7.996.41 12 0 .46-.06.92-.09 1.4-.05.71-.08 1.3-.09 1.83-.17 2.06-.32 2.79.15 3.74 1.33 2.71-1.66 3.62 0 5.42 1.66 1.8 7 53.93 7 54.83 0 .9-3.32.6-1 3.62s-3 7.83-.33 10.24 8.1 4.22 13.75 2.41c5.65-1.81.66-73.81 2.33-77.73 1.67-3.92-.25-9.68-.33-9.93 0-.77-1.42-47.15 1.83-58 .423.291.75.702.94 1.18 1.47 2.8 6.86 18.22 11.4 32.8 2.58 13.08 4.72 25.07 5.77 26.7 2.33 3.62-16.29 75.62-15.62 77.42.67 1.8-6 1.21-1.66 4.52 4.34 3.31 13.63 5.72 14.29 2.41.66-3.31.39-1.81 2.72-7.23 1.35-3.15 5.63-16.18 11.12-32.4a167.32 167.32 0 0 0 7.08-78.13z"/>
        <path fill="#FAFAFC" fill-rule="nonzero" d="M249.16 122.33l-7.34-33s-.52-5.65-12.85-7.46c-12.33-1.81-24.13-10.37-24.13-10.37l-8.92 2.5s-12.59 6.78-21.77 7.23c-9.18.45-12.59 32.52-13.15 41.33 1.37.2 8.13 2.8 14.89 2.11.39 9.52 2.8 72.53-.84 76.29-3.93 4.07.52 5.42.52 8.13 0 2.71 3.93 4.52 8.66 5a1.82 1.82 0 0 0 1-.19c.405.09.816.154 1.23.19.34 0 1 .06 1.76.08 4.52.58 12.09.73 24.61 0a33.47 33.47 0 0 0 4.58-.56c12.7-.55 24.72-1.49 26-2.89 2.62-2.94-3.15-2.71 1.31-4.29s5.25-4.52 1-9.26c-.23-.26-.46-.54-.69-.85-.5-3.15-1.3-8.32-2.57-16.77-2.77-18.32-4.67-44.52-5.29-53.77 3.32-.12 9.83-.61 11.99-3.45z"/>
        <path fill="#35C4C4" fill-rule="nonzero" d="M194.85 51.61a264 264 0 0 1 .44 27.29c-.66 11.62 5 11.12 5 11.12s6.54-1.52 4.12-10.11 6.64-26.53 5.76-31.08c-.88-4.55-16.42-9.83-15.32 2.78z"/>
        <path fill="#FFF" fill-rule="nonzero" d="M190.56 43.53c.23-.13 1.35-.34 3.71 1.18 1.77 1.14 4.49-.9 6.66-.92a2.38 2.38 0 0 1 1.93.84c2.19 2.53-4.9 6.4-7 5.73-2.1-.67-9.09-4.73-5.3-6.83z"/>
        <path fill="#FFF" fill-rule="nonzero" d="M192.23 43.68s1.95 1.31 7.68.21c5.73-1.1-7.58 3.87-7.58 3.87l-.1-4.08z"/>
        <rect width="13.86" height="26.21" x="187.943" y="50.406" fill="#515873" fill-rule="nonzero" rx="3.67" transform="rotate(-11.63 194.873 63.51)"/>
        <ellipse cx="193.02" cy="55.57" fill="#FFF" fill-rule="nonzero" rx="1.36" ry="1.41"/>
        <path fill="#F7A226" fill-rule="nonzero" d="M58.06 52.55c0-.3-1.06-7.34 3.29-16.51l2 .93c-4.07 8.58-3.11 15.19-3.1 15.25l-2.19.33zM112.33 52.08c0-.1-2.16-10.28-11.36-14l.8-2c10.31 4.13 12.58 15.08 12.68 15.55l-2.12.45z"/>
        <path fill="#F4BA64" fill-rule="nonzero" d="M57 62.6s-.86-6.22 3-5.5c0 0 3.44.51 2.59 6.24h3.62s1.63-10.5-6.32-11.39c0 0-7.71 0-6.49 11.16a28.11 28.11 0 0 0 3.6-.51zM108.82 61.68l4-.46s-.91-5.78 2.13-5.48c0 0 2.89.76 2.74 5.93a6.65 6.65 0 0 0 3.65-.61s-.76-10.34-7.45-9.89c-.05.02-5.83.78-5.07 10.51z"/>
        <path fill="#F7A226" fill-rule="nonzero" d="M59.17 21.76s-2.53 9.94-1.08 16.63c0 0 .54 5.24 13.2 10.66L72 29.17l-12.83-7.41z"/>
        <path fill="#FFD194" fill-rule="nonzero" d="M71.28 49.05s-3.07-11.74.54-18.05c0 0 9-1.45 33.8.72a20.9 20.9 0 0 1-1.27 15.73s-13.01 6.48-33.07 1.6z"/>
        <path fill="#F4BA64" fill-rule="nonzero" d="M105.62 31.7a51.94 51.94 0 0 0-16.45-10.48l-30 .54S63 26.64 71.82 31l33.8.7z"/>
        <path fill="#F4BA64" fill-rule="nonzero" d="M82.314 25.533l.525-16.812 1.08.034-.526 16.812z"/>
        <path fill="#F7A226" fill-rule="nonzero" d="M84.85 8.74c-3.22.79-6.81-3.49-3.93-6C83.8.23 88.41 3.8 86.7 7.2a2.78 2.78 0 0 1-1.85 1.54z"/>
        <path fill="#F4BA64" fill-rule="nonzero" d="M83.21 17.24c-2.68 0-7.23-.5-7.23-2.35s4.54-2.35 7.23-2.35c2.69 0 7.23.49 7.23 2.35s-4.55 2.35-7.23 2.35zm0-3.61c-3.76 0-6 .84-6.15 1.27.11.42 2.39 1.26 6.15 1.26 3.76 0 6-.83 6.15-1.27-.14-.43-2.41-1.27-6.15-1.27v.01z"/>
        <circle cx="3.71" cy="4.16" r="3.31" fill="#FFF" fill-rule="nonzero" opacity=".29" transform="translate(91 37)"/>
        <circle cx="94.71" cy="41.2" r="2.66" fill="#FFF" fill-rule="nonzero"/>
        <circle cx="3.52" cy="3.75" r="3.39" fill="#FFF" fill-rule="nonzero" opacity=".29" transform="translate(81 38)"/>
        <circle cx="84.58" cy="41.73" r="2.66" fill="#FFF" fill-rule="nonzero"/>
        <path fill="#FFF" fill-rule="nonzero" d="M58.13 51.72a.18.18 0 0 1-.15-.28s.48-.68 1.94-.44a.18.18 0 0 1 .15.21.18.18 0 0 1-.21.15c-1.2-.2-1.58.28-1.59.29a.18.18 0 0 1-.14.07zM58 50.5a.18.18 0 0 1-.14-.06.18.18 0 0 1 0-.25 2.6 2.6 0 0 1 2-.32.18.18 0 0 1 .16.2.17.17 0 0 1-.2.16 2.4 2.4 0 0 0-1.76.23.18.18 0 0 1-.06.04zM58.13 49.3a.18.18 0 0 1-.16-.1.18.18 0 0 1 .03-.2 3.33 3.33 0 0 1 2-.15.18.18 0 0 1 .14.21.19.19 0 0 1-.21.14 3 3 0 0 0-1.72.08l-.08.02zM58.11 48.3a.18.18 0 0 1-.12 0A.18.18 0 0 1 58 48c0-.05.48-.5 2.14-.2a.18.18 0 0 1 .14.21.19.19 0 0 1-.21.14c-1.43-.26-1.8.08-1.8.08a.19.19 0 0 1-.16.07zM58.24 47.22a.18.18 0 0 1-.07-.35 3 3 0 0 1 2.05 0 .18.18 0 1 1-.12.34 2.67 2.67 0 0 0-1.79 0l-.07.01zM60.3 46.16c-1.4-.29-1.81-.07-1.81-.07a.19.19 0 0 1-.29-.09.18.18 0 0 1 .05-.24s.51-.31 2.08 0a.18.18 0 1 1 0 .36l-.03.04zM60.41 45.21h-.06a3.92 3.92 0 0 0-1.7-.2.18.18 0 0 1-.21-.15.18.18 0 0 1 .14-.21 4.13 4.13 0 0 1 1.87.21.18.18 0 0 1-.06.35h.02zM60.66 44.26h-.08a2.16 2.16 0 0 0-1.69-.26.18.18 0 0 1-.23-.1.18.18 0 0 1 .1-.23 2.52 2.52 0 0 1 2 .28.18.18 0 0 1-.08.34l-.02-.03zM112.22 51.31a.17.17 0 0 1-.13-.06.18.18 0 0 1 0-.25 2.48 2.48 0 0 1 1.9-.65.18.18 0 0 1 .14.21.18.18 0 0 1-.21.14 2.21 2.21 0 0 0-1.58.57.18.18 0 0 1-.12.04zM111.9 50.25a.18.18 0 0 1-.15-.07.18.18 0 0 1 0-.25 3.31 3.31 0 0 1 1.85-.64.18.18 0 0 1 .16.2.16.16 0 0 1-.2.16 3.16 3.16 0 0 0-1.59.58.18.18 0 0 1-.07.02zM111.54 49.23a.18.18 0 0 1-.11-.32 3 3 0 0 1 1.69-.61h.15a.18.18 0 0 1 .17.19.19.19 0 0 1-.19.17 2.5 2.5 0 0 0-1.59.52.18.18 0 0 1-.12.05zM111.11 48.31A.18.18 0 0 1 111 48a2.94 2.94 0 0 1 1.92-.67.18.18 0 0 1 .16.2.16.16 0 0 1-.2.16 2.79 2.79 0 0 0-1.65.59.18.18 0 0 1-.12.03zM110.68 47.36a.18.18 0 0 1-.1-.33 4.21 4.21 0 0 1 1.79-.71.19.19 0 0 1 .19.17.18.18 0 0 1-.17.19 3.9 3.9 0 0 0-1.61.64.18.18 0 0 1-.1.04zM110.16 46.43a.18.18 0 0 1-.11-.32 3.36 3.36 0 0 1 1.84-.74.18.18 0 0 1 0 .36h-.05a3.46 3.46 0 0 0-1.54.67.17.17 0 0 1-.14.03zM109.62 45.53a.17.17 0 0 1-.11 0 .18.18 0 0 1 0-.25 2.37 2.37 0 0 1 1.68-.93h.08a.18.18 0 1 1-.02.36h-.06a2.05 2.05 0 0 0-1.4.79.18.18 0 0 1-.17.03zM109 44.53a.18.18 0 0 1-.14-.3 2.77 2.77 0 0 1 1.8-.92.2.2 0 0 1 .19.17.18.18 0 0 1-.17.19 2.44 2.44 0 0 0-1.54.79.18.18 0 0 1-.14.07zM108.27 43.56a.18.18 0 0 1-.14-.3s.9-1 1.75-1a.18.18 0 0 1 0 .36h-.05c-.68 0-1.4.85-1.41.86a.18.18 0 0 1-.15.08zM107.59 42.75a.17.17 0 0 1-.11 0 .18.18 0 0 1 0-.25c.09-.12.9-1.11 1.62-1.11h.05a.18.18 0 1 1-.02.36c-.46 0-1.13.72-1.33 1a.18.18 0 0 1-.21 0zM106.73 41.91h-.07a.18.18 0 0 1-.1-.23 2.41 2.41 0 0 1 1.51-1.4.18.18 0 1 1 .07.35c-.82.16-1.24 1.17-1.25 1.18a.18.18 0 0 1-.16.1z"/>
        <path fill="#272B3F" fill-rule="nonzero" d="M223.11 16.23a14.14 14.14 0 0 0-7.36-10c-1.66-1-3.42-1.71-5.15-2.51A16.07 16.07 0 0 0 206.69 2a10.33 10.33 0 0 0-4.8.79c-2.88 1-5.8 1.86-8.71 2.73a8.68 8.68 0 0 1-5.65-.08c-.44-.18-5.78-4.12-5.22-4.48-2.61 1.68-5.83 5.27-5 8.6.33 1.28 1.54 2.11 2.11 3.29.76 1.6-.19 3.39-.36 5.05a29.89 29.89 0 0 0 .09 6.18c.15 1.34.37 2.67.65 4s1.32 3.34 1.22 4.63c0 0 1.23-16 8-17.52 6.77-1.52 9.07 4 19.28 0A39.91 39.91 0 0 1 216.25 35c-.19-1.62-.67-7 1.76-3.09 1.76 2.82 1.77 4.67 1.53 5.66 1.24-2.96 5-12.85 3.57-21.34z"/>
        <path fill="#272B3F" fill-rule="nonzero" d="M216.25 35c0 .27.06.45.06.45-.02-.16-.05-.31-.06-.45zM219.53 37.57c-.24.57-.39.91-.39.91a2.39 2.39 0 0 0 .39-.91zM195.78 13.18s-8.32-.64-9.36 7c0 0 3.11-5.42 15.91-4.14l-6.55-2.86zM215.61 30.2l.64 4.79s-3.25-13.82-7.88-19.77l12.4 5.86-5.16 9.12z"/>
        <path stroke="#FFF" stroke-linecap="round" d="M186.42 31.85s3.25-3.47 6.6 0M198 31.43s3.25-3.47 6.6 0"/>
        <path fill="#35C4C4" fill-rule="nonzero" d="M191.63 65.62a16.42 16.42 0 0 0-6.47 2.86s-4.37 8-4.37 16.87c0 4.88-5.16 20-9.59 33.24l-1.86 6-5.65-1.41c-.09 6.59-.18 16.18.11 18 .016.061.036.121.06.18a1.9 1.9 0 0 0 .05.83c.6 1.9 2.25 5.06 6.55 4.42a5.69 5.69 0 0 0 3.15-1.56c1.05-.73 2.48-1.81 4.54-3.41 7.17-5.57 7.17-57.09 12.07-60.25 3.26-2.11 5-7.4 5.74-10.72 1.96-4.37-.51-5.97-4.33-5.05zM238.15 73.75a43.87 43.87 0 0 0-4.95-7.91v.05a2.81 2.81 0 0 0-.7-.95 24.45 24.45 0 0 0-4.06-2.87c-1-.62-4.62-2.87-6.79-2.21-1.69 0-8.88 3.05-10.82 3.57-1.94.52-2.87 1.89.19 1.51 3.06-.38 3.06.6 3.06.6-2 3.28 1.19 3.63 4.2 3.37a17.17 17.17 0 0 0 4.68-.47c1.26-.3 1.75-.12 1.89.18-.15.29-.61.85-2.11 1.52-1.76.79-2.71 1.58-2.84 2.36a1 1 0 0 0-.13.87c.3 1 .85.58 1.8 0 .83-.26 4.37-1.27 6.9-.28 2.71 1.06 6.35 8.61 9.83 22.46.16 1.27.28 2.54.36 3.83a216 216 0 0 0 2.53 23s.92 2.92-3.83 3.33c2 3.38 7.35 12 10.57 13.09a15.52 15.52 0 0 0 5.22 1.11c2.19.5 4.14-1 4.77-5.78C259.66 121.05 239 76 238.15 73.75z"/>
        <path fill="#CFD4E2" fill-rule="nonzero" d="M165.65 42.44v-6.62c.25-8.57-3.73-7-3.73-7H150.6c-13.63.4-9.73 3.5-9.73 3.5v12.85c0 1.95 2.71 2.8 6 3.11.65 1.84 1.95 4.14 4.48 4.48a5.63 5.63 0 0 1-.7-4.33 77.74 77.74 0 0 0 8.49-.54c8.6.39 6.51-5.45 6.51-5.45zM116.95 27.39V23c-.17-5.73 2.5-4.68 2.5-4.68H127c3.84 0 5.78 0 6.51 3.64.45 2.24 0 5 0 7.3 0 1.3-1.81 1.87-4 2.08-.43 1.23-1.3 2.77-3 3a3.77 3.77 0 0 0 .47-2.9 52 52 0 0 1-5.68-.36c-5.75.22-4.35-3.69-4.35-3.69z"/>
    </g>
</svg>