<svg xmlns="http://www.w3.org/2000/svg" width="415" height="406" viewBox="0 0 415 406">
    <g fill="none" fill-rule="evenodd" transform="translate(-1 -1)">
        <path fill="#F5F6FB" fill-rule="nonzero" d="M64.11 402.14c-21.86-7.86-40.58-25.59-51.83-49.76C-6.43 312.17.45 266 16.06 226c10.86-27.83 33.51-54.12 58-70.72 3.68-2.49 7.58-4.93 10-8.63 9.3-14-13.66-28.36-23.52-33.5C49.82 107.59 38 98.36 33 87.11 19.56 57 61.8 38.32 83.12 29.88 148.41 4 222.2-6.2 291.76 6.34 340.08 15 398.85 41.22 397.41 97.87c-1 40.62-34.69 61.57-58.53 89.08-10.18 11.74-19.25 31.66-9.5 46.28 12.56 18.83 43.58 11.67 61.8 21 27.69 14.1 32.39 47.75 13.2 71.07-18.95 23-47.35 38.11-73.55 51.34-17.21 8.69-41.55 12.63-60 4.27-9.81-4.45-17.55-12.47-20.6-23-4.84-16.68-8.75-30.82-30.47-27.84-12 1.64-24.29 8.65-33.7 16-17.81 14-31.33 33.37-50.27 45.9-24.08 15.95-49.49 18.14-71.68 10.17z"/>
        <path fill="#FFF" fill-rule="nonzero" d="M276.67 67.67h28.7v25.37h-28.7zM307.18 67.67h28.7v25.37h-28.7zM276.67 94.92h28.7v25.37h-28.7zM307.18 94.92h28.7v25.37h-28.7zM276.67 122.03h28.7v25.37h-28.7zM307.18 122.03h28.7v25.37h-28.7z"/>
        <path stroke="#FFF" stroke-linecap="round" d="M271.77 116.05h-18.02M341.7 68.01v29.28M341.7 72.14h24.03M271.64 119.43V97.29"/>
        <path fill="#272B3F" fill-rule="nonzero" d="M198 49.66c-1.84-1-1.59-3.06-3.93-4.8-1.61-1.2-3.88-1.31-5.8-1.51A28.65 28.65 0 0 0 176 45c-17.34 6-22.56 30.19-10.18 43.37a16.06 16.06 0 0 1 4.18 8.1c1 6.09-6.68 16.14 1.41 20.7l39.16-1.33c-3.41-.61-2.83-8.24-2.7-10.55.34-5.81 3.62-8.45 5.67-13.66a31.57 31.57 0 0 0 2-11.09c.11-7.35-2.28-14.83-4.82-21.64-1.7-4.56-4.88-8.67-10.07-8.71a5.88 5.88 0 0 1-2.65-.53z"/>
        <path fill="#49D6D8" fill-rule="nonzero" d="M171.78 76.11s-.25-11.74 6.75-14c0 0 10.75-3 11-7 0 0 2.25 9 5.75 10.25 0 0 8 3.5 6 10.25 0 0 2.25-4.75 5-2 0 0 2 2.49-2.5 6.25a13.57 13.57 0 0 0-.54 2.54 25.51 25.51 0 0 1-2.64 6.35c-3.68 6.24-10.28 10.8-17.12 6.87-5.85-3.36-11-7.24-12.7-14a10.18 10.18 0 0 0-.89-2.83c-1.28-1.12-3.75-4.59-1.66-5.8 1.77-.99 2.71 2.1 3.55 3.12zM227.05 133.41s3.23 12.94 6.23 17.76c0 0 .62 22.33 2.68 35 0 0-8.15 8.83-3.68 11.5 0 0-2.87 5.83 4 7.33 0 0 9.26 3.17 5.14-15.33L244 150c.2-3.21-.94-5.78-1.86-8.72-.81-2.59-1.54-5.21-2.31-7.81-1.19-4-4.38-6-5.57-10l-7.21 9.94z"/>
        <path fill="#272B3F" fill-rule="nonzero" d="M180.92 196.68s-1.22 44 1.52 58.46c0 0 1.72 30.15-.9 35.56 0 0-4 8.53 4 8.82 0 0 11.35 4.84 10.78-6.26 0 0 1.42-67.14 4-77.38 0 0 5.69 38.4 6.83 52.06 0 0 1.6 22.76 2.37 25.89 0 0-1.8 6.93 7.87 6.74 0 0 8.82.66 8-6.45 0 0-2.28-21.9-2.84-28.73 0 0-3.7-67.14-3-73.54l-38.63 4.83z"/>
        <path fill="#FFF" fill-rule="nonzero" d="M195.63 101.18l-11.08.83-20.79 7.17s-3.13-.83-5.46 7.5c0 0-2.5 7-8 10.83 0 0-6.67 4 2.5 11.33 0 0 9.67 12.33 11.83 1.33a65.57 65.57 0 0 0 7.83 20.83s5.5 12 4 22.83c0 0-8.83 9.67 3.5 13.67 0 0 28.67 12.67 43.17-5.67 0 0 6-7.33-3.67-18.17 0 0-1.5-5.67-.5-17.5 0 0 3.17-11.83 1.33-22.33 0 0 4.17 2.33 5 4.83 0 0 5.83 3.17 11.67-6.67 0 0 6.83-8.67 0-7a33.62 33.62 0 0 0-9.27-11.93c-2.5-2.13-5.82-3.2-7.9-5.74 0 0-2.22-1.25-8.67-2l-15.49-4.14z"/>
        <path fill="#49D6D8" fill-rule="nonzero" d="M184.8 90.94s-.62 10.15-1.28 14.32c-.31 1.95 12.26 2.4 11.17-2.33l-4.13-13.59-5.76 1.6z"/>
        <path fill="#3C496D" fill-rule="nonzero" d="M192.86 300.21s3.14 7.13-3.12 9.41c0 0-24.09 7.14-16.5-2.84l9.46-7.88 10.16 1.31zM211 298.89s-1.76 8 1.65 9.87c0 0 9.81 4 15.5 2.56 0 0 6.12-1.14 2.28-5.83l-6.75-6.6H211z"/>
        <path fill="#49D6D8" fill-rule="nonzero" d="M151.12 137s-4.77 9.9-11 15.62c0 0-20.5-17.62-25.92-27.28l-7.77 2.5s14.33 23.5 27.33 35.33c0 0 10.32 13.61 26.41-18.53l-9.05-7.64z"/>
        <path fill="#E8EAEF" fill-rule="nonzero" d="M96 101.48l13.63-1s2.88-1.69 3.36 2.45l3 19.5s1.63 3.89-6.79 5.35l-7 .52s-2.46.69-2.8-4l-4.11-19.25s-1.46-3.41.71-3.57z"/>
        <path fill="#FFF" fill-rule="nonzero" d="M97.74 101.48l13.63-1s2.88-1.69 3.36 2.45l3 19.5s1.63 3.89-6.79 5.35l-7 .52s-2.46.69-2.8-4L97 105.07s-1.42-3.43.74-3.59z"/>
        <path fill="#49D6D8" fill-rule="nonzero" d="M99.15 120.37a16.62 16.62 0 0 1-3-7.71s0-4.18 4-3.48c0 0 1.53.39 2.2 4.85 0 0 2.42 5.58-.38 7.22a2.24 2.24 0 0 1-2.82-.88zM117 122.46a23.63 23.63 0 0 0 2.4-5.11s1.54-3.25-.75-5.22l-4.65-3.86c-.29-.24-1 .07-1.18.26-1.15 1-.35 2.83.33 3.82.47.7 2.72 2.28 2.83 3l1.02 7.11z"/>
        <path fill="#DDE0E9" fill-rule="nonzero" d="M194.15 143.62c-.88-3.31-1.81-6.61-2.65-9.94-.14-.55-.75-3.2-1.65-2.88a1.21 1.21 0 0 0-.84 1.32c.129 1.469.41 2.92.84 4.33a77.27 77.27 0 0 0 1.71 8.16c.124.446.338.861.63 1.22.51.56 1.6.78 2 0a3.39 3.39 0 0 0-.04-2.21zM185.35 135.6c-1.41.92-2.86 1.8-4.27 2.72 0 0-.59.14.27 1.17l2.35 2.43c.66.68 2.42 1.91 2.33 3-.09 1.09-1.86.31-2.25-.1l-4.43-4.7s-1.81-1.72 0-3l5.74-3.8a1.12 1.12 0 0 1 1.6.69c.1.5-.21.82-.59 1.07l-.75.52zM198.8 141.94c1.39-.91 2.83-1.78 4.22-2.69 0 0 .58-.13-.27-1.16l-2.33-2.4c-.65-.67-2.39-1.89-2.31-3 .08-1.11 1.83-.3 2.22.1l4.38 4.65s1.79 1.7 0 3l-5.71 3.78a1.11 1.11 0 0 1-1.58-.68c-.1-.5.21-.81.58-1.06l.8-.54z"/>
        <path stroke="#A9AEB7" stroke-width=".5" d="M104.49 118c.5.17 3.33-.17 5.33 0 0 0 3.17-.67 4.33-1M105.43 121.44s4.23-.23 5.56-.89a17 17 0 0 1 3.17 0"/>
        <circle cx="107.92" cy="111.59" r="2.49" fill="#A9AEB7" fill-rule="nonzero"/>
        <path stroke="#FFF" stroke-width=".5" d="M122.55 283.24s5-20.59 0-27.8"/>
        <path fill="#DDE0E9" fill-rule="nonzero" d="M120.27 285.43a7.1 7.1 0 0 1-2.72-1.58 34.71 34.71 0 0 1-6.35-6.89c-1.23-1.76-2.31-4.06-1.33-6a3.23 3.23 0 0 1 5.81.13c.74 1.59.24 3.83 1.65 4.87s3.47-.21 3.94-1.85c.47-1.64-.18-3.37-.86-4.93a58.87 58.87 0 0 1-3.15-7.82c-.66-2.39-1.28-6.25.24-8.46 1.52-2.21 4.75-1.82 7-1.44a12.25 12.25 0 0 1 5.29 1.78c2.89 2.12 3.34 6.39 2.3 9.82-1.04 3.43-3.25 6.37-4.87 9.57-.33.65-.62 1.5-.15 2.06.379.36.905.52 1.42.43a6.29 6.29 0 0 0 4.75-3.32 14.79 14.79 0 0 0 1.59-5.78c.15-1.32.39-2.88 1.57-3.47 1.66-.83 3.43 1 4.21 2.65a13.54 13.54 0 0 1 .72 10.5 13.94 13.94 0 0 1-7.67 7.28 38.35 38.35 0 0 1-10.55 2.4 7.8 7.8 0 0 1-2.84.05zM123.67 289.92h-9.16c-2.39 0-1.49-.24-1.29 2.21.14 1.77.33 3.53.5 5.29l1 10.58c.008.43.118.85.32 1.23.5.78 1.6.85 2.52.83 5.79-.12 9.23-.24 15-.36.86-6.57 2.62-13.18 2.93-19.79l-11.82.01z"/>
        <path fill="#CFD4E2" fill-rule="nonzero" d="M110 284a2.67 2.67 0 0 1 1.71-.52l27.5.06a23.38 23.38 0 0 1 .41 4.7 3.19 3.19 0 0 1-.28 1.47c-.62 1.16-2.23 1.2-3.54 1.12a130.3 130.3 0 0 0-22.13.41 5.45 5.45 0 0 1-3.46-.38 3.59 3.59 0 0 1-1.48-3.17c.06-1.49.34-2.94 1.27-3.69z"/>
        <path stroke="#FFF" stroke-width=".5" d="M122.7 253.52s5.15 18.24-.29 28.83M123.58 279.86s16-.88 14.42-13.68M122.7 281.47s-9.41-3.82-10.44-8.68"/>
        <path fill="#FFF" fill-rule="nonzero" d="M122 297.12c0-1.43 1.93-2.61 3.34-2.63.253-.023.507.04.72.18.132.117.237.26.31.42a3.37 3.37 0 0 1 .47 2.54 2.41 2.41 0 0 1-1.76 1.49 2.61 2.61 0 0 1-2.53-.7 1.92 1.92 0 0 1-.55-1.3z"/>
        <path stroke="#FFF" stroke-linecap="round" stroke-linejoin="round" d="M177.91 74.18a4 4 0 0 1 5.94-.3M195.07 74.07a4 4 0 0 0-5.95-.08"/>
        <path fill="#FFF" fill-rule="nonzero" d="M182.29 87.81a7.53 7.53 0 0 0 6.83 2.49c2.4-.37 6-2.48 5.6-5.35-.17-1.42-1.86-1.72-3-1.5-1.14.22-2.16.9-3.36 1a5.33 5.33 0 0 1-3.66-.86s-2.16-1.55-3.17.14c-.83 1.36-.29 2.85.76 4.08z"/>
        <path fill="#F4BA64" fill-rule="nonzero" d="M270.26 73.17a39.36 39.36 0 0 1 16.6-1.06c2.26.31 5.15.43 7 1.93 2.3 1.85 1.06 5.49.16 7.75-2.31 5.79-9.81 12.81-16.54 10.76-5.36-1.64-10-10.33-10-15.65.01.01-.48-2.76 2.78-3.73z"/>
        <path fill="#F4BA64" fill-rule="nonzero" d="M271.81 73.36s-7.36-.93-12.65.83c0 0-2.7 1.06 0 3.15a19.45 19.45 0 0 0 9.08 2.3l3.57-6.28zM294.11 74.62s3.73 5.66 4.46 10.72c0 0 .24 2.65-2.53 1.33a17.76 17.76 0 0 1-5.54-6.5l3.61-5.55z"/>
        <circle cx="279.9" cy="80.97" r="4.5" fill="#FFF" fill-rule="nonzero" opacity=".29"/>
        <circle cx="279.9" cy="81.02" r="3.62" fill="#FFF" fill-rule="nonzero"/>
        <path fill="#F4BA64" fill-rule="nonzero" d="M285.18 37c-6.82-1.15-14.66 1.79-18.15 7.77a15.29 15.29 0 0 0-1.58 3.87l-.22 1.11-1.33.66a24.9 24.9 0 0 0-.44 5.64c.438.623.92 1.214 1.44 1.77a16.5 16.5 0 0 0 15.58 11.49s12.93-.66 15.91-11.05a3.76 3.76 0 0 0 2.43-.77s1.44-4.53.44-6.85L297 49.12a10.92 10.92 0 0 1-.49-2.26 14.52 14.52 0 0 0-2.71-5 14.19 14.19 0 0 0-8.62-4.86z"/>
        <ellipse cx="287.189" cy="55.128" fill="#F7A226" fill-rule="nonzero" rx="4.87" ry="5.01" transform="rotate(-.573 287.19 55.128)"/>
        <ellipse cx="286.524" cy="55.607" fill="#FFF" fill-rule="nonzero" rx="4.36" ry="4.49" transform="rotate(-.62 286.524 55.607)"/>
        <ellipse cx="272.789" cy="54.116" fill="#F7A226" fill-rule="nonzero" rx="4.53" ry="5.01" transform="rotate(-.62 272.79 54.116)"/>
        <ellipse cx="272.005" cy="54.684" fill="#FFF" fill-rule="nonzero" rx="4.02" ry="4.45" transform="rotate(-.62 272.005 54.684)"/>
        <path stroke="#F7A226" stroke-linecap="round" stroke-linejoin="round" stroke-width=".75" d="M288.64 56a1.835 1.835 0 1 0-3.67 0M273.54 55.9a1.835 1.835 0 1 0-3.67 0"/>
        <path fill="#F7A226" fill-rule="nonzero" d="M290.65 40.82a4.8 4.8 0 0 0-.16-1.67 15.18 15.18 0 0 0-5.61-2.15 19.15 19.15 0 0 0-11.59 1.79 4.72 4.72 0 0 0-.08.49c-.3 3.52 3.36 6.71 8.17 7.12 4.81.41 8.97-2.06 9.27-5.58zM280.19 69.42a20.47 20.47 0 0 0 4.4-.85v-.18a5.18 5.18 0 0 0-10.34-.25 16.16 16.16 0 0 0 5.94 1.28z"/>
        <path fill="#FFF" fill-rule="nonzero" d="M244.24 70.61l16.5.11s2.84-.68 2.67 5.65v16.55s-.74 3.19-9.58 3.74c0 0-11.84 1.66-12.09-3V77.4s0-6.81 2.5-6.79z"/>
        <path stroke="#A9AEB7" stroke-width=".5" d="M246.32 85.22a58.21 58.21 0 0 1 7.67 0c1.718.19 3.452.19 5.17 0M246.32 88a25.37 25.37 0 0 1 6.42 0h6.42"/>
        <circle cx="252.78" cy="78.33" r="1.96" fill="#A9AEB7" fill-rule="nonzero"/>
    </g>
</svg>