<svg xmlns="http://www.w3.org/2000/svg" width="415" height="406" viewBox="0 0 415 406">
    <g fill="none" fill-rule="evenodd" transform="translate(-1 -1)">
        <path fill="#F5F6FB" fill-rule="nonzero" d="M64.11 402.14c-21.86-7.86-40.58-25.59-51.83-49.76C-6.43 312.17.45 266 16.06 226c10.86-27.83 33.51-54.12 58-70.72 3.68-2.49 7.58-4.93 10-8.63 9.3-14-13.66-28.36-23.52-33.5C49.82 107.59 38 98.36 33 87.11 19.56 57 61.8 38.32 83.12 29.88 148.41 4 222.2-6.2 291.76 6.34 340.08 15 398.85 41.22 397.41 97.87c-1 40.62-34.69 61.57-58.53 89.08-10.18 11.74-19.25 31.66-9.5 46.28 12.56 18.83 43.58 11.67 61.8 21 27.69 14.1 32.39 47.75 13.2 71.07-18.95 23-47.35 38.11-73.55 51.34-17.21 8.69-41.55 12.63-60 4.27-9.81-4.45-17.55-12.47-20.6-23-4.84-16.68-8.75-30.82-30.47-27.84-12 1.64-24.29 8.65-33.7 16-17.81 14-31.33 33.37-50.27 45.9-24.08 15.95-49.49 18.14-71.68 10.17z"/>
        <path fill="#EAEDF4" fill-rule="nonzero" d="M209.19 321.94h14.72v1.71h-14.72z"/>
        <path fill="#EAEDF4" fill-rule="nonzero" d="M301.61 322.8a.85.85 0 0 0-.85-.86h-16.88V210c0-7.18-5.82-13-13-13H81.37c-7.18 0-13 5.82-13 13v13.22h1.71V210c.006-6.235 5.055-11.289 11.29-11.3h54.77v60H81.75a13.26 13.26 0 0 0-7.07 2l-4.6 2.9V243h-1.71v78.91H51.49a.855.855 0 0 0 0 1.71h134.42v-1.71H70.07v-49.02h212.1v49.05h-25.78v1.71h44.38a.85.85 0 0 0 .84-.85zM137.84 198.69h76.58v11.85h1.71v-11.85h54.77c6.235.017 11.28 5.075 11.28 11.31v53.6l-4.6-2.9a13.26 13.26 0 0 0-7.07-2h-54.39v-27.18h-1.71v27.15h-76.57v-59.98zm-68.7 72.5l.09-.18 2.06-4.16a11.61 11.61 0 0 1 10.46-6.49H270.5a11.61 11.61 0 0 1 10.5 6.5l2.15 4.34-214.01-.01z"/>
        <path fill="#272B3F" fill-rule="nonzero" d="M253.6 93s12-1.67 5.75-13l-2.73-2.44s-2-1.9-3.43-7.12c0 0-8.36-14.51-23-7.36 0 0-7.4 2.92-11.79 3.43 0 0-11.79 2.62-12.79 14.38 0 0 .47 10.56-.71 12.85 0 0-3.15 14.48 10 15.34l7.13-6.94 5.15-12.74L253.6 93z"/>
        <path fill="#788DDF" fill-rule="nonzero" d="M253.8 96.72s-.1-21.92-11.34-17.64c0 0-8.2 3.3-13.48.49 0 0-8.53-1.71-9 7.84 0 0-.49 6 .66 10.14 0 0 1.11 3.47-1.08 3.83 0 0-2.16.81-3-2.24 0 0-3.27-2.67-5.22 1.45 0 0-1.14 6.27 6 10a5.26 5.26 0 0 1 2.85 2.91s6.94 9.51 14.12 11.92c0 0 5 3 9.2-.6-.05.03 12.49-8.09 10.29-28.1zM272.29 116.21s7-13 9.37-16.66c0 0-1.55-23.81-5.35-41.28a25.43 25.43 0 0 0-3.87-5.06s-6.4-3.13-6.63-6.65c0 0-2.34-8.7 10.83-10.45 0 0 12.41.08 9.51 10a41.62 41.62 0 0 1-1.48 4.53 8.81 8.81 0 0 0 1.11 3.47s12.06 35.53 10.93 45.35c0 0 .1 13-12 25.88l-12.42-9.13z"/>
        <path fill="#5772C9" fill-rule="nonzero" d="M283.17 38a11.42 11.42 0 0 0-14 .91A10.76 10.76 0 0 0 265.89 49s2.19 5.21 10.69-.21c0 0 8.77-7.79 6.59-10.79z"/>
        <path stroke="#DDE0E9" stroke-width="2" d="M279.88 31.47s-14.17 0-18.52 1.21c0 0-7 1.34-3.13 6.4L266.92 50a6.23 6.23 0 0 0 4.16 2.31c3 .24 4.94-2.1 6.42-4.39 1.26-2 2.61-3.88 3.85-5.86 1.47-2.34 5.49-8.85 1.1-10.39a7.56 7.56 0 0 0-2.57-.2z"/>
        <path fill="#272B3F" fill-rule="nonzero" d="M238.48 359.91s-4.47 13.8 10.7 15.47c0 0 24.93 1.92 16.41-6.39l-9.59-8.88-17.52-.2zM203.27 364.19S199 379.53 214 379.44c0 0 20.4.44 14.59-7.15l-9.45-7.68-15.87-.42z"/>
        <path fill="#515872" fill-rule="nonzero" d="M259.9 227.62l.16.13c1.25 1.23.24 6.31.19 8l-.25 9.17-2 73.37c-.14 5.26-.277 10.517-.41 15.77a62.23 62.23 0 0 0 .37 11.07c.61 4 2 8.19.35 11.88-1.9 4.34-7.25 6.11-12 5.89-3.44-.16-7.16-1.36-8.9-4.34-2-3.44-.65-7.74.25-11.62 2.3-9.86 1.29-20.15.32-30.23-1.63-17-3.11-33.94-4.59-50.91l-1.32-15.18c-1.58 1.21-1.87 3.43-2 5.41l-8.54 103.37a8 8 0 0 1-1.05 4c-1.26 1.8-3.72 2.23-5.91 2.33a39 39 0 0 1-9.93-.85 4 4 0 0 1-1.58-.6c-1.27-.95-1.1-2.87-.83-4.43 3.22-19 .67-38.48 1-57.76.06-3.72.22-7.44.38-11.16l.51-11.69 2.22-51.08 36.65-.48 9.16-.12c1.5-.05 6.31-.93 7.75.06z"/>
        <path fill="#FFF" fill-rule="nonzero" d="M287.92 127.49s-12.27-11.6-20.32-12.85l-11.25 17.56s-6.6 7.52-21 4l-13.21 2.32-21 3.45s-7.88 1.4-12.48 12.33c0 0-8.72 15.63-12.19 16.74 0 0 3.62 14.82 19.39 12l9.38-19.21c.793 9.433 1.48 18.873 2.06 28.32.28 4.61.53 9.22.66 13.83.07 2.64.66 5.45 0 8.06-.59 2.18-2.6 4-3.76 5.93-2.49 4.14-4.86 10.67 1.17 12.95a53.72 53.72 0 0 0 9.18 2.11 96.69 96.69 0 0 0 21 1.7 55 55 0 0 0 14.84-2.41 35.85 35.85 0 0 0 6.77-2.95 46 46 0 0 0 4.53-3.34c1.21-.91 2.83-1.4 3.19-3 .43-2-.19-4.19-.73-6.05-1-3.45-3.23-6.41-4.19-9.88-1-3.72-.16-7.88 0-11.67.36-7.41.81-14.82 1.5-22.21.41-4.34.25-10.23 2.05-14.29 0 0 8.49-19.16 13.61-22.15.02.04 10.14-7.71 10.8-11.29z"/>
        <path fill="#788DDF" fill-rule="nonzero" d="M236.1 126.22s-1.92 5.66-1.64 10.07c0 0 .4 6.17-5.83 5.69 0 0-7.11-.42-6.63-6.65 0 0 .84-14.23-1.44-22.05l15.54 12.94z"/>
        <path fill="#272B3F" fill-rule="nonzero" d="M220.53 97.82c.1 0 .17.24.56.7 1 1.16 1.34 2.79 2.44 4 1.91 2 5.12 4 8 3.77a40.85 40.85 0 0 0 6-.63 26.39 26.39 0 0 1 7.83.27 13 13 0 0 1 6.41 2.79c.43.334.747.791.91 1.31a3 3 0 0 1-.09 1.34 23.4 23.4 0 0 1-8 12.67 11.72 11.72 0 0 1-4.77 2.53c-3.05.67-6.21-.55-8.88-2.16a30.52 30.52 0 0 1-14.49-25.25 14.88 14.88 0 0 1 3.03-1.16c.77-.1.93-.23 1.05-.18z"/>
        <path fill="#FFF" fill-rule="nonzero" d="M243.86 118.17c2-1.14 2.75-3 .21-5.46-2.12-2-5.27 1.33-7.66-.57 0 0-3.59-2.86-4.73 1.55-1.54 5.95 8.04 6.8 12.18 4.48z"/>
        <path fill="#515872" fill-rule="nonzero" d="M220.33 191.24c.34-4.39.83-8.78.82-13.19 0-2.93-.32-4.59 3.38-3.91l11.52.13s1.76-.12 1.05 2.59l-2 16.37-14.77-1.99z"/>
        <path fill="#788DDF" fill-rule="nonzero" d="M163.77 193.16L178 175.23a15.62 15.62 0 0 0 13 8.4c-.78.94-4.18 5-7.8 9.15 0 0 21.05-3.15 32.75-.37l7.59-5.81s4.18-3.82 8 .36c0 0 6.52 4.89 3.22 8.65 0 0-7.36 9.34-11.95 7l-5.52-3.18s-35 5.83-45.81 3.87c.03-.01-12.55-2.74-7.71-10.14z"/>
        <path stroke="#FFF" stroke-linecap="round" stroke-linejoin="round" d="M249.05 95.22s-2.25-3.8-6 .46M237.08 96s-2.25-3.8-6 .46"/>
        <path stroke="#DDE0E9" d="M175.24 27.52c1 4 9 3 9 3l128 1s3 1 3 3"/>
        <path fill="#F4BA64" fill-rule="nonzero" d="M133.36 89.3s-6 6.63-6.79 13.14c-.43 3.5 2.62 3.25 4.6 2.22a13.2 13.2 0 0 0 6.22-6.33l-4.03-9.03zM168.25 86.19s6.79 5.1 8.53 10.92c.94 3.13-2 3.39-4.09 2.78a12.57 12.57 0 0 1-6.95-4.79l2.51-8.91z"/>
        <path fill="#F4BA64" fill-rule="nonzero" d="M172.77 74.92s-.23 22.78-9.94 35.48a14.44 14.44 0 0 1-11.52 5s-15.45.93-17.78-32.71l39.24-7.77zM176.26 61.94s-22.15 8.45-34.85 10.72c0 0-9.73 1-14.84-6.61 0 0-1.93-4.94 6.13-7.61 0 0 13.26-5.32 21-3.88l18.13 4.13s7.01 1.31 4.43 3.25z"/>
        <path fill="#F7A226" fill-rule="nonzero" d="M126.37 65.16s-1.43 12.44.27 20.09a7.33 7.33 0 0 0 5.69 7.21s8.8 2.64 11.64 1.93l-2.45-23.25-15.15-5.98z"/>
        <path fill="#FFD194" fill-rule="nonzero" d="M176.89 60.49l-.24 21.24s-.07 7.57-3.48 8.22c0 0-20.87 9.79-29.24 5.41 0 0-1.62-1.11-2.17-5.69 0 0-.66-15.18-.34-18.3l35.47-10.88z"/>
        <circle cx="168.856" cy="75.887" r="3.95" fill="#FFF" fill-rule="nonzero" opacity=".29" transform="rotate(-2.5 168.856 75.887)"/>
        <circle cx="154.775" cy="79.667" r="3.95" fill="#FFF" fill-rule="nonzero" opacity=".29" transform="rotate(-2.5 154.775 79.667)"/>
        <circle cx="168.856" cy="75.887" r="3.16" fill="#FFF" fill-rule="nonzero" transform="rotate(-2.5 168.856 75.887)"/>
        <circle cx="154.775" cy="79.667" r="3.16" fill="#FFF" fill-rule="nonzero" transform="rotate(-2.5 154.775 79.667)"/>
        <path fill="#F7A226" fill-rule="nonzero" d="M156.2 96.22c-.11.17 4 4.19 4.33 4.6 0 0 2.88 2.34-2.56 2.91l-3.07.46s-2.47 0-1-2.52a37.06 37.06 0 0 1 2.3-5.45z"/>
        <path fill="#FFD194" fill-rule="nonzero" d="M159.73 102.44s-1.8-2.4-2.84-4c0 0-.79-.55-1.85 4.31-.04.03-.82 1.25 4.69-.31z"/>
        <path stroke="#FFD194" stroke-width=".5" d="M142.62 73.07L126.56 67M142.69 74.65l-16.13-5.34"/>
    </g>
</svg>