<svg xmlns="http://www.w3.org/2000/svg" width="508" height="406" viewBox="0 0 508 406">
    <g fill="none" fill-rule="evenodd">
        <path fill="#F5F6FB" fill-rule="nonzero" d="M94.62 401.14c-21.86-7.86-40.62-25.59-51.83-49.76C24.08 311.17 31 265 46.57 225c10.86-27.83 33.51-54.12 58-70.72 3.68-2.49 7.58-4.93 10-8.63 9.3-14-13.66-28.36-23.52-33.5-10.73-5.6-22.53-14.82-27.55-26.08C50.07 56 92.31 37.32 113.63 28.88 178.92 3 252.71-7.2 322.27 5.34 370.59 14 429.35 40.22 427.92 96.87c-1 40.62-34.69 61.57-58.53 89.08-10.18 11.74-19.25 31.66-9.5 46.28 12.56 18.83 43.58 11.67 61.8 21 27.69 14.1 32.39 47.75 13.2 71.07-18.95 23-47.35 38.11-73.55 51.34-17.21 8.69-41.55 12.63-60 4.27-9.81-4.45-17.55-12.47-20.6-23-4.82-16.7-8.74-30.85-30.44-27.91-12 1.64-24.29 8.65-33.7 16-17.81 14-31.33 33.37-50.27 45.9-24.11 16.02-49.52 18.21-71.71 10.24z"/>
        <path stroke="#DDE0E9" stroke-dasharray="4" d="M407.45 190.71c-31.16 85.47-110.84 141.6-202.38 117.61-60.17-15.77-140.27-46.54-162.19-111.4 0 0-10.75-42.82-.86-67.69"/>
        <path fill="#5772C9" fill-rule="nonzero" d="M150.94 140.46s-2.43-7.57 1.35-7.84c0 0 3.78 1.35 3.78 7.3l-5.13.54z"/>
        <path fill="#272B3F" fill-rule="nonzero" d="M225.38 380.53a38.14 38.14 0 0 0-9.51 11.62s-2.84 6.49 9.51 4.87c0 0 13.68-3.9 14.51-10.54l.83-6.64-15.34.69zM259.86 379.27v6.39s-1.59 4.6 8.68 7.84c0 0 21.62 5.79 20-4.95l-11.94-12.82-16.74 3.54z"/>
        <path fill="#515872" fill-rule="nonzero" d="M215.91 243.85c.27 15.86 1.24 31.7 2.2 47.53l.38 6.18c.55 9 1.09 18 2 26.91 1.81 17.87 5.07 35.91 2.43 53.68 3.93 5.32 12.41 5.42 17.85 1.67a4.44 4.44 0 0 0 1.57-1.61 5.06 5.06 0 0 0 .36-2c1.45-37.94 2.9-75.87 4-113.82l5.82 59.43c.42 4.28.84 8.56.88 12.86 0 2.89-.12 5.77-.11 8.66 0 11.63 2.44 23.12 3.2 34.72 3.44 1.34 7 2.55 10.72 2.48 3.72-.07 7.54-1.64 9.48-4.78a3.69 3.69 0 0 0 .62-3 7.77 7.77 0 0 0-.92-1.58c-1.09-1.77-1.13-4-1.15-6l-.31-44.83c-.18-26.19-.36-52.42 1.58-78.53l-31.27-2c-5.24-.33-10.73-1.19-16-1-4.66.08-9.13 3.07-13.33 5.03z"/>
        <path fill="#788DDF" fill-rule="nonzero" d="M281.62 181.69s7 11.27 10 14c0 0 1.08 27.07 6.22 40l1.62 6.76-3.72 11.62s.47 5.68 4.8 0c0 0 2.43 11.62 10.81 10.54 0 0 8.11-.39-2.43-18.3 0 0 1.35-36-2.16-47.92 0 0-4.47-17.65-11.83-29 0 .1-13.31 5.54-13.31 12.3zM187.83 173.58s-5.68 11.35-6.76 16.49c0 0-14.33-30.54-18.65-37 0 0 4.32 0 2.7-8.65l-.81-4.87s-.81-4.87-7.3-2.16l-5.14.54s-2.16-.27-1.62 6.76c0 0 0 8.65 3.51 9.73l17.57 46.76s4.14 12.7 12.88 11.89c0 0 7.32 2.79 18.3-29.69.02-.02-8.74-10.88-14.68-9.8z"/>
        <path fill="#FFF" fill-rule="nonzero" d="M211.34 127.23l18.66-5.82h7.7l25 4.05s8.92 2.7 16.49 14.6l16.49 24.6s4.6 4.05-4.6 8.38c0 0-7 5.68-8.38 8.65 0 0-4.87 3.78-7.57-1.62l-8.65-11.62 2.7 39.73c.37 5.45 2.56 10.5 3.72 15.79.95 4.3.88 9.53 5.2 12.05 0 0 6.76 6.76-4.32 10l-45.14-1.35s-10.81 6.22-19.46-5.14c-2.37-3.11.87-6 3-8 5.64-5.33 3.72-9.75 3-16.68l-3.91-35.73-1-9-5.41 12.43s-2.43 3-8.38-2.16c0 0-5.41-6.22-8.65-6.76 0 0-8.11-.54 0-10.27l12.43-29.46s4.33-7.07 11.08-6.67z"/>
        <path fill="#788DDF" fill-rule="nonzero" d="M212.36 89.63s-3.24-1.58-3.81.7c0 0 0 8.41 4.42 11a4.93 4.93 0 0 0 2.14 0s2.71 16 18.1 14.11c0 0 15 .28 15-16.81 0 0 3.7 1.42 4.27-5 0 0 1.95-10.16-3.87-7.57l-1.12-22.49-37.19 5.84 2.06 20.22z"/>
        <path fill="#272B3F" fill-rule="nonzero" d="M213.11 91.9s-.27-.87-.75-2.27a89.12 89.12 0 0 0-5.09-12s-10-18 8.12-25.79c0 0 24.08-10.26 38.61 3.28 0 0 6.84 9.26-3.42 17.38a26.82 26.82 0 0 0-1.58 7.57l-.71 9.4s-1.42 1.42-2-2.14c0 0 .28-6.27-1.57-8.26 0 0-4.42-4.58-4.42-9.06 0 0-7.27 15.61-21.09 6.49 0 0-5.41-5.41-6.41-2 0 0-.57 4.27 1.42 11.11 0 0 1.85 4.42.43 7.12.03.02-.44 2.42-1.54-.83z"/>
        <path fill="#788DDF" fill-rule="nonzero" d="M226.62 115.25a28.47 28.47 0 0 1 2.76 9.27s.11 4.84 6 4.7c0 0 6 .28 5.27-6.13 0 0-1.36-6.44-1-9.63l-13.03 1.79z"/>
        <path fill="#FFF" fill-rule="nonzero" d="M225 106.13a3 3 0 0 1 2.41-4.17c.92 0 1.58.83 2.41 1.11a6.2 6.2 0 0 0 1.94.17 8.3 8.3 0 0 0 4.33-1.48c1.26-.71 2.34-.41 3.2 1a4.63 4.63 0 0 1 0 2.79c-.78 2.72-4.69 4-6.94 3.85a13.61 13.61 0 0 1-6.28-2 2.79 2.79 0 0 1-1.07-1.27z"/>
        <path stroke="#FFF" stroke-linecap="round" stroke-linejoin="round" d="M221.34 91.07s3.68-3.5 6.77 0M239.63 91.07s-3.68-3.5-6.77 0"/>
        <path fill="#EAEDF4" fill-rule="nonzero" d="M18.62 224.35h132.94s24.88-5.13 27.57 14.12c0 0 6.34 23.1-27.57 23.1H21.25s-19-1.9-21.2-18.92c.01 0-2.05-18.3 18.57-18.3zM38.66 83.09h128.91S191.7 78 194.3 97.21c0 0 6.15 23.1-26.73 23.1H41.22s-18.44-1.9-20.55-18.92c-.01 0-1.99-18.3 17.99-18.3zM290.08 52.57H424.9s25.23-5.13 28 14.12c0 0 6.43 23.1-28 23.1H292.75s-19.29-1.9-21.49-18.92c0 0-2.08-18.3 18.82-18.3zM332.33 150.57h144.81s27.1-5.13 30 14.12c0 0 6.91 23.1-30 23.1H335.2s-20.72-1.9-23.09-18.92c0 0-2.23-18.3 20.22-18.3z"/>
        <path stroke="#DDE0E9" d="M339 45.52l-1.66-1.12"/>
        <path stroke="#DDE0E9" stroke-dasharray="4.03" d="M334 42.21C302.38 22.38 264.72 16.07 227.82 20c-37.59 4-72.5 11.26-107.72 24-17.38 6.31-35.52 18.1-51 29.27"/>
        <path stroke="#DDE0E9" d="M67.47 74.53l-1.61 1.18M375.62 94.94l.85 1.81"/>
        <path stroke="#DDE0E9" stroke-dasharray="4.06" d="M378.16 100.43c4.27 9.3 12.91 28.57 18.05 43"/>
        <path stroke="#DDE0E9" d="M396.89 145.35c.22.667.433 1.297.64 1.89"/>
        <path fill="#272B3F" fill-rule="nonzero" d="M55.89 95.18a4.22 4.22 0 0 1 1.46-.26h.41a3.72 3.72 0 0 1 1.67.58c.487.313.657.647.51 1-.06.16-.14.24-.24.26a3.37 3.37 0 0 1-.81-.24 4.93 4.93 0 0 0-1.52-.26 2.24 2.24 0 0 0-2 1.16 4.66 4.66 0 0 0-.54 3 8.16 8.16 0 0 0 .32 1.93c.134.41.36.782.66 1.09.35.366.81.605 1.31.68a1.3 1.3 0 0 0 .75 0c.29-.149.561-.33.81-.54.667-.513 1.13-.663 1.39-.45a.35.35 0 0 1 .13.28 2 2 0 0 1-.45.9 2.88 2.88 0 0 1-2.29 1.28 3.61 3.61 0 0 1-2.53-1.2 4.34 4.34 0 0 1-1.09-1.8 9.67 9.67 0 0 1-.34-2.7v-.43a6.47 6.47 0 0 1 .06-1 4.74 4.74 0 0 1 .39-1.09c.198-.49.46-.95.78-1.37a3.63 3.63 0 0 1 1.16-.82zM63.16 98.71a2.13 2.13 0 0 1 .77-.43h.3a4.89 4.89 0 0 1 .58 0 2.89 2.89 0 0 1 2.12 1.26 3.37 3.37 0 0 1 .54 1.93c.006.12.006.24 0 .36a3.46 3.46 0 0 1-.86 2.18 3 3 0 0 1-1.48.81 4.19 4.19 0 0 1-.94.11c-.28 0-.56-.037-.83-.11a2.65 2.65 0 0 1-1.82-1.5 3.62 3.62 0 0 1-.28-1.28 3.66 3.66 0 0 1 .21-1.2 4 4 0 0 1 1.69-2.13zm1 4.75a2.11 2.11 0 0 0 1.22-.3c.31-.224.52-.562.58-.94a2.6 2.6 0 0 0 .09-.66 2.87 2.87 0 0 0-.09-.68 1.65 1.65 0 0 0-.6-1 1.37 1.37 0 0 0-.81-.28h-.21a1.34 1.34 0 0 0-.92.56 3.07 3.07 0 0 0-.73 1.82 3.38 3.38 0 0 0 0 .39c.033.33.186.636.43.86a1.75 1.75 0 0 0 1.05.23h-.01zM74.21 105.39a.72.72 0 0 1-.6-.21 16.76 16.76 0 0 1-.47-2.4 9.14 9.14 0 0 0-.51-2.4c-.4-.6-.95-.6-1.65 0s-1.007 1.74-.92 3.42c0 .953-.093 1.467-.28 1.54-.287.1-.5-.013-.64-.34a5 5 0 0 1-.26-1.69v-.58c0-2 .667-3.283 2-3.85a3 3 0 0 1 1.22-.3c.407 0 .8.146 1.11.41.388.317.685.73.86 1.2.261.76.432 1.55.51 2.35.104.679.168 1.363.19 2.05v.24c-.09.37-.26.56-.56.56zM78.77 100.48c-.39-.03-.777.1-1.07.36a2.92 2.92 0 0 0-.62 1.37 1.73 1.73 0 0 0 .06 1.33 1.91 1.91 0 0 0 1 .66 1.6 1.6 0 0 0 1.16 0c.6-.273 1.037-.273 1.31 0 .273.273.273.487 0 .64a2.44 2.44 0 0 1-.81.71 1.91 1.91 0 0 1-.92.36 4.19 4.19 0 0 1-1.37-.36 2.64 2.64 0 0 1-2-2.57 4.52 4.52 0 0 1 .21-1.31c.387-1.333.95-2.127 1.69-2.38a3.13 3.13 0 0 1 1-.13h.6a3.87 3.87 0 0 1 1.48.32c.224.136.391.35.47.6.006.08.006.16 0 .24a.75.75 0 0 1-.13.43c-.12.13-.21.19-.28.19a1.39 1.39 0 0 1-.49-.19 3.09 3.09 0 0 0-1.29-.27zM88.21 99.82c0 .46-.457.54-1.37.24-.913-.3-1.533-.2-1.86.3a5.42 5.42 0 0 0-.49 3 4.87 4.87 0 0 1-.13 2 .54.54 0 0 1-.28.06 1.1 1.1 0 0 1-.34-.06c-.273-.073-.437-.187-.49-.34a22.5 22.5 0 0 1-.21-3c-.04-.927-.06-1.593-.06-2v-.36c0-.31.11-.5.24-.56a.62.62 0 0 1 .62.17c.2.173.35.21.45.11a2.56 2.56 0 0 1 .71-.41 2.23 2.23 0 0 1 1-.26c.34 0 .678.058 1 .17.807.187 1.21.5 1.21.94zM90.2 98.88a2.8 2.8 0 0 1 1.48-.36c.22-.013.44-.013.66 0 .9.127 1.427.383 1.58.77.056.158.086.323.09.49a2 2 0 0 1-.62 1.33 3.09 3.09 0 0 1-2.65 1 2.06 2.06 0 0 0-.73 0c-.07 0-.09.16-.06.36a.9.9 0 0 0 .47.75 4.11 4.11 0 0 0 1.54.28c1 .073 1.5.21 1.5.41 0 .2-.13.393-.39.58a1.49 1.49 0 0 1-.6.39 1.91 1.91 0 0 1-.34 0h-.75c-1.853-.127-2.78-1.02-2.78-2.68a3.83 3.83 0 0 1 0-.56 4.81 4.81 0 0 1 .56-1.69 3 3 0 0 1 1.04-1.07zm2.33 1.22c0-.213-.213-.32-.64-.32a1.73 1.73 0 0 0-1.07.32 1.43 1.43 0 0 0-.41.45.29.29 0 0 0-.06.17.2.2 0 0 0 .06.15.57.57 0 0 0 .41.11 2.35 2.35 0 0 0 1.09-.32c.41-.22.62-.4.62-.56zM96.26 97.12a.58.58 0 0 1 .32-.15c.473 0 .58 1.043.32 3.13h1.29l.66.06c.185.006.367.043.54.11.14 0 .22.11.24.19a.4.4 0 0 1 .11.26.42.42 0 0 1-.24.34 3.26 3.26 0 0 1-1.31.34l-1.13.11a6.83 6.83 0 0 0 .51 1.93.77.77 0 0 0 .34.41c.268.042.542.042.81 0a4.05 4.05 0 0 1 .58 0 .42.42 0 0 1 .28.06.32.32 0 0 1 .11.21.83.83 0 0 1-.34.73 1.8 1.8 0 0 1-.9.51c-.15.014-.3.014-.45 0a1.68 1.68 0 0 1-1.18-.45 3.91 3.91 0 0 1-1-2 9.38 9.38 0 0 1-.26-2.31v-1.18c.12-1.287.353-2.053.7-2.3zM102.42 98.88a2.8 2.8 0 0 1 1.48-.36c.22-.013.44-.013.66 0 .9.127 1.427.383 1.58.77.056.158.086.323.09.49a2 2 0 0 1-.62 1.33 3.09 3.09 0 0 1-2.65 1 2.06 2.06 0 0 0-.73 0c-.07 0-.09.16-.06.36a.9.9 0 0 0 .47.75 4.11 4.11 0 0 0 1.54.28c1 .073 1.5.21 1.5.41 0 .2-.13.393-.39.58a1.49 1.49 0 0 1-.6.39 1.91 1.91 0 0 1-.34 0h-.75c-1.853-.127-2.78-1.02-2.78-2.68a3.83 3.83 0 0 1 0-.56 4.81 4.81 0 0 1 .56-1.69 3 3 0 0 1 1.04-1.07zm2.33 1.22c0-.213-.213-.32-.64-.32a1.73 1.73 0 0 0-1.07.32 1.43 1.43 0 0 0-.41.45.29.29 0 0 0-.06.17.2.2 0 0 0 .06.15.57.57 0 0 0 .41.11 2.35 2.35 0 0 0 1.09-.32c.42-.22.62-.4.62-.56zM120.83 95.35a.69.69 0 0 1-.58.68c-.867.16-1.748.23-2.63.21l-2.59.06a23.45 23.45 0 0 0 .26 3.06c0 .16.57.24 1.58.24 1.627 0 2.47.243 2.53.73a.75.75 0 0 1-.3.58 1 1 0 0 1-.54.24 10 10 0 0 1-1.52 0l-1.71-.13a13.38 13.38 0 0 0 .26 3.1 11.31 11.31 0 0 0 2.55 0c1.713-.04 2.677.09 2.89.39a.88.88 0 0 1 .19.54 1 1 0 0 1-.09.39c-.14.36-.567.53-1.28.51-.713-.02-1.35-.02-1.91 0h-1.11a3.63 3.63 0 0 1-2.11-.36c-.353-.113-.543-.49-.57-1.13a9.58 9.58 0 0 1-.09-1c-.287-4.04-.43-6.593-.43-7.66a1.77 1.77 0 0 1 0-.54.94.94 0 0 1 .49-.47 11.23 11.23 0 0 1 1.73-.06h1.43a20.86 20.86 0 0 1 3.25.17.39.39 0 0 1 .3.45zM126.93 105.13a.82.82 0 0 1-.58-.21 7.7 7.7 0 0 1-.73-1c-.527-.787-.827-1.163-.9-1.13a4.71 4.71 0 0 0-.79 1 4.55 4.55 0 0 1-.66.79.86.86 0 0 1-.56.17c-.373 0-.567-.15-.58-.45.039-.357.162-.7.36-1a5 5 0 0 1 .39-.6c.295-.407.559-.834.79-1.28a3.26 3.26 0 0 0-.54-.79 1.86 1.86 0 0 1-.49-1.09c0-.313.13-.457.39-.43.381.073.73.261 1 .54.14.14.36.35.66.62l.81-.9c.513-.553.907-.83 1.18-.83h.17c.273.173.187.66-.26 1.46l-.24.36c-.14.247-.36.603-.66 1.07l.94 1.37a4.17 4.17 0 0 1 .86 1.86.39.39 0 0 1-.32.41l-.24.06zM130.95 105.39c-.21 0-.34.06-.38.17a4.6 4.6 0 0 0-.06 1 7.82 7.82 0 0 1 0 1 .54.54 0 0 1-.28.39.51.51 0 0 1-.62-.11 1.61 1.61 0 0 1-.24-.88v-3a30.73 30.73 0 0 1 .13-3.66 1.87 1.87 0 0 1 .79-1.22 1.82 1.82 0 0 1 1-.24h.34a3.25 3.25 0 0 1 1.52.47 2.56 2.56 0 0 1 1 1.52c.04.204.06.412.06.62a2.7 2.7 0 0 1-.3 1.22 6.7 6.7 0 0 1-1.42 1.88 2.46 2.46 0 0 1-1.54.84zm1.54-4.88a1.54 1.54 0 0 0-.6-.32 1.16 1.16 0 0 0-.75 0 .61.61 0 0 0-.47.45 10.85 10.85 0 0 0-.15 1.95 7 7 0 0 0 0 .79 2.21 2.21 0 0 0 .06.83 1.52 1.52 0 0 0 .79-.41 5 5 0 0 0 .92-1 2.54 2.54 0 0 0 .64-1.46 1 1 0 0 0-.44-.83zM136.84 98.88a2.8 2.8 0 0 1 1.48-.36c.22-.013.44-.013.66 0 .9.127 1.427.383 1.58.77.056.158.086.323.09.49a2 2 0 0 1-.62 1.33 3.09 3.09 0 0 1-2.65 1 2.06 2.06 0 0 0-.73 0c-.07 0-.09.16-.06.36a.9.9 0 0 0 .47.75 4.11 4.11 0 0 0 1.54.28c1 .073 1.5.21 1.5.41 0 .2-.13.393-.39.58a1.49 1.49 0 0 1-.6.39 1.91 1.91 0 0 1-.34 0h-.75c-1.853-.127-2.78-1.02-2.78-2.68a3.83 3.83 0 0 1 0-.56 4.81 4.81 0 0 1 .56-1.69 3 3 0 0 1 1.04-1.07zm2.33 1.22c0-.213-.213-.32-.64-.32a1.73 1.73 0 0 0-1.07.32 1.43 1.43 0 0 0-.41.45.29.29 0 0 0-.06.17.2.2 0 0 0 .06.15.57.57 0 0 0 .41.11 2.35 2.35 0 0 0 1.09-.32c.45-.22.62-.4.62-.56zM147.93 99.82c0 .46-.457.54-1.37.24-.913-.3-1.533-.2-1.86.3a5.42 5.42 0 0 0-.49 3 4.87 4.87 0 0 1-.13 2 .54.54 0 0 1-.28.06 1.1 1.1 0 0 1-.34-.06c-.273-.073-.437-.187-.49-.34a22.5 22.5 0 0 1-.21-3c-.04-.927-.06-1.593-.06-2v-.36c0-.31.11-.5.24-.56a.62.62 0 0 1 .62.17c.2.173.35.21.45.11a2.56 2.56 0 0 1 .71-.41 2.23 2.23 0 0 1 1-.26c.34 0 .678.058 1 .17.807.187 1.21.5 1.21.94zM150 105c-.32 0-.53-.18-.61-.56a15.5 15.5 0 0 1-.15-2.5v-.41a6.71 6.71 0 0 1 .21-2.4.66.66 0 0 1 .51-.28h.04a.42.42 0 0 1 .38.39c.122.928.186 1.864.19 2.8v1.48a6.91 6.91 0 0 1 0 .94.57.57 0 0 1-.57.54zM153.3 98.88a2.8 2.8 0 0 1 1.48-.36c.22-.013.44-.013.66 0 .9.127 1.427.383 1.58.77.056.158.086.323.09.49a2 2 0 0 1-.62 1.33 3.09 3.09 0 0 1-2.65 1 2.06 2.06 0 0 0-.73 0c-.07 0-.09.16-.06.36a.9.9 0 0 0 .47.75 4.11 4.11 0 0 0 1.54.28c1 .073 1.5.21 1.5.41 0 .2-.13.393-.39.58a1.49 1.49 0 0 1-.6.39 1.91 1.91 0 0 1-.34 0h-.75c-1.853-.127-2.78-1.02-2.78-2.68a3.83 3.83 0 0 1 0-.56 4.81 4.81 0 0 1 .56-1.69 3 3 0 0 1 1.04-1.07zm2.33 1.22c0-.213-.213-.32-.64-.32a1.73 1.73 0 0 0-1.07.32 1.43 1.43 0 0 0-.41.45.29.29 0 0 0-.06.17.2.2 0 0 0 .06.15.57.57 0 0 0 .41.11 2.35 2.35 0 0 0 1.09-.32c.41-.22.62-.4.62-.56zM163.91 105.39a.72.72 0 0 1-.6-.21 16.76 16.76 0 0 1-.47-2.4 9.14 9.14 0 0 0-.51-2.4c-.4-.6-.95-.6-1.65 0s-1.007 1.74-.92 3.42c0 .953-.093 1.467-.28 1.54-.287.1-.5-.013-.64-.34a5 5 0 0 1-.26-1.69v-.58c0-2 .667-3.283 2-3.85a3 3 0 0 1 1.22-.3c.407 0 .8.146 1.11.41.388.317.685.73.86 1.2.261.76.432 1.55.51 2.35.104.679.168 1.363.19 2.05v.24c-.08.37-.26.56-.56.56zM168.47 100.48c-.39-.03-.777.1-1.07.36a2.92 2.92 0 0 0-.62 1.37 1.73 1.73 0 0 0 .06 1.33 1.91 1.91 0 0 0 1 .66 1.6 1.6 0 0 0 1.16 0c.6-.273 1.037-.273 1.31 0 .273.273.273.487 0 .64a2.44 2.44 0 0 1-.81.71 1.91 1.91 0 0 1-.92.36 4.19 4.19 0 0 1-1.37-.36 2.64 2.64 0 0 1-2-2.57 4.52 4.52 0 0 1 .21-1.31c.387-1.333.95-2.127 1.69-2.38a3.13 3.13 0 0 1 1-.13h.6a3.87 3.87 0 0 1 1.48.32c.224.136.391.35.47.6.006.08.006.16 0 .24a.75.75 0 0 1-.13.43c-.12.13-.21.19-.28.19a1.39 1.39 0 0 1-.49-.19 3.09 3.09 0 0 0-1.29-.27zM174 98.88a2.8 2.8 0 0 1 1.48-.36c.22-.013.44-.013.66 0 .9.127 1.427.383 1.58.77.056.158.086.323.09.49a2 2 0 0 1-.62 1.33 3.09 3.09 0 0 1-2.65 1 2.06 2.06 0 0 0-.73 0c-.07 0-.09.16-.06.36a.9.9 0 0 0 .47.75 4.11 4.11 0 0 0 1.54.28c1 .073 1.5.21 1.5.41 0 .2-.13.393-.39.58a1.49 1.49 0 0 1-.6.39 1.91 1.91 0 0 1-.34 0h-.75c-1.853-.127-2.78-1.02-2.78-2.68a3.83 3.83 0 0 1 0-.56 4.81 4.81 0 0 1 .56-1.69 3 3 0 0 1 1.04-1.07zm2.33 1.22c0-.213-.213-.32-.64-.32a1.73 1.73 0 0 0-1.07.32 1.43 1.43 0 0 0-.41.45.29.29 0 0 0-.06.17.2.2 0 0 0 .06.15.57.57 0 0 0 .41.11 2.35 2.35 0 0 0 1.09-.32c.39-.22.6-.4.6-.56h.02zM307.86 75.64c-.3-.17-.44-.38-.41-.62a1.82 1.82 0 0 0-.41-1.31 6.72 6.72 0 0 0-1.24-1.13 2.83 2.83 0 0 0-1.09-.62c-.07 0-.12.46-.15 1.37a7.11 7.11 0 0 1-.17 1.8.6.6 0 0 1-.56.47.58.58 0 0 1-.64-.26 30.35 30.35 0 0 1-.3-5c-.04-1.64-.06-2.803-.06-3.49v-.56a1.29 1.29 0 0 1 .3-.88 2.13 2.13 0 0 1 1.56-.58 5.29 5.29 0 0 1 .64 0c.5.074.987.225 1.44.45a2.7 2.7 0 0 1 1.37 1.48 4.59 4.59 0 0 1-.07 3 3.73 3.73 0 0 1-.81 1.13l-.43.45.56.41a3.47 3.47 0 0 1 1.24 1.65c.125.429.19.873.19 1.32a1.26 1.26 0 0 1-.25.77.63.63 0 0 1-.71.15zm-3.3-9.46c-.19 0-.29.07-.32.21v1.24c.087 1.087.13 1.753.13 2 0 .27 0 .44.11.49.174.057.358.078.54.06a1.71 1.71 0 0 0 .91-.15 2.29 2.29 0 0 0 .74-.6 2.62 2.62 0 0 0 .29-1.67c-.033-.84-.543-1.36-1.53-1.56-.287-.013-.577-.02-.87-.02zM312.61 69a2.8 2.8 0 0 1 1.48-.36c.22-.013.44-.013.66 0 .9.127 1.427.383 1.58.77.056.158.086.323.09.49a2 2 0 0 1-.62 1.33 3.09 3.09 0 0 1-2.65 1 2.06 2.06 0 0 0-.73 0c-.07 0-.09.16-.06.36a.9.9 0 0 0 .47.75 4.11 4.11 0 0 0 1.54.28c1 .073 1.5.21 1.5.41 0 .2-.13.393-.39.58a1.49 1.49 0 0 1-.6.39 1.91 1.91 0 0 1-.34 0h-.75c-1.86-.087-2.79-.957-2.79-2.61a3.83 3.83 0 0 1 0-.56 4.81 4.81 0 0 1 .56-1.69 3 3 0 0 1 1.05-1.14zm2.33 1.22c0-.213-.213-.32-.64-.32a1.73 1.73 0 0 0-1.07.32 1.43 1.43 0 0 0-.41.45.29.29 0 0 0-.06.17.2.2 0 0 0 .06.15.57.57 0 0 0 .41.11 2.35 2.35 0 0 0 1.09-.32c.42-.25.62-.44.62-.6v.04zM321.9 66.52a2 2 0 0 0-1.11.24 1.5 1.5 0 0 0-.49.9 2.77 2.77 0 0 0-.13 1.13c.053.127.303.19.75.19s.78.12 1 .36a.56.56 0 0 1-.11.73 1.45 1.45 0 0 1-1 .3h-.66v1.9a4.67 4.67 0 0 1-.27 2.2.5.5 0 0 1-.36.17.52.52 0 0 1-.23-.06.8.8 0 0 1-.42-.6 9.91 9.91 0 0 1-.11-1.86v-1.48a.62.62 0 0 0-.3-.45.55.55 0 0 1-.34-.43.64.64 0 0 1 .3-.47c.213-.127.397-.597.55-1.41a5 5 0 0 1 .4-1.46 1.92 1.92 0 0 1 .76-.79 2.37 2.37 0 0 1 1.22-.32h.06a2.44 2.44 0 0 1 1.18.26c.26.13.39.29.39.47a.53.53 0 0 1 0 .19c-.2.2-.52.29-1.08.29zM324.53 66.16a.48.48 0 0 1 .41-.3.66.66 0 0 1 .49.28c.262 1.194.35 2.42.26 3.64 0 1.253.03 2.147.09 2.68.001.385.066.766.19 1.13.133.232.346.406.6.49a.67.67 0 0 1 .43.51.68.68 0 0 1 0 .15.67.67 0 0 1-.24.51.73.73 0 0 1-.56.26 1.48 1.48 0 0 1-.73-.24 2.59 2.59 0 0 1-1.13-1.5 11.43 11.43 0 0 1-.13-2.29v-1.6a16.65 16.65 0 0 1 .32-3.72zM329.2 69a2.8 2.8 0 0 1 1.48-.36c.22-.013.44-.013.66 0 .9.127 1.427.383 1.58.77.056.158.086.323.09.49a2 2 0 0 1-.62 1.33 3.09 3.09 0 0 1-2.65 1 2.06 2.06 0 0 0-.73 0c-.07 0-.09.16-.06.36a.9.9 0 0 0 .47.75 4.11 4.11 0 0 0 1.54.28c1 .073 1.5.21 1.5.41 0 .2-.13.393-.39.58a1.49 1.49 0 0 1-.6.39 1.91 1.91 0 0 1-.34 0h-.75c-1.853-.127-2.78-1.02-2.78-2.68a3.83 3.83 0 0 1 0-.56 4.81 4.81 0 0 1 .56-1.69A3 3 0 0 1 329.2 69zm2.33 1.22c0-.213-.213-.32-.64-.32a1.73 1.73 0 0 0-1.07.32 1.43 1.43 0 0 0-.41.45.29.29 0 0 0-.06.17.2.2 0 0 0 .06.15.57.57 0 0 0 .41.11 2.35 2.35 0 0 0 1.09-.32c.41-.25.62-.44.62-.6v.04zM337.18 70.57c-.39-.03-.777.1-1.07.36a2.92 2.92 0 0 0-.62 1.37 1.73 1.73 0 0 0 .06 1.33 1.91 1.91 0 0 0 1 .66 1.6 1.6 0 0 0 1.16 0c.6-.273 1.037-.273 1.31 0 .273.273.273.487 0 .64a2.44 2.44 0 0 1-.81.71 1.91 1.91 0 0 1-.92.36 4.19 4.19 0 0 1-1.37-.36 2.64 2.64 0 0 1-2-2.57 4.52 4.52 0 0 1 .21-1.31c.387-1.333.95-2.127 1.69-2.38a3.13 3.13 0 0 1 1-.13h.6a3.87 3.87 0 0 1 1.48.32c.224.136.391.35.47.6.006.08.006.16 0 .24a.75.75 0 0 1-.13.43c-.12.13-.21.19-.28.19a1.39 1.39 0 0 1-.49-.19 3.09 3.09 0 0 0-1.29-.27zM342 67.21a.58.58 0 0 1 .32-.15c.473 0 .58 1.043.32 3.13h1.29l.66.06c.185.006.367.043.54.11.14 0 .22.11.24.19a.4.4 0 0 1 .11.26.42.42 0 0 1-.24.34 3.26 3.26 0 0 1-1.31.34l-1.13.11a6.82 6.82 0 0 0 .51 1.93.77.77 0 0 0 .34.41c.268.042.542.042.81 0a4.05 4.05 0 0 1 .58 0 .42.42 0 0 1 .28.06.32.32 0 0 1 .11.21.83.83 0 0 1-.34.73 1.8 1.8 0 0 1-.9.51c-.15.014-.3.014-.45 0a1.68 1.68 0 0 1-1.18-.45 3.91 3.91 0 0 1-1-2 9.38 9.38 0 0 1-.26-2.31v-1.18c.133-1.293.367-2.06.7-2.3zM347.64 75.13c-.32 0-.53-.18-.61-.56a15.5 15.5 0 0 1-.15-2.5v-.41a6.71 6.71 0 0 1 .21-2.4.66.66 0 0 1 .51-.28h.06a.42.42 0 0 1 .38.39c.122.928.186 1.864.19 2.8v1.48a6.91 6.91 0 0 1 0 .94.57.57 0 0 1-.59.54zM351.42 71.3c.162.486.349.963.56 1.43a15.3 15.3 0 0 1 1.43-3.19 2.22 2.22 0 0 1 .45-.6.58.58 0 0 1 .34-.11h.15a1 1 0 0 1 .39.13.33.33 0 0 1 .13.3v.06a2 2 0 0 1-.15.66c-.1.26-.25.61-.45 1-.667 1.473-1.06 2.373-1.18 2.7a2.8 2.8 0 0 1-.81 1.28.43.43 0 0 1-.24.09.74.74 0 0 1-.56-.36 7 7 0 0 1-.94-1.88 27.55 27.55 0 0 1-.92-2.68 3.38 3.38 0 0 1-.09-.68.67.67 0 0 1 .11-.43c.16-.16.3-.21.43-.17.303.331.556.705.75 1.11.263.416.465.867.6 1.34zM357.56 69a2.8 2.8 0 0 1 1.44-.4c.22-.013.44-.013.66 0 .9.127 1.427.383 1.58.77.056.158.086.323.09.49a2 2 0 0 1-.62 1.33 3.09 3.09 0 0 1-2.65 1 2.06 2.06 0 0 0-.73 0c-.07 0-.09.16-.06.36a.9.9 0 0 0 .47.75 4.11 4.11 0 0 0 1.54.28c1 .073 1.5.21 1.5.41 0 .2-.13.393-.39.58a1.49 1.49 0 0 1-.6.39 1.91 1.91 0 0 1-.34 0h-.75c-1.8-.06-2.7-.917-2.7-2.57a3.83 3.83 0 0 1 0-.56 4.81 4.81 0 0 1 .56-1.69 3 3 0 0 1 1-1.14zm2.33 1.22c0-.213-.213-.32-.64-.32a1.73 1.73 0 0 0-1.07.32 1.43 1.43 0 0 0-.41.45.29.29 0 0 0-.06.17.2.2 0 0 0 .06.15.57.57 0 0 0 .41.11 2.35 2.35 0 0 0 1.09-.32c.41-.25.62-.44.62-.6v.04zM378 72.67a4.31 4.31 0 0 1-2.35 2.85 4.94 4.94 0 0 1-2.24.54 5.68 5.68 0 0 1-1.77-.3c-.78-.227-1.527-1.033-2.24-2.42a4.39 4.39 0 0 1-.43-1.09 6.89 6.89 0 0 1-.07-1.25 8.67 8.67 0 0 1 .17-1.93 5.07 5.07 0 0 1 .71-1.5 5.54 5.54 0 0 1 1-1.18 3.85 3.85 0 0 1 1.07-.62 5.13 5.13 0 0 1 1.63-.26h.21a5.87 5.87 0 0 1 1.5.17 3.46 3.46 0 0 1 1.58 1.11 5.27 5.27 0 0 1 1.1 1.93 8.83 8.83 0 0 1 .32 2.08v.49a5.65 5.65 0 0 1-.19 1.38zm-3.47-5.61a4.09 4.09 0 0 0-1-.15 2.83 2.83 0 0 0-1.95.75 4.28 4.28 0 0 0-1.22 3.25V71a4.2 4.2 0 0 0 .51 1.9 3.13 3.13 0 0 0 1.22 1.39c.383.2.808.302 1.24.3a3.72 3.72 0 0 0 1.13-.19 3 3 0 0 0 1.85-1.4 4.49 4.49 0 0 0 .32-1.78 2.86 2.86 0 0 1 0-.36 5.78 5.78 0 0 0-.21-1.69 3.72 3.72 0 0 0-.77-1.33 2.32 2.32 0 0 0-1.1-.78h-.02zM380.53 66.22c.158.34.23.715.21 1.09a9.4 9.4 0 0 0 .09 1.09c.06.26.14.41.26.47.254.09.52.14.79.15a4 4 0 0 1 1.95.68 3.47 3.47 0 0 1 1.17 1.38 2.6 2.6 0 0 1 .24 1.09c0 .201-.02.402-.06.6a3.34 3.34 0 0 1-.9 1.69 3.8 3.8 0 0 1-2.18.92 7 7 0 0 1-1 .09 2.1 2.1 0 0 1-1.16-.26 1 1 0 0 1-.32-.73c-.04-.373-.09-1.373-.15-3v-2c0-2.04.157-3.16.47-3.36a.78.78 0 0 1 .36-.15c.1.059.18.146.23.25zm.62 7.66h.34c.418 0 .833-.08 1.22-.24.41-.126.74-.432.9-.83a1.64 1.64 0 0 0 .09-.51 1.79 1.79 0 0 0-.11-.6 1.47 1.47 0 0 0-.62-.81 2.89 2.89 0 0 0-1.13-.34h-.34c-.26 0-.42.05-.49.15v.19c-.007.413.04 1.413.14 3v-.01zM388 70.66c0 .26.257.573.77.94a8.5 8.5 0 0 1 1.43 1.24c.203.219.375.464.51.73.063.156.093.322.09.49.006.08.006.16 0 .24-.06.94-.727 1.41-2 1.41h-.06a3.31 3.31 0 0 1-1.88-.49.88.88 0 0 1-.41-.66.7.7 0 0 1 .13-.45c.1-.14.487-.14 1.16 0a4.09 4.09 0 0 0 1.22.19c.3 0 .45-.11.45-.28a12 12 0 0 0-2.14-2 1.75 1.75 0 0 1-.6-1.67 2.12 2.12 0 0 1 1-1.61 2.4 2.4 0 0 1 1.24-.34h.09a1.39 1.39 0 0 1 1.07.45c.26.33.33.57.24.73-.09.16-.36.2-.79.13a1.61 1.61 0 0 0-1.09.15.8.8 0 0 0-.43.8zM393.62 69a2.8 2.8 0 0 1 1.48-.36c.22-.013.44-.013.66 0 .9.127 1.427.383 1.58.77.056.158.086.323.09.49a2 2 0 0 1-.62 1.33 3.09 3.09 0 0 1-2.65 1 2.06 2.06 0 0 0-.73 0c-.07 0-.09.16-.06.36a.9.9 0 0 0 .47.75 4.11 4.11 0 0 0 1.54.28c1 .073 1.5.21 1.5.41 0 .2-.13.393-.39.58a1.49 1.49 0 0 1-.6.39 1.91 1.91 0 0 1-.34 0h-.75c-1.867-.087-2.8-.957-2.8-2.61a3.83 3.83 0 0 1 0-.56 4.81 4.81 0 0 1 .56-1.69 3 3 0 0 1 1.06-1.14zm2.38 1.18c0-.213-.213-.32-.64-.32a1.73 1.73 0 0 0-1.07.32 1.43 1.43 0 0 0-.41.45.29.29 0 0 0-.06.17.2.2 0 0 0 .06.15.57.57 0 0 0 .41.11 2.35 2.35 0 0 0 1.09-.32c.37-.21.62-.4.62-.56zM404.71 69.91c0 .46-.457.54-1.37.24-.913-.3-1.533-.2-1.86.3a5.42 5.42 0 0 0-.49 3 4.87 4.87 0 0 1-.13 2 .54.54 0 0 1-.28.06 1.1 1.1 0 0 1-.34-.06c-.273-.073-.437-.187-.49-.34a22.5 22.5 0 0 1-.21-3c-.04-.927-.06-1.593-.06-2v-.36c0-.31.11-.5.24-.56a.62.62 0 0 1 .62.17c.2.173.35.21.45.11a2.56 2.56 0 0 1 .71-.41 2.23 2.23 0 0 1 1-.26c.34 0 .678.058 1 .17.807.18 1.21.493 1.21.94zM407.84 71.3c.162.486.349.963.56 1.43a15.3 15.3 0 0 1 1.43-3.19 2.22 2.22 0 0 1 .45-.6.58.58 0 0 1 .34-.11h.15a1 1 0 0 1 .39.13.33.33 0 0 1 .13.3v.06a2 2 0 0 1-.15.66c-.1.26-.25.61-.45 1-.667 1.473-1.06 2.373-1.18 2.7a2.8 2.8 0 0 1-.81 1.28.43.43 0 0 1-.24.09.74.74 0 0 1-.56-.36 7 7 0 0 1-.94-1.88 27.55 27.55 0 0 1-.92-2.68 3.38 3.38 0 0 1-.09-.68.67.67 0 0 1 .11-.43c.16-.16.3-.21.43-.17.303.331.556.705.75 1.11.263.416.465.867.6 1.34zM417 75.56a3.09 3.09 0 0 1-.94.36 4.55 4.55 0 0 1-1.26.26 2 2 0 0 1-1.52-.64 2.16 2.16 0 0 1-.6-1.56 2.82 2.82 0 0 1 .88-2 2.68 2.68 0 0 1 1.93-.92c.136.023.274.023.41 0 .07 0 .09-.09.06-.17a2.89 2.89 0 0 0-.24-.45.9.9 0 0 0-.72-.44 1.32 1.32 0 0 0-.88.43c-.44.5-.773.587-1 .26a.71.71 0 0 1 0-.62 1.8 1.8 0 0 1 .49-.77 1.44 1.44 0 0 1 .73-.41 3 3 0 0 1 .66-.06h.36c.66.026 1.27.36 1.65.9a6.48 6.48 0 0 1 .79 2.44c.099.47.156.95.17 1.43a.43.43 0 0 1 0 .13 2.25 2.25 0 0 1-.32 1 2.17 2.17 0 0 1-.65.83zm-.64-1.84a2.32 2.32 0 0 0-.17-.94c-.113-.3-.283-.45-.51-.45a1.69 1.69 0 0 0-1 .54 3 3 0 0 0-.49.56 1 1 0 0 0-.09.43v.09c0 .4.13.65.39.75a.67.67 0 0 0 .26 0c.272-.016.54-.08.79-.19a2.06 2.06 0 0 0 .66-.34.65.65 0 0 0 .18-.45h-.02zM419.84 67.21a.58.58 0 0 1 .32-.15c.473 0 .58 1.043.32 3.13h1.29l.66.06c.185.006.367.043.54.11.14 0 .22.11.24.19a.4.4 0 0 1 .11.26.42.42 0 0 1-.24.34 3.26 3.26 0 0 1-1.31.34l-1.13.11a6.82 6.82 0 0 0 .51 1.93.77.77 0 0 0 .34.41c.268.042.542.042.81 0a4.05 4.05 0 0 1 .58 0 .42.42 0 0 1 .28.06.32.32 0 0 1 .11.21.83.83 0 0 1-.34.73 1.8 1.8 0 0 1-.9.51c-.15.014-.3.014-.45 0a1.68 1.68 0 0 1-1.18-.45 3.91 3.91 0 0 1-1-2 9.38 9.38 0 0 1-.26-2.31v-1.18c.127-1.293.36-2.06.7-2.3zM425.46 75.13c-.32 0-.53-.18-.61-.56a15.5 15.5 0 0 1-.15-2.5v-.41a6.71 6.71 0 0 1 .21-2.4.66.66 0 0 1 .51-.28h.06a.42.42 0 0 1 .38.39c.122.928.186 1.864.19 2.8v1.48a6.91 6.91 0 0 1 0 .94.57.57 0 0 1-.59.54zM429.33 68.79a2.13 2.13 0 0 1 .77-.43h.3a4.89 4.89 0 0 1 .58 0 2.89 2.89 0 0 1 2.12 1.26 3.37 3.37 0 0 1 .54 1.93c.006.12.006.24 0 .36a3.46 3.46 0 0 1-.86 2.18 3 3 0 0 1-1.48.81 4.19 4.19 0 0 1-.94.11c-.28 0-.56-.037-.83-.11a2.65 2.65 0 0 1-1.82-1.5 3.62 3.62 0 0 1-.28-1.28 3.66 3.66 0 0 1 .21-1.2 4 4 0 0 1 1.69-2.13zm1 4.75a2.11 2.11 0 0 0 1.22-.3c.31-.224.52-.562.58-.94a2.6 2.6 0 0 0 .09-.66 2.87 2.87 0 0 0-.09-.68 1.65 1.65 0 0 0-.6-1 1.37 1.37 0 0 0-.81-.28h-.21a1.34 1.34 0 0 0-.92.56 3.07 3.07 0 0 0-.73 1.82 3.38 3.38 0 0 0 0 .39c.033.33.186.636.43.86.313.186.677.27 1.04.24v-.01zM440.37 75.47a.72.72 0 0 1-.6-.21 16.76 16.76 0 0 1-.47-2.4 9.14 9.14 0 0 0-.51-2.4c-.4-.6-.95-.6-1.65 0s-1.007 1.74-.92 3.42c0 .953-.093 1.467-.28 1.54-.287.1-.5-.013-.64-.34a5 5 0 0 1-.3-1.68v-.58c0-2 .667-3.283 2-3.85a3 3 0 0 1 1.22-.3c.407 0 .8.146 1.11.41.388.317.685.73.86 1.2.261.76.432 1.55.51 2.35.104.679.168 1.363.19 2.05v.24c-.05.37-.22.55-.52.55zM341.22 162.3a.73.73 0 0 1 .34-.11h.06c.192.089.36.223.49.39a4.18 4.18 0 0 1 .77 1.82c.313 1.04.647 2.083 1 3.13a29.13 29.13 0 0 1 1.35 4 2.9 2.9 0 0 1 .06.56c0 .36-.13.567-.39.62a.54.54 0 0 1-.6-.24 6.57 6.57 0 0 1-.56-1.37 104.55 104.55 0 0 0-.41-1.31 49.52 49.52 0 0 1-3.87-.41l-.71 1.5a8.29 8.29 0 0 1-.9 1.63.75.75 0 0 1-.56.39h-.13a.45.45 0 0 1-.24-.43v-.13c.1-.447.238-.885.41-1.31l.62-1.52a116.902 116.902 0 0 1 1.84-4.5c.327-.773.613-1.4.86-1.88s.437-.757.57-.83zm.49 2.57c0-.18 0-.28-.09-.28s-.24.22-.45.66a6.69 6.69 0 0 0-.3.64 9.34 9.34 0 0 0-.66 1.88c0 .12.21.19.56.24a13.27 13.27 0 0 0 1.67.11h.28l-.34-1c-.2-.567-.363-1.053-.49-1.46a3.89 3.89 0 0 1-.18-.79zM347.72 163.63c.158.34.23.715.21 1.09a9.4 9.4 0 0 0 .09 1.09c.06.26.14.41.26.47.254.09.52.14.79.15a4 4 0 0 1 1.95.68 3.47 3.47 0 0 1 1.18 1.37 2.6 2.6 0 0 1 .24 1.09c0 .201-.02.402-.06.6a3.34 3.34 0 0 1-.9 1.69 3.8 3.8 0 0 1-2.18.92 7 7 0 0 1-1 .09 2.1 2.1 0 0 1-1.16-.26 1 1 0 0 1-.32-.73c-.04-.373-.09-1.373-.15-3v-2c0-2.04.157-3.16.47-3.36a.78.78 0 0 1 .36-.15.59.59 0 0 1 .22.26zm.62 7.66h.34c.418 0 .833-.08 1.22-.24.41-.126.74-.432.9-.83a1.64 1.64 0 0 0 .09-.51 1.79 1.79 0 0 0-.11-.6 1.47 1.47 0 0 0-.62-.81 2.89 2.89 0 0 0-1.16-.3h-.34c-.26 0-.42.05-.49.15v.19c.013.38.07 1.363.17 2.95zM355.19 168.06c0 .26.257.573.77.94a8.5 8.5 0 0 1 1.43 1.24c.203.219.375.464.51.73.063.156.093.322.09.49.006.08.006.16 0 .24-.06.94-.727 1.41-2 1.41h-.06a3.31 3.31 0 0 1-1.88-.49.88.88 0 0 1-.41-.66.7.7 0 0 1 .13-.45c.1-.14.487-.14 1.16 0a4.09 4.09 0 0 0 1.22.19c.3 0 .45-.11.45-.28a12 12 0 0 0-2.14-2 1.75 1.75 0 0 1-.6-1.67 2.12 2.12 0 0 1 1-1.61 2.4 2.4 0 0 1 1.24-.34h.11a1.39 1.39 0 0 1 1.07.45c.26.33.33.57.24.73-.09.16-.36.2-.79.13a1.61 1.61 0 0 0-1.09.15.8.8 0 0 0-.45.8zM360.16 164.61a.58.58 0 0 1 .32-.15c.473 0 .58 1.043.32 3.13h1.29l.66.06c.185.006.367.043.54.11.14 0 .22.11.24.19a.4.4 0 0 1 .11.26.42.42 0 0 1-.24.34 3.26 3.26 0 0 1-1.31.34l-1.13.11a6.82 6.82 0 0 0 .51 1.93.77.77 0 0 0 .34.41c.268.042.542.042.81 0a4.05 4.05 0 0 1 .58 0 .42.42 0 0 1 .28.06.32.32 0 0 1 .11.21.83.83 0 0 1-.34.73 1.8 1.8 0 0 1-.9.51c-.15.014-.3.014-.45 0a1.68 1.68 0 0 1-1.18-.45 3.91 3.91 0 0 1-1-2 9.38 9.38 0 0 1-.26-2.31v-1.18c.12-1.273.353-2.04.7-2.3zM370.26 167.31c0 .46-.457.54-1.37.24-.913-.3-1.533-.2-1.86.3a5.42 5.42 0 0 0-.49 3 4.87 4.87 0 0 1-.13 2 .54.54 0 0 1-.28.06 1.1 1.1 0 0 1-.34-.06c-.273-.073-.437-.187-.49-.34a22.5 22.5 0 0 1-.21-3c-.04-.927-.06-1.593-.06-2V167c0-.31.11-.5.24-.56a.62.62 0 0 1 .62.17c.2.173.35.21.45.11a2.56 2.56 0 0 1 .71-.41 2.23 2.23 0 0 1 1-.26c.34 0 .678.058 1 .17.807.28 1.21.643 1.21 1.09zM375.93 173a3.09 3.09 0 0 1-.94.36 4.55 4.55 0 0 1-1.26.26 2 2 0 0 1-1.52-.64 2.16 2.16 0 0 1-.6-1.56 2.82 2.82 0 0 1 .88-2 2.68 2.68 0 0 1 1.93-.92c.136.023.274.023.41 0 .07 0 .09-.09.06-.17a2.89 2.89 0 0 0-.24-.45.9.9 0 0 0-.77-.39 1.32 1.32 0 0 0-.88.43c-.44.5-.773.587-1 .26a.71.71 0 0 1 0-.62 1.8 1.8 0 0 1 .49-.77 1.44 1.44 0 0 1 .73-.41 3 3 0 0 1 .66-.06h.36c.66.026 1.27.36 1.65.9a6.48 6.48 0 0 1 .79 2.44c.099.47.156.95.17 1.43a.43.43 0 0 1 0 .13 2.25 2.25 0 0 1-.32 1 2.17 2.17 0 0 1-.6.78zm-.64-1.84a2.32 2.32 0 0 0-.17-.94c-.113-.3-.283-.45-.51-.45a1.69 1.69 0 0 0-1 .54 3 3 0 0 0-.49.56 1 1 0 0 0-.09.43v.09c0 .4.13.65.39.75a.67.67 0 0 0 .26 0c.272-.016.54-.08.79-.19a2.06 2.06 0 0 0 .66-.34.65.65 0 0 0 .16-.49v.04zM380.69 168c-.39-.03-.777.1-1.07.36a2.92 2.92 0 0 0-.62 1.37 1.73 1.73 0 0 0 .06 1.33 1.91 1.91 0 0 0 1 .66 1.6 1.6 0 0 0 1.16 0c.6-.273 1.037-.273 1.31 0 .273.273.273.487 0 .64a2.44 2.44 0 0 1-.81.71 1.91 1.91 0 0 1-.92.36 4.19 4.19 0 0 1-1.37-.36 2.64 2.64 0 0 1-2-2.57 4.52 4.52 0 0 1 .21-1.31c.387-1.333.95-2.127 1.69-2.38a3.13 3.13 0 0 1 1-.13h.6a3.87 3.87 0 0 1 1.48.32c.224.136.391.35.47.6.006.08.006.16 0 .24a.75.75 0 0 1-.13.43c-.12.13-.21.19-.28.19a1.39 1.39 0 0 1-.49-.19 3.09 3.09 0 0 0-1.29-.27zM385.52 164.61a.58.58 0 0 1 .32-.15c.473 0 .58 1.043.32 3.13h1.29l.66.06c.185.006.367.043.54.11.14 0 .22.11.24.19a.4.4 0 0 1 .11.26.42.42 0 0 1-.24.34 3.26 3.26 0 0 1-1.31.34l-1.13.11a6.82 6.82 0 0 0 .51 1.93.77.77 0 0 0 .34.41c.268.042.542.042.81 0a4.05 4.05 0 0 1 .58 0 .42.42 0 0 1 .28.06.32.32 0 0 1 .11.21.83.83 0 0 1-.34.73 1.8 1.8 0 0 1-.9.51c-.15.014-.3.014-.45 0a1.68 1.68 0 0 1-1.18-.45 3.91 3.91 0 0 1-1-2 9.38 9.38 0 0 1-.26-2.31v-1.18c.12-1.273.353-2.04.7-2.3zM398.73 162.66a4.22 4.22 0 0 1 1.46-.26h.41a3.72 3.72 0 0 1 1.67.58c.487.313.657.647.51 1-.06.16-.14.24-.24.26a3.37 3.37 0 0 1-.81-.24 4.93 4.93 0 0 0-1.52-.26 2.24 2.24 0 0 0-2 1.16 4.66 4.66 0 0 0-.54 3 8.16 8.16 0 0 0 .32 1.93c.134.41.36.782.66 1.09.35.366.81.605 1.31.68a1.3 1.3 0 0 0 .75 0c.29-.149.561-.33.81-.54.667-.513 1.13-.663 1.39-.45a.35.35 0 0 1 .13.28 2 2 0 0 1-.45.9 2.88 2.88 0 0 1-2.29 1.28 3.61 3.61 0 0 1-2.53-1.2 4.34 4.34 0 0 1-1.09-1.8 9.67 9.67 0 0 1-.34-2.7v-.43a6.47 6.47 0 0 1 .06-1 4.74 4.74 0 0 1 .39-1.09 5.91 5.91 0 0 1 .83-1.31 3.63 3.63 0 0 1 1.11-.88zM406 166.19a2.13 2.13 0 0 1 .77-.43h.3a4.89 4.89 0 0 1 .58 0 2.89 2.89 0 0 1 2.12 1.26 3.37 3.37 0 0 1 .54 1.93c.006.12.006.24 0 .36a3.46 3.46 0 0 1-.86 2.18 3 3 0 0 1-1.48.81 4.19 4.19 0 0 1-.94.11c-.28 0-.56-.037-.83-.11a2.65 2.65 0 0 1-1.82-1.5 3.62 3.62 0 0 1-.28-1.28 3.66 3.66 0 0 1 .21-1.2 4 4 0 0 1 1.69-2.13zm1 4.75a2.11 2.11 0 0 0 1.22-.3c.31-.224.52-.562.58-.94a2.6 2.6 0 0 0 .09-.66 2.87 2.87 0 0 0-.09-.68 1.65 1.65 0 0 0-.6-1 1.37 1.37 0 0 0-.81-.28h-.21a1.34 1.34 0 0 0-.92.56 3.07 3.07 0 0 0-.73 1.82 3.38 3.38 0 0 0 0 .39c.033.33.186.636.43.86.313.186.677.27 1.04.24v-.01zM417.05 172.87a.72.72 0 0 1-.6-.21 16.76 16.76 0 0 1-.47-2.4 9.14 9.14 0 0 0-.51-2.4c-.4-.6-.95-.6-1.65 0s-1.007 1.74-.92 3.42c0 .953-.093 1.467-.28 1.54-.287.1-.5-.013-.64-.34a5 5 0 0 1-.26-1.69v-.58c0-2 .667-3.283 2-3.85a3 3 0 0 1 1.22-.3c.407 0 .8.146 1.11.41.388.317.685.73.86 1.2.261.76.432 1.55.51 2.35.104.679.168 1.363.19 2.05v.24c-.09.38-.26.56-.56.56zM421.61 168c-.39-.03-.777.1-1.07.36a2.92 2.92 0 0 0-.62 1.37A1.73 1.73 0 0 0 420 171a1.91 1.91 0 0 0 1 .66 1.6 1.6 0 0 0 1.16 0c.6-.273 1.037-.273 1.31 0 .273.273.273.487 0 .64a2.44 2.44 0 0 1-.81.71 1.91 1.91 0 0 1-.92.36 4.19 4.19 0 0 1-1.37-.36 2.64 2.64 0 0 1-2-2.57 4.52 4.52 0 0 1 .21-1.31c.387-1.333.95-2.127 1.69-2.38a3.13 3.13 0 0 1 1-.13h.6a3.87 3.87 0 0 1 1.48.32c.224.136.391.35.47.6.006.08.006.16 0 .24a.75.75 0 0 1-.13.43c-.12.13-.21.19-.28.19a1.39 1.39 0 0 1-.49-.19 3.09 3.09 0 0 0-1.31-.21zM427.11 166.37a2.8 2.8 0 0 1 1.48-.36c.22-.013.44-.013.66 0 .9.127 1.427.383 1.58.77.056.158.086.323.09.49a2 2 0 0 1-.62 1.33 3.09 3.09 0 0 1-2.65 1 2.06 2.06 0 0 0-.73 0c-.07 0-.09.16-.06.36a.9.9 0 0 0 .47.75 4.11 4.11 0 0 0 1.54.28c1 .073 1.5.21 1.5.41 0 .2-.13.393-.39.58a1.49 1.49 0 0 1-.6.39 1.91 1.91 0 0 1-.34 0h-.75c-1.853-.127-2.78-1.02-2.78-2.68a3.83 3.83 0 0 1 0-.56 4.81 4.81 0 0 1 .56-1.69 3 3 0 0 1 1.04-1.07zm2.33 1.22c0-.213-.213-.32-.64-.32a1.73 1.73 0 0 0-1.07.32 1.43 1.43 0 0 0-.41.45.29.29 0 0 0-.06.17.2.2 0 0 0 .06.15.57.57 0 0 0 .41.11 2.35 2.35 0 0 0 1.09-.32c.42-.22.62-.41.62-.56zM434.21 172.87c-.21 0-.34.06-.38.17a4.6 4.6 0 0 0-.06 1 7.82 7.82 0 0 1 0 1 .54.54 0 0 1-.28.39.51.51 0 0 1-.62-.11 1.61 1.61 0 0 1-.24-.88v-3a30.72 30.72 0 0 1 .13-3.66 1.87 1.87 0 0 1 .79-1.22 1.82 1.82 0 0 1 1-.24h.34a3.25 3.25 0 0 1 1.52.47 2.56 2.56 0 0 1 1 1.52c.04.204.06.412.06.62a2.7 2.7 0 0 1-.3 1.22 6.7 6.7 0 0 1-1.42 1.88 2.46 2.46 0 0 1-1.54.84zm1.54-4.88a1.54 1.54 0 0 0-.6-.32 1.16 1.16 0 0 0-.75 0 .61.61 0 0 0-.47.45 10.85 10.85 0 0 0-.15 1.95 7 7 0 0 0 0 .79 2.21 2.21 0 0 0 .06.83 1.52 1.52 0 0 0 .79-.41 5 5 0 0 0 .92-1 2.54 2.54 0 0 0 .64-1.46 1 1 0 0 0-.43-.82l-.01-.01zM439.44 164.61a.58.58 0 0 1 .32-.15c.473 0 .58 1.043.32 3.13h1.29l.66.06c.185.006.367.043.54.11.14 0 .22.11.24.19a.4.4 0 0 1 .11.26.42.42 0 0 1-.24.34 3.26 3.26 0 0 1-1.31.34l-1.13.11a6.82 6.82 0 0 0 .51 1.93.77.77 0 0 0 .34.41c.268.042.542.042.81 0a4.05 4.05 0 0 1 .58 0 .42.42 0 0 1 .28.06.32.32 0 0 1 .11.21.83.83 0 0 1-.34.73 1.8 1.8 0 0 1-.9.51c-.15.014-.3.014-.45 0a1.68 1.68 0 0 1-1.18-.45 3.91 3.91 0 0 1-1-2 9.38 9.38 0 0 1-.26-2.31v-1.18c.127-1.273.36-2.04.7-2.3zM444.32 168.7a12.39 12.39 0 0 1 .09-1.78c.073-.327.193-.527.36-.6a.47.47 0 0 1 .34 0 .65.65 0 0 1 .21.34 3 3 0 0 1 .17.71c0 .3.03.687.09 1.16.113 2.367.49 3.55 1.13 3.55a1 1 0 0 0 .51-.17 2.5 2.5 0 0 0 .79-.83c.163-.26.26-.555.28-.86v-1.86a7 7 0 0 1 .11-2.33.52.52 0 0 1 .34-.15.81.81 0 0 1 .56.34 4.31 4.31 0 0 1 .43 2.27v.73a5.63 5.63 0 0 1-.26 2 3.81 3.81 0 0 1-1.43 1.86 2.41 2.41 0 0 1-1.31.41 1.93 1.93 0 0 1-.62-.11 2.24 2.24 0 0 1-1.39-1.41 9.4 9.4 0 0 1-.4-3.27zM455.39 173a3.09 3.09 0 0 1-.94.36 4.55 4.55 0 0 1-1.26.26 2 2 0 0 1-1.52-.64 2.16 2.16 0 0 1-.6-1.56 2.82 2.82 0 0 1 .88-2 2.68 2.68 0 0 1 1.93-.92c.136.023.274.023.41 0 .07 0 .09-.09.06-.17a2.89 2.89 0 0 0-.24-.45.9.9 0 0 0-.77-.39 1.32 1.32 0 0 0-.88.43c-.44.5-.773.587-1 .26a.71.71 0 0 1 0-.62 1.8 1.8 0 0 1 .49-.77 1.44 1.44 0 0 1 .73-.41 3 3 0 0 1 .66-.06h.36c.66.026 1.27.36 1.65.9a6.48 6.48 0 0 1 .79 2.44c.099.47.156.95.17 1.43a.43.43 0 0 1 0 .13 2.25 2.25 0 0 1-.32 1 2.17 2.17 0 0 1-.6.78zm-.64-1.84a2.32 2.32 0 0 0-.17-.94c-.113-.3-.283-.45-.51-.45a1.69 1.69 0 0 0-1 .54 3 3 0 0 0-.49.56 1 1 0 0 0-.09.43v.09c0 .4.13.65.39.75a.67.67 0 0 0 .26 0c.272-.016.54-.08.79-.19a2.06 2.06 0 0 0 .66-.34.65.65 0 0 0 .15-.49l.01.04zM457.87 163.56a.48.48 0 0 1 .41-.3.66.66 0 0 1 .49.28c.262 1.194.35 2.42.26 3.64 0 1.253.03 2.147.09 2.68.001.385.066.766.19 1.13.133.232.346.406.6.49a.67.67 0 0 1 .43.51.68.68 0 0 1 0 .15.67.67 0 0 1-.24.51.73.73 0 0 1-.56.26 1.48 1.48 0 0 1-.73-.24 2.59 2.59 0 0 1-1.13-1.5 11.43 11.43 0 0 1-.13-2.29v-1.61a16.65 16.65 0 0 1 .32-3.71zM462.42 172.53c-.32 0-.53-.18-.61-.56a15.5 15.5 0 0 1-.15-2.5v-.41a6.71 6.71 0 0 1 .21-2.4.66.66 0 0 1 .51-.28h.06a.42.42 0 0 1 .38.39c.122.928.186 1.864.19 2.8v1.48a6.91 6.91 0 0 1 0 .94.57.57 0 0 1-.59.54zM465.72 168.06c0 .26.257.573.77.94a8.5 8.5 0 0 1 1.43 1.24c.203.219.375.464.51.73.063.156.093.322.09.49.006.08.006.16 0 .24-.06.94-.727 1.41-2 1.41h-.06a3.31 3.31 0 0 1-1.88-.49.88.88 0 0 1-.41-.66.7.7 0 0 1 .13-.45c.1-.14.487-.14 1.16 0a4.09 4.09 0 0 0 1.22.19c.3 0 .45-.11.45-.28a12 12 0 0 0-2.14-2 1.75 1.75 0 0 1-.6-1.67 2.12 2.12 0 0 1 1-1.61 2.4 2.4 0 0 1 1.24-.34h.11a1.39 1.39 0 0 1 1.07.45c.26.33.33.57.24.73-.09.16-.36.2-.79.13a1.61 1.61 0 0 0-1.09.15.8.8 0 0 0-.45.8zM474.39 173a3.09 3.09 0 0 1-.94.36 4.55 4.55 0 0 1-1.26.26 2 2 0 0 1-1.52-.64 2.16 2.16 0 0 1-.6-1.56 2.82 2.82 0 0 1 .88-2 2.68 2.68 0 0 1 1.93-.92c.136.023.274.023.41 0 .07 0 .09-.09.06-.17a2.89 2.89 0 0 0-.24-.45.9.9 0 0 0-.77-.39 1.32 1.32 0 0 0-.88.43c-.44.5-.773.587-1 .26a.71.71 0 0 1 0-.62 1.8 1.8 0 0 1 .49-.77 1.44 1.44 0 0 1 .73-.41 3 3 0 0 1 .66-.06h.36c.66.026 1.27.36 1.65.9a6.48 6.48 0 0 1 .79 2.44c.099.47.156.95.17 1.43a.43.43 0 0 1 0 .13 2.25 2.25 0 0 1-.32 1 2.17 2.17 0 0 1-.6.78zm-.64-1.84a2.32 2.32 0 0 0-.17-.94c-.113-.3-.283-.45-.51-.45a1.69 1.69 0 0 0-1 .54 3 3 0 0 0-.49.56 1 1 0 0 0-.09.43v.09c0 .4.13.65.39.75a.67.67 0 0 0 .26 0c.272-.016.54-.08.79-.19a2.06 2.06 0 0 0 .66-.34.65.65 0 0 0 .16-.49v.04zM477.22 164.61a.58.58 0 0 1 .32-.15c.473 0 .58 1.043.32 3.13h1.29l.66.06c.185.006.367.043.54.11.14 0 .22.11.24.19a.4.4 0 0 1 .11.26.42.42 0 0 1-.24.34 3.26 3.26 0 0 1-1.31.34l-1.13.11a6.82 6.82 0 0 0 .51 1.93.77.77 0 0 0 .34.41c.268.042.542.042.81 0a4.05 4.05 0 0 1 .58 0 .42.42 0 0 1 .28.06.32.32 0 0 1 .11.21.83.83 0 0 1-.34.73 1.8 1.8 0 0 1-.9.51c-.15.014-.3.014-.45 0a1.68 1.68 0 0 1-1.18-.45 3.91 3.91 0 0 1-1-2 9.38 9.38 0 0 1-.26-2.31v-1.18c.12-1.273.353-2.04.7-2.3zM482.84 172.53c-.32 0-.53-.18-.61-.56a15.5 15.5 0 0 1-.15-2.5v-.41a6.71 6.71 0 0 1 .21-2.4.66.66 0 0 1 .51-.28h.06a.42.42 0 0 1 .38.39c.122.928.186 1.864.19 2.8v1.48a6.91 6.91 0 0 1 0 .94.57.57 0 0 1-.59.54zM486.7 166.19a2.13 2.13 0 0 1 .77-.43h.3a4.89 4.89 0 0 1 .58 0 2.89 2.89 0 0 1 2.12 1.26A3.37 3.37 0 0 1 491 169c.006.12.006.24 0 .36a3.46 3.46 0 0 1-.86 2.18 3 3 0 0 1-1.48.81 4.19 4.19 0 0 1-.94.11c-.28 0-.56-.037-.83-.11a2.65 2.65 0 0 1-1.82-1.5 3.62 3.62 0 0 1-.28-1.28 3.66 3.66 0 0 1 .21-1.2 4 4 0 0 1 1.7-2.18zm1 4.75a2.11 2.11 0 0 0 1.22-.3c.31-.224.52-.562.58-.94a2.6 2.6 0 0 0 .09-.66 2.87 2.87 0 0 0-.09-.68 1.65 1.65 0 0 0-.6-1 1.37 1.37 0 0 0-.81-.28h-.21a1.34 1.34 0 0 0-.92.56 3.07 3.07 0 0 0-.73 1.82 3.38 3.38 0 0 0 0 .39c.033.33.186.636.43.86a1.75 1.75 0 0 0 1.05.24l-.01-.01zM497.75 172.87a.72.72 0 0 1-.6-.21 16.76 16.76 0 0 1-.47-2.4 9.14 9.14 0 0 0-.51-2.4c-.4-.6-.95-.6-1.65 0s-1.007 1.74-.92 3.42c0 .953-.093 1.467-.28 1.54-.287.1-.5-.013-.64-.34a5 5 0 0 1-.26-1.69v-.58c0-2 .667-3.283 2-3.85a3 3 0 0 1 1.22-.3c.407 0 .8.146 1.11.41.388.317.685.73.86 1.2.261.76.432 1.55.51 2.35.104.679.168 1.363.19 2.05v.24c-.09.38-.31.56-.56.56zM30.86 235.52a.74.74 0 0 1 .34-.11h.06c.192.089.36.223.49.39a4.18 4.18 0 0 1 .77 1.82c.313 1.047.647 2.09 1 3.13a29.19 29.19 0 0 1 1.35 4c.038.184.058.372.06.56 0 .36-.13.56-.39.62a.54.54 0 0 1-.6-.24 6.53 6.53 0 0 1-.56-1.37L33 243a49.52 49.52 0 0 1-3.87-.41l-.71 1.5a8.24 8.24 0 0 1-.9 1.63.75.75 0 0 1-.56.39h-.13a.45.45 0 0 1-.24-.43v-.13c.1-.447.238-.885.41-1.31l.62-1.52c.31-.81.61-1.57.9-2.27.29-.7.6-1.46.94-2.23.34-.77.61-1.4.86-1.88s.45-.79.54-.82zm.49 2.57c0-.18 0-.28-.09-.28s-.24.22-.45.66a7 7 0 0 0-.3.64 9.34 9.34 0 0 0-.66 1.88c0 .12.21.19.56.24a13.27 13.27 0 0 0 1.67.11h.28l-.34-1c-.2-.567-.363-1.053-.49-1.46a3.86 3.86 0 0 1-.18-.79zM38.91 241.19a1.46 1.46 0 0 0-1.07.36 2.92 2.92 0 0 0-.62 1.37 1.73 1.73 0 0 0 .06 1.33 1.9 1.9 0 0 0 1 .66 1.58 1.58 0 0 0 1.16 0c.6-.273 1.037-.273 1.31 0 .273.273.273.487 0 .64a2.41 2.41 0 0 1-.81.71 1.91 1.91 0 0 1-.92.36 4.19 4.19 0 0 1-1.37-.36 2.64 2.64 0 0 1-2-2.57 4.52 4.52 0 0 1 .21-1.31 3.27 3.27 0 0 1 1.72-2.38 3.13 3.13 0 0 1 1-.13h.6a3.92 3.92 0 0 1 1.48.32c.224.136.391.35.47.6.006.08.006.16 0 .24a.75.75 0 0 1-.13.43c-.12.13-.21.19-.28.19a1.39 1.39 0 0 1-.49-.19 3.09 3.09 0 0 0-1.32-.27zM43.74 237.83a.58.58 0 0 1 .32-.15c.473 0 .58 1.043.32 3.13h1.29l.66.06c.185.007.367.044.54.11.14 0 .22.11.24.19a.4.4 0 0 1 .11.26.42.42 0 0 1-.24.34 3.23 3.23 0 0 1-1.31.34l-1.13.11a6.8 6.8 0 0 0 .51 1.93.77.77 0 0 0 .34.41c.268.042.542.042.81 0a4.05 4.05 0 0 1 .58 0 .42.42 0 0 1 .28.06.32.32 0 0 1 .11.21.83.83 0 0 1-.34.73 1.78 1.78 0 0 1-.9.51c-.15.014-.3.014-.45 0a1.68 1.68 0 0 1-1.18-.45 3.91 3.91 0 0 1-1-2 9.36 9.36 0 0 1-.26-2.31v-1.18c.127-1.287.36-2.053.7-2.3zM49.36 245.75c-.32 0-.53-.18-.61-.56a15.48 15.48 0 0 1-.15-2.5v-.41a6.72 6.72 0 0 1 .21-2.4.66.66 0 0 1 .51-.28h.06a.42.42 0 0 1 .38.39c.122.928.186 1.864.19 2.8v1.48a6.9 6.9 0 0 1 0 .94.57.57 0 0 1-.59.54zM53.14 241.92c.162.486.349.963.56 1.43a15.33 15.33 0 0 1 1.43-3.19 2.22 2.22 0 0 1 .45-.6.58.58 0 0 1 .34-.11h.15a1 1 0 0 1 .39.13.34.34 0 0 1 .13.3v.12a2 2 0 0 1-.15.66c-.1.26-.25.61-.45 1-.667 1.473-1.06 2.373-1.18 2.7a2.78 2.78 0 0 1-.81 1.28.42.42 0 0 1-.24.09.74.74 0 0 1-.56-.36 7 7 0 0 1-.94-1.88 27.44 27.44 0 0 1-.92-2.68 3.37 3.37 0 0 1-.09-.68.67.67 0 0 1 .11-.43c.16-.16.3-.21.43-.17.303.332.555.705.75 1.11.258.397.46.828.6 1.28zM59.28 239.59a2.81 2.81 0 0 1 1.48-.36c.22-.013.44-.013.66 0 .9.127 1.427.383 1.58.77.056.158.086.323.09.49a2 2 0 0 1-.62 1.33 3.09 3.09 0 0 1-2.65 1 2.06 2.06 0 0 0-.73 0c-.07 0-.09.17-.06.36a.9.9 0 0 0 .47.75 4.08 4.08 0 0 0 1.54.28c1 .073 1.5.21 1.5.41 0 .2-.13.393-.39.58a1.49 1.49 0 0 1-.6.39 1.79 1.79 0 0 1-.34 0h-.75c-1.853-.127-2.78-1.02-2.78-2.68a3.83 3.83 0 0 1 0-.56 4.81 4.81 0 0 1 .56-1.69 3 3 0 0 1 1.04-1.07zm2.33 1.22c0-.213-.213-.32-.64-.32a1.73 1.73 0 0 0-1.07.32 1.43 1.43 0 0 0-.41.45.29.29 0 0 0-.06.17.2.2 0 0 0 .06.15.57.57 0 0 0 .41.11 2.35 2.35 0 0 0 1.09-.32c.42-.22.63-.37.63-.56h-.01zM77.69 236.06a.69.69 0 0 1-.58.68c-.867.16-1.748.23-2.63.21l-2.59.06a23.44 23.44 0 0 0 .26 3.06c0 .16.57.24 1.58.24 1.627 0 2.47.243 2.53.73a.74.74 0 0 1-.3.58 1 1 0 0 1-.54.24 9.82 9.82 0 0 1-1.52 0l-1.71-.13a13.37 13.37 0 0 0 .26 3.1 11.2 11.2 0 0 0 2.55 0c1.713-.04 2.677.09 2.89.39a.88.88 0 0 1 .19.54 1 1 0 0 1-.09.39c-.14.36-.567.53-1.28.51H73.7a3.63 3.63 0 0 1-2.11-.36c-.35-.11-.54-.49-.57-1.13a9.5 9.5 0 0 1-.09-1c-.287-4.04-.43-6.593-.43-7.66a1.77 1.77 0 0 1 0-.54.94.94 0 0 1 .49-.47 11.23 11.23 0 0 1 1.73-.06h1.48a20.86 20.86 0 0 1 3.25.17.39.39 0 0 1 .24.45zM83.79 245.84a.82.82 0 0 1-.58-.21 7.7 7.7 0 0 1-.73-1c-.527-.787-.827-1.163-.9-1.13a4.75 4.75 0 0 0-.79 1 4.5 4.5 0 0 1-.66.79.86.86 0 0 1-.56.17c-.373 0-.567-.15-.58-.45.039-.357.162-.7.36-1a5 5 0 0 1 .39-.6 9.93 9.93 0 0 0 .79-1.28 3.29 3.29 0 0 0-.54-.79 1.85 1.85 0 0 1-.49-1.09c0-.31.11-.45.39-.43.38.073.73.262 1 .54.14.14.36.35.66.62l.81-.9c.513-.553.907-.83 1.18-.83h.17c.27.17.18.66-.26 1.46l-.24.36c-.14.247-.36.603-.66 1.07l.94 1.37a4.17 4.17 0 0 1 .86 1.86.39.39 0 0 1-.32.41l-.24.06zM87.81 246.1c-.21 0-.34.06-.38.17a4.61 4.61 0 0 0-.06 1 7.82 7.82 0 0 1 0 1 .54.54 0 0 1-.28.39.51.51 0 0 1-.62-.11 1.61 1.61 0 0 1-.24-.88v-3a30.75 30.75 0 0 1 .13-3.66 1.87 1.87 0 0 1 .79-1.22 1.83 1.83 0 0 1 1-.24h.34a3.26 3.26 0 0 1 1.52.47 2.56 2.56 0 0 1 1 1.52c.04.204.06.412.06.62a2.7 2.7 0 0 1-.3 1.22 6.68 6.68 0 0 1-1.42 1.88 2.46 2.46 0 0 1-1.54.84zm1.54-4.88a1.54 1.54 0 0 0-.6-.32 1.17 1.17 0 0 0-.43-.09 1.23 1.23 0 0 0-.32 0 .61.61 0 0 0-.47.45 10.86 10.86 0 0 0-.15 1.95 7 7 0 0 0 0 .79 2.21 2.21 0 0 0 .06.83 1.51 1.51 0 0 0 .79-.41 5 5 0 0 0 .92-1 2.54 2.54 0 0 0 .64-1.46 1 1 0 0 0-.43-.74h-.01zM93.7 239.59a2.81 2.81 0 0 1 1.48-.36c.22-.013.44-.013.66 0 .9.127 1.427.383 1.58.77.056.158.086.323.09.49a2 2 0 0 1-.62 1.33 3.09 3.09 0 0 1-2.65 1 2.06 2.06 0 0 0-.73 0c-.07 0-.09.17-.06.36a.9.9 0 0 0 .47.75 4.08 4.08 0 0 0 1.54.28c1 .073 1.5.21 1.5.41 0 .2-.13.393-.39.58a1.49 1.49 0 0 1-.6.39 1.79 1.79 0 0 1-.34 0h-.75c-1.853-.127-2.78-1.02-2.78-2.68a3.83 3.83 0 0 1 0-.56 4.81 4.81 0 0 1 .56-1.69 3 3 0 0 1 1.04-1.07zm2.3 1.22c0-.213-.213-.32-.64-.32a1.73 1.73 0 0 0-1.07.32 1.43 1.43 0 0 0-.41.45.29.29 0 0 0-.06.17.2.2 0 0 0 .06.15.57.57 0 0 0 .41.11 2.35 2.35 0 0 0 1.09-.32c.45-.22.62-.37.62-.56zM104.79 240.53c0 .46-.457.54-1.37.24-.913-.3-1.533-.2-1.86.3a5.42 5.42 0 0 0-.49 3 4.86 4.86 0 0 1-.13 2 .54.54 0 0 1-.28.06 1.1 1.1 0 0 1-.34-.06c-.27-.07-.44-.18-.49-.34a22.48 22.48 0 0 1-.21-3c0-.93-.06-1.61-.06-2v-.36c0-.31.11-.5.24-.56a.63.63 0 0 1 .62.17c.2.17.35.21.45.11a2.59 2.59 0 0 1 .71-.41 2.23 2.23 0 0 1 1-.26c.34.002.678.059 1 .17.807.187 1.21.5 1.21.94zM106.87 245.75c-.32 0-.53-.18-.61-.56a15.48 15.48 0 0 1-.15-2.5v-.41a6.72 6.72 0 0 1 .21-2.4.66.66 0 0 1 .51-.28h.06a.42.42 0 0 1 .38.39c.122.928.186 1.864.19 2.8v1.48a6.9 6.9 0 0 1 0 .94.57.57 0 0 1-.59.54zM111.27 239.44c.255-.01.509.027.75.11.251.155.474.351.66.58.14.16.36.39.66.68l.28-.41a1.47 1.47 0 0 1 .77-.56 2 2 0 0 1 1-.11 2.66 2.66 0 0 1 1.16.75c.392.338.7.762.9 1.24.242.674.413 1.37.51 2.08a10 10 0 0 1 .19 1.48c.01.07.01.14 0 .21a.54.54 0 0 1-.43.36c-.587.173-.993-.377-1.22-1.65a16.9 16.9 0 0 0-.34-1.73 2.26 2.26 0 0 0-.6-.92c-.287-.287-.507-.393-.66-.32-.2.07-.36.38-.47.92a8.67 8.67 0 0 0-.19 2 4.43 4.43 0 0 1-.15 1.46.67.67 0 0 1-.66.34.61.61 0 0 1-.56-.32 3.74 3.74 0 0 1-.28-1.18 13.91 13.91 0 0 0-.51-2.12 3.81 3.81 0 0 0-.56-1.31c-.373-.3-.707-.063-1 .71a7.59 7.59 0 0 0-.45 2.38 11.88 11.88 0 0 1-.15 1.35.33.33 0 0 1-.32.26.51.51 0 0 1-.58-.32 4.13 4.13 0 0 1-.28-1.41 5.67 5.67 0 0 1 0-.68 4.39 4.39 0 0 1 1.18-3.15 2.88 2.88 0 0 1 .68-.58 1.89 1.89 0 0 1 .67-.14zM121 239.59a2.81 2.81 0 0 1 1.48-.36c.22-.013.44-.013.66 0 .9.127 1.427.383 1.58.77.056.158.086.323.09.49a2 2 0 0 1-.62 1.33 3.09 3.09 0 0 1-2.65 1 2.06 2.06 0 0 0-.73 0c-.07 0-.09.17-.06.36a.9.9 0 0 0 .47.75 4.08 4.08 0 0 0 1.54.28c1 .073 1.5.21 1.5.41 0 .2-.13.393-.39.58a1.49 1.49 0 0 1-.6.39 1.79 1.79 0 0 1-.34 0h-.75c-1.853-.127-2.78-1.02-2.78-2.68a3.83 3.83 0 0 1 0-.56 4.81 4.81 0 0 1 .56-1.69 3 3 0 0 1 1.04-1.07zm2.33 1.22c0-.213-.213-.32-.64-.32a1.73 1.73 0 0 0-1.07.32 1.43 1.43 0 0 0-.41.45.29.29 0 0 0-.06.17.2.2 0 0 0 .06.15.57.57 0 0 0 .41.11 2.35 2.35 0 0 0 1.09-.32c.41-.22.61-.37.61-.56h.01zM131.61 246.1a.72.72 0 0 1-.6-.21 16.71 16.71 0 0 1-.47-2.4 9.16 9.16 0 0 0-.51-2.4c-.4-.6-.95-.6-1.65 0s-1.007 1.74-.92 3.42c0 .96-.093 1.473-.28 1.54-.29.1-.5 0-.64-.34a5 5 0 0 1-.26-1.69v-.58c0-2 .667-3.283 2-3.85a3 3 0 0 1 1.22-.3c.407 0 .8.146 1.11.41.388.317.685.731.86 1.2.26.76.432 1.55.51 2.35.104.679.168 1.363.19 2.05v.24c-.09.37-.26.56-.56.56zM134.24 237.83a.58.58 0 0 1 .32-.15c.473 0 .58 1.043.32 3.13h1.29l.66.06c.185.007.367.044.54.11.14 0 .22.11.24.19a.4.4 0 0 1 .11.26.42.42 0 0 1-.24.34 3.23 3.23 0 0 1-1.31.34l-1.13.11a6.8 6.8 0 0 0 .51 1.93.77.77 0 0 0 .34.41c.268.042.542.042.81 0a4.05 4.05 0 0 1 .58 0 .42.42 0 0 1 .28.06.32.32 0 0 1 .11.21.83.83 0 0 1-.34.73 1.78 1.78 0 0 1-.9.51c-.15.014-.3.014-.45 0a1.68 1.68 0 0 1-1.18-.45 3.91 3.91 0 0 1-1-2 9.36 9.36 0 0 1-.26-2.31v-1.18c.127-1.287.36-2.053.7-2.3zM143.44 246.18a3.06 3.06 0 0 1-.94.36 4.55 4.55 0 0 1-1.26.26 2 2 0 0 1-1.52-.64 2.15 2.15 0 0 1-.6-1.56 2.82 2.82 0 0 1 .88-2 2.68 2.68 0 0 1 1.93-.92c.136.023.274.023.41 0 .07 0 .09-.09.06-.17a2.89 2.89 0 0 0-.24-.45.9.9 0 0 0-.77-.39 1.33 1.33 0 0 0-.88.43c-.44.5-.773.587-1 .26a.71.71 0 0 1 0-.62 1.8 1.8 0 0 1 .49-.74 1.45 1.45 0 0 1 .73-.41 3 3 0 0 1 .66-.06h.36c.66.026 1.27.36 1.65.9a6.48 6.48 0 0 1 .79 2.44c.099.47.156.95.17 1.43a.43.43 0 0 1 0 .13 2.25 2.25 0 0 1-.32 1 2.17 2.17 0 0 1-.6.75zm-.64-1.84a2.33 2.33 0 0 0-.17-.94c-.113-.3-.283-.45-.51-.45a1.69 1.69 0 0 0-1 .54 3 3 0 0 0-.49.56 1 1 0 0 0-.09.43v.09c0 .4.16.65.39.75a.67.67 0 0 0 .26 0c.272-.016.54-.08.79-.19a2 2 0 0 0 .66-.34.65.65 0 0 0 .16-.45zM146.27 237.83a.58.58 0 0 1 .32-.15c.473 0 .58 1.043.32 3.13h1.29l.66.06c.185.007.367.044.54.11.14 0 .22.11.24.19a.4.4 0 0 1 .11.26.42.42 0 0 1-.24.34 3.23 3.23 0 0 1-1.31.34l-1.13.11a6.8 6.8 0 0 0 .51 1.93.77.77 0 0 0 .34.41c.268.042.542.042.81 0a4.05 4.05 0 0 1 .58 0 .42.42 0 0 1 .28.06.32.32 0 0 1 .11.21.83.83 0 0 1-.34.73 1.78 1.78 0 0 1-.9.51c-.15.014-.3.014-.45 0a1.68 1.68 0 0 1-1.18-.45 3.91 3.91 0 0 1-1-2 9.36 9.36 0 0 1-.26-2.31v-1.18c.127-1.287.36-2.053.7-2.3zM151.89 245.75c-.32 0-.53-.18-.61-.56a15.48 15.48 0 0 1-.15-2.5v-.41a6.72 6.72 0 0 1 .21-2.4.66.66 0 0 1 .51-.28h.06a.42.42 0 0 1 .38.39c.122.928.186 1.864.19 2.8v1.48a6.9 6.9 0 0 1 0 .94.57.57 0 0 1-.59.54zM155.75 239.42a2.15 2.15 0 0 1 .77-.43h.3a5.2 5.2 0 0 1 .58 0 2.89 2.89 0 0 1 2.12 1.26 3.38 3.38 0 0 1 .54 1.93c.006.12.006.24 0 .36a3.46 3.46 0 0 1-.86 2.18 3 3 0 0 1-1.48.81 4.19 4.19 0 0 1-.94.11c-.28 0-.56-.037-.83-.11a2.65 2.65 0 0 1-1.82-1.5 3.6 3.6 0 0 1-.28-1.28 3.66 3.66 0 0 1 .21-1.2 4 4 0 0 1 1.69-2.13zm1 4.75a2.11 2.11 0 0 0 1.22-.3 1.43 1.43 0 0 0 .58-.94 2.59 2.59 0 0 0 .09-.66 2.88 2.88 0 0 0-.09-.68 1.65 1.65 0 0 0-.6-1 1.37 1.37 0 0 0-.81-.28h-.21a1.34 1.34 0 0 0-.92.56 3.07 3.07 0 0 0-.73 1.82 3.38 3.38 0 0 0 0 .39c.033.33.186.636.43.86a1.75 1.75 0 0 0 1.05.23h-.01zM166.8 246.1a.72.72 0 0 1-.6-.21 16.71 16.71 0 0 1-.47-2.4 9.16 9.16 0 0 0-.51-2.4c-.4-.6-.95-.6-1.65 0s-1.007 1.74-.92 3.42c0 .96-.093 1.473-.28 1.54-.29.1-.5 0-.64-.34a5 5 0 0 1-.26-1.69v-.58c0-2 .667-3.283 2-3.85a3 3 0 0 1 1.22-.3c.407 0 .8.146 1.11.41.388.317.685.731.86 1.2.26.76.432 1.55.51 2.35.104.679.168 1.363.19 2.05v.24c-.09.37-.26.56-.56.56zM36.74 92.48l-.62 7.41-.69-1.12a1.43 1.43 0 0 0-1.75-.59 1.41 1.41 0 0 0-.66 2l2.52 4.11 1 1.67c.29.48.14 1.17.84 1.59 1 .498 2.14.636 3.23.39a6.19 6.19 0 0 0 2.29-.75 4.75 4.75 0 0 0 2-2.78 5.56 5.56 0 0 0 .21-1.55v-6.12a1.4 1.4 0 0 0-2.54-.82 1.4 1.4 0 0 0-2.29 0c-.25-.36-.05-.59-.52-.59-.32 0-.63.11-.88.31v-3.16a1.4 1.4 0 0 0-1.4-1.4c-.73 0-.74.63-.74 1.4zm1.66 0v4.24a.26.26 0 0 0 .52 0 .88.88 0 0 1 .88-.88c.48 0 .26.39.26.88a.26.26 0 0 0 .52 0 .88.88 0 1 1 1.76 0 .26.26 0 0 0 .52 0 .88.88 0 1 1 1.76 0v6.17a5 5 0 0 1-.18 1.4 4.23 4.23 0 0 1-1.79 2.48 5.72 5.72 0 0 1-2.1.68 4.2 4.2 0 0 1-2.88-.32c-.6-.36-.4-1-.66-1.41l-1-1.67-2.52-4.12a.87.87 0 0 1-.13-.46.89.89 0 0 1 0-.27.87.87 0 0 1 .5-.54A.9.9 0 0 1 35 99l1.14 1.86a.26.26 0 0 0 .13.11.26.26 0 0 0 .36-.24l.62-8.3c0-.48-.23-.88.26-.88a.88.88 0 0 1 .89.93z"/>
        <path fill="#000" fill-rule="nonzero" d="M293.49 73.93a3 3 0 0 0 3.5-4.78 3 3 0 0 0-2.74-4.15 2.77 2.77 0 0 0-.75.1 3.47 3.47 0 0 0-3.42-1.34 2 2 0 0 0-1 .7 2.44 2.44 0 0 0-3.87 1.66c-.75-.12-.59 0-1.26.47a2.94 2.94 0 0 0-1.24 2 2.76 2.76 0 0 0 0 .43c0 .48-.83.93-.59 1.31A2.57 2.57 0 0 0 285.4 74a2.42 2.42 0 0 0 3.6 0 3.32 3.32 0 0 0 2.18.8 3.36 3.36 0 0 0 2.31-.87zm-3.83-1.53a.31.31 0 0 0-.62 0 1.81 1.81 0 0 1-3.62 0 .31.31 0 0 0-.62 0c0 .371.085.737.25 1.07a1.95 1.95 0 0 1-2.81-1.76c0-.78 1.42-1.48 2.13-1.79a.311.311 0 1 0-.25-.57 2.57 2.57 0 0 0-.66.42 1.93 1.93 0 0 1-.16-1.16 2.32 2.32 0 0 1 1-1.54c1-.69 1.58-.46 2.31.51.14.185.252.391.33.61a.31.31 0 0 0 .58-.21 2.87 2.87 0 0 0-1.72-1.73 1.9 1.9 0 0 1 1.59-1.66c.49-.06.985.08 1.37.39a2.3 2.3 0 0 0-.18.88 2.41 2.41 0 0 0 .13.79.31.31 0 0 0 .58-.2 1.72 1.72 0 0 1 .09-1.37 1.44 1.44 0 0 1 .86-.73 2.79 2.79 0 0 1 2.67 1 3 3 0 0 0-1.32 2 2.5 2.5 0 0 1-1.21 1.91.31.31 0 0 0 .28.55 3 3 0 0 0 1.06-1c.073.234.184.453.33.65a.31.31 0 1 0 .49-.37 2.35 2.35 0 0 1-.33-1.65 2.14 2.14 0 0 1 2.06-1.8 2.36 2.36 0 0 1 2.23 3.17 3 3 0 0 0-1.47-.44h.87c-.17 0-1.27.14-1.27.31 0 .171.139.31.31.31h.06c.51.017 1.002.2 1.4.52l.07.05a2.37 2.37 0 0 1-2.85 3.78H293.34l-.09.07a2.75 2.75 0 0 1-2 .88 2.71 2.71 0 0 1-1.82-.7c.177-.37.256-.78.23-1.19zM326.37 162.19a4.57 4.57 0 0 0-4.62 4.5 4.44 4.44 0 0 0 2.38 3.93v1.89a1.35 1.35 0 0 0 1.35 1.32h1c.74 0 2.1-.6 2.1-1.32v-1.89a4.47 4.47 0 0 0 2.42-3.92 4.61 4.61 0 0 0-4.63-4.51zm1.72 7.93a.37.37 0 0 0-.2.31v2.11c0 .34-1 .6-1.36.6h-1a.6.6 0 0 1-.61-.6v-2.11a.32.32 0 0 0-.2-.31 3.73 3.73 0 0 1-2.16-3.4 3.88 3.88 0 1 1 5.58 3.4h-.05zm-2.09-9v-1.25a.37.37 0 0 1 .74 0v1.25a.37.37 0 0 1-.74 0zm7.74 5.58a.37.37 0 0 1-.37.36h-1.27a.36.36 0 1 1 0-.72h1.28a.37.37 0 0 1 .36.38v-.02zm-12.73 0a.37.37 0 0 1-.37.36h-1.28a.36.36 0 1 1 0-.72h1.28a.36.36 0 0 1 .36.38l.01-.02zm.15-4.58a.34.34 0 0 1 0-.5.36.36 0 0 1 .52 0l.91.89a.34.34 0 0 1 0 .5.43.43 0 0 1-.54 0l-.89-.89zm10.42 9.15a.34.34 0 0 1 0 .5.43.43 0 0 1-.54 0l-.91-.89a.34.34 0 0 1 0-.5.36.36 0 0 1 .52 0l.93.89zm0-9.65a.34.34 0 0 1 0 .5l-.91.89a.43.43 0 0 1-.54 0 .34.34 0 0 1 0-.5l.91-.89a.39.39 0 0 1 .54.02v-.02zm-9 8.77a.34.34 0 0 1 0 .5l-.91.89a.43.43 0 0 1-.54 0 .34.34 0 0 1 0-.5l.91-.89a.39.39 0 0 1 .55.02l-.01-.02zm2.75.89h2v.72h-2v-.72zM11.79 237h5.67a.38.38 0 0 0 0-.76h-5.67a.38.38 0 0 0 0 .76zM11.79 238.86h5.67a.38.38 0 0 0 0-.76h-5.67a.38.38 0 0 0 0 .76zM11.79 240.75h2.58a.38.38 0 0 0 0-.76h-2.58a.38.38 0 0 0 0 .76zM16.63 243.89a.37.37 0 0 0 0 .53.36.36 0 0 0 .26.11.34.34 0 0 0 .26-.11.36.36 0 0 0 .11-.26.34.34 0 0 0-.11-.26.39.39 0 0 0-.52-.01z"/>
        <path fill="#000" fill-rule="nonzero" d="M11.69 246.8h6.91a1.64 1.64 0 0 0 1.64-1.64v-10.08a1.64 1.64 0 0 0-1.64-1.64h-7.69a1.64 1.64 0 0 0-1.64 1.64l.79 10.09a1.64 1.64 0 0 0 1.63 1.63zM10 235.08a.88.88 0 0 1 .88-.88h7.72a.88.88 0 0 1 .88.88v10.09a.88.88 0 0 1-.88.88h-6.91a.88.88 0 0 1-.88-.88L10 235.08z"/>
    </g>
</svg>