<svg xmlns="http://www.w3.org/2000/svg" width="415" height="406" viewBox="0 0 415 406">
    <g fill="none" fill-rule="evenodd" transform="translate(-1 -1)">
        <path fill="#F5F6FB" fill-rule="nonzero" d="M64.11 402.14c-21.86-7.86-40.58-25.59-51.83-49.76C-6.43 312.17.45 266 16.06 226c10.86-27.83 33.51-54.12 58-70.72 3.68-2.49 7.58-4.93 10-8.63 9.3-14-13.66-28.36-23.52-33.5C49.82 107.59 38 98.36 33 87.11 19.56 57 61.8 38.32 83.12 29.88 148.41 4 222.2-6.2 291.76 6.34 340.08 15 398.85 41.22 397.41 97.87c-1 40.62-34.69 61.57-58.53 89.08-10.18 11.74-19.25 31.66-9.5 46.28 12.56 18.83 43.58 11.67 61.8 21 27.69 14.1 32.39 47.75 13.2 71.07-18.95 23-47.35 38.11-73.55 51.34-17.21 8.69-41.55 12.63-60 4.27-9.81-4.45-17.55-12.47-20.6-23-4.84-16.68-8.75-30.82-30.47-27.84-12 1.64-24.29 8.65-33.7 16-17.81 14-31.33 33.37-50.27 45.9-24.08 15.95-49.49 18.14-71.68 10.17z"/>
        <path fill="#FFF" fill-rule="nonzero" d="M235.38 92.4h37.83v33.44h-37.83zM275.6 92.4h37.83v33.44H275.6zM235.38 128.33h37.83v33.44h-37.83zM275.6 128.33h37.83v33.44H275.6zM235.38 164.06h37.83v33.44h-37.83zM275.6 164.06h37.83v33.44H275.6z"/>
        <path stroke="#FFF" stroke-linecap="round" d="M226.56 83.06h98.08M230.3 82.13s0-44.37 44.84-46.71c0 0 41.57-1.4 45.31 47.17"/>
        <path stroke="#FFF" stroke-linecap="round" d="M261.59 83.06a14.85 14.85 0 0 1 2.2-7c3.19-5.28 9.39-9.17 15.61-6.85 5.69 2.12 8.41 7.84 9.28 13.42M262.99 75.12l-26.62-15.57M268.13 69.52l-15.88-27.56M275.13 35.42l.47 32.69M282.61 70.29l14.94-28.8M286.81 74.65l27.56-15.1M228.92 156.18h-23.74M321.11 92.86v38.59M321.11 98.3h31.66M228.76 160.64v-29.19"/>
        <path fill="#DDE0E9" fill-rule="nonzero" d="M229.62 185.48h-12.8l.49 11c0 2 1.18 3.59 3.22 3.59h5a3.35 3.35 0 0 0 3.38-3.59l.33-3.14h.42a3.92 3.92 0 1 0 0-7.83l-.04-.03zm0 6.71h-.42v-5.59h.42a2.8 2.8 0 0 1 0 5.59z"/>
        <path fill="#515872" fill-rule="nonzero" d="M241.96 201.68h-53.63v-3.17h51.51l19.03-50.2 2.64.8z"/>
        <path fill="#788DDF" fill-rule="nonzero" d="M100.75 135.12s-1.32 8.19-4.4 12.85c0 0 1.14 13.21 13.47 15.41a37.94 37.94 0 0 1 2.47-24.47l17.52-3.52s6.78-8.63 7-27.73l-4-12.15-29.67 15.58-2.39 24.03z"/>
        <path stroke="#FFF" stroke-linecap="round" stroke-linejoin="round" d="M126.09 117.6s3.26-3.72 6.08 0"/>
        <path fill="#CFD4E2" fill-rule="nonzero" d="M69.24 194s9.64-10.17 19.28-.66c0 0 5.94 8.85 3.83 24.69L69.24 194z"/>
        <path fill="#5772C9" fill-rule="nonzero" d="M204.73 171.9c-.4-.75-3.94-1.49-4.77-1.8-3.46-1.32-6.09-2.84-9.56-.5a16.32 16.32 0 0 0-4.58 4.77 11.39 11.39 0 0 1-2.88 3.14l-18.56 9.28c-5.27 2.63-10.78 6.54-17 5.28a13 13 0 0 1-7.4-4.45l-.09-.12c-2.91-4.4-9.16-8.72-9.16-8.72-5.26-3.72-15.11-6.77-18.89-7.85l.09 5 32.74 24.19 30.6-4.81c1.81-2.5 3.53-5.08 5.3-7.61 1.09-1.55 2.2-3.06 3.28-4.62a4 4 0 0 1 1.79-1.62c.83-.26 1.64.19 2.49.2a7.47 7.47 0 0 0 2.4-.5 6.23 6.23 0 0 0 2.84-1.91 8.1 8.1 0 0 0 1.14-2.92c1.2-3.47 6.28-1.6 6.28-1.6 5.14-.56 3.94-2.83 3.94-2.83z"/>
        <path fill="#FFF" fill-rule="nonzero" d="M109.82 163.38S98.91 160.83 96.35 148c0 0-29.76 30.2-10.48 87.24a90 90 0 0 0 6.6 14s12.94 5.28 24-7.13c0 0 7.4-9.24 12.15-10.83.04-.02 4.62-23-18.8-67.9z"/>
        <path fill="#5772C9" fill-rule="nonzero" d="M152.7 303.63l-.88 11.79 8.45 1.06 2.99-11.62z"/>
        <path fill="#272B3F" fill-rule="nonzero" d="M147.89 319.19c2.72 3.06 5.443 6.117 8.17 9.17 1.9 2.13 3.13 3.47 5.79 4.36 3.68 1.24 9.62 2.33 11.26-2.41 0 0 .71-1.8-4.14-4.87l-7-6.61s.29-3.16 2-2.83c0 0 .17-.85-1-1.28 0 0-2.38-1.23-2.59.47L152 313.3s-.72-.28-1.64 1l-2.26 3.31a1 1 0 0 0-.21 1.58z"/>
        <path stroke="#FFF" stroke-linecap="round" stroke-linejoin="round" d="M166.22 323.62s-1.33-.41-2.81 2M164.8 321.85s-1.7.25-3 2.87"/>
        <path fill="#272B3F" fill-rule="nonzero" d="M153.93 260c-1.09.18-1.69 7.53-1.77 8.22a99 99 0 0 0-.46 12.6c.07 3.92.78 7.81.77 11.73-.01 3.92-1.47 7.56-1.56 11.45-.06 2.15 1.51 3.21 3.55 3.13L159 302l.35-43-5.42 1z"/>
        <path fill="#788DDF" fill-rule="nonzero" d="M156.39 308.38l-.88 11.8 8.46 1.05 2.99-11.62z"/>
        <path fill="#515872" fill-rule="nonzero" d="M128.66 231.26s27.38-2.47 45.52 6c0 0 7 1.41 5.46 14.79 0 0-1.76 30.64-7.75 46.48 0 0-1.41 5.28-.35 9.16 0 0 .53 6.16-2.47 6.51 0 0-8.8-1.76-14.79-5.28a5.57 5.57 0 0 1 .79-3.43c.507-2.46.715-4.97.62-7.48 0 0-1.06-29.93.88-36.27 0 0-52.47 12.33-64.09-12.5l36.18-17.98z"/>
        <path fill="#DDE0E9" fill-rule="nonzero" d="M69.24 194c2-1.76 6.1-2.09 8.49-1.68 5.3.91 8.26 5.61 9.85 10.36 2.3 6.9 4.45 14.17 5.25 21.39 1.18 10.71 2.84 22.12 10.94 30 8.1 7.88 19.89 9.32 30.71 7.83 0 0 6.07-1.19 8.05 1.19 1.82 2.18-3 3.3-4.21 4.05a44.33 44.33 0 0 0-8.46 7.07c-4.75 4.82-9.58 9.94-15.43 13.57a37 37 0 0 1-22.13 5.5c-12.15-1-25.74-9.18-27.81-21.93-2.39-14.75 5.51-27.82 8.78-41.72A63.78 63.78 0 0 0 75 209a25.23 25.23 0 0 0-2.23-8.36 14.34 14.34 0 0 0-2.34-3.64c-.7-.75-2.43-1.83-1.19-3z"/>
        <path fill="#788DDF" fill-rule="nonzero" d="M210.85 196.26c-.24-1.66-3.84-2.84-5-3.81-1.16-.97-1.91-1.95-2.89-2.9-1.91-1.87-4.3-3.74-7.11-2.65l-8.85 3.42a10.9 10.9 0 0 1-1.74.35l-18.79 3.77c-7.59 1.52-17.16 5.32-24.31.83a18.28 18.28 0 0 1-5.48-5.74c-7.5-11.37-20-12.56-23.32-12.67a1.48 1.48 0 0 0-1 .63c-1.45 4.78-8.8 11.9-8.8 11.9 4.89 9.11 42.13 23.51 42.13 23.51 3.55 2.31 8-.92 11.32-2.31l13.36-5.69c5.25-2.23 10.47-4.37 15.52-7.05 1.19-.63 4.63-2.79 5.89-1.32 2.22 2.61 6.78 2.71 9.47.89 2.21-1.5 3.84.66 6.12.57 1.12-.06 3.72-.07 3.48-1.73z"/>
        <path fill="#F4BA64" fill-rule="nonzero" d="M163.29 91.94l-4.81 9.32a51.69 51.69 0 0 0 40-.3l-5.41-9-29.78-.02z"/>
        <ellipse cx="178.17" cy="91.94" fill="#F7A226" fill-rule="nonzero" rx="14.88" ry="4.36"/>
        <path fill="#F4BA64" fill-rule="nonzero" d="M160 110.88s5.56 21.2 22.55 20.14c0 0 13.68-.45 14.88-20.74l-37.43.6z"/>
        <path fill="#FFD194" fill-rule="nonzero" d="M198.47 101s-17.74 9.17-40 .3v9.32a52 52 0 0 0 40.14-.45l-.14-9.17z"/>
        <ellipse cx="173.77" cy="109.08" fill="#F7A226" fill-rule="nonzero" rx="5.26" ry="5.41"/>
        <ellipse cx="174.52" cy="109.84" fill="#FFF" fill-rule="nonzero" rx="4.71" ry="4.84"/>
        <ellipse cx="189.32" cy="108.07" fill="#F7A226" fill-rule="nonzero" rx="4.89" ry="5.41"/>
        <ellipse cx="190.18" cy="108.69" fill="#FFF" fill-rule="nonzero" rx="4.33" ry="4.8"/>
        <path fill="#F7A226" fill-rule="nonzero" d="M163 117.8l1.8 3.16s-1.8 6.16-.3 11.57l-3 .45s-2.27-8.12 1.5-15.18z"/>
        <path fill="#F4BA64" fill-rule="nonzero" d="M161.64 140.14l-2.86.6s-.75-8 4.66-8.72c0 0 5.86-.3 6.91 7.67h-2.85s-.15-4.06-3.61-4.51c0 0-2.7.15-2.25 4.96z"/>
        <path fill="#F7A226" fill-rule="nonzero" d="M196.77 114.15l-.85 3.53s3.45 5.42 3.51 11l3-.4s-.08-8.39-5.66-14.13z"/>
        <path fill="#F4BA64" fill-rule="nonzero" d="M204.21 135.32l2.92.09s-.67-8-6.13-7.75c0 0-5.82.74-5.45 8.77l2.81-.51s-.57-4 2.75-5.08c0 0 2.69-.34 3.1 4.48z"/>
        <path fill="#FFD194" fill-rule="nonzero" d="M167.2 118.7s1.35 3.61 2.71 4.21l3.46-.15a32 32 0 0 1-2.18-4.36l-3.99.3zM170.51 124.41l3.31-.23s1.43 2.33 2.48 2.78a7 7 0 0 1-2.78.38 10 10 0 0 1-3.01-2.93z"/>
        <path stroke="#FFF" stroke-linecap="round" stroke-linejoin="round" stroke-width=".28" d="M161.19 131.07a2.76 2.76 0 0 1 3-.6M160.89 129.07a2.21 2.21 0 0 1 3-.6M160.69 126.56a2.81 2.81 0 0 1 3.21-.2"/>
        <path stroke="#F7A226" stroke-linecap="round" stroke-linejoin="round" stroke-width=".41" d="M172.71 110.3a2 2 0 0 1 4 0M188.52 109a2 2 0 0 1 4 0"/>
        <path stroke="#FFF" stroke-linecap="round" stroke-linejoin="round" stroke-width=".28" d="M161 124.26a2.56 2.56 0 0 1 2.91.3M161.29 122.26a4 4 0 0 1 3.11.7M199.17 127s1.1-2.1 3-1.2M199.07 124.66s1.3-1.5 2.81-.8M198.27 122.76s1.4-1.5 2.81-1.1M197.67 121s1.3-1.6 2.91-1.1M197 119.15s1.3-1.5 2.71-1.2"/>
        <path fill="#DDE0E9" fill-rule="nonzero" d="M245.66 206.43v-4.75h-58.63v4.75h50.34l-49.81 91.92h5.81l2.29-4.23h32.04v-5.28h-29.19l44.58-82.41z"/>
        <path fill="#FFF" fill-rule="nonzero" d="M221.19 192.35a2.27 2.27 0 0 1 3.08-2 2.09 2.09 0 0 1 1.14 2.29 2 2 0 0 1-2.64 2s-1.93-.64-1.58-2.29z"/>
        <path stroke="#FFF" stroke-linecap="round" stroke-linejoin="round" stroke-width=".41" d="M221.63 175.93s-2 2.38-.66 4c0 0 1.19 2.24.26 3.3M224.4 177.9s-1.45 1.74-.48 2.89c0 0 .87 1.64.19 2.41"/>
        <path fill="#3C496D" fill-rule="nonzero" d="M151.07 324c3.113 3.147 6.227 6.29 9.34 9.43 2.18 2.19 3.58 3.56 6.5 4.38 4 1.13 10.52 2 12-3.25 0 0 .66-2-4.75-5l-7.92-6.73s.13-3.43 2-3.17c0 0 .13-.92-1.19-1.32 0 0-2.64-1.19-2.77.66l-9.11-1.58s-.79-.26-1.72 1.19l-2.24 3.7a1.09 1.09 0 0 0-.14 1.69z"/>
        <path stroke="#FFF" stroke-linecap="round" stroke-linejoin="round" stroke-width=".28" d="M171.36 327.4s-1.41-.35-2.82 2.29M169.78 325.64s-1.76.35-3 3.17"/>
        <rect width="4.28" height="44.5" x="88.52" y="288.39" fill="#DDE0E9" fill-rule="nonzero" rx="2.14"/>
        <ellipse cx="90.66" cy="334.75" fill="#C8CCD6" fill-rule="nonzero" rx="14.88" ry="5.07"/>
        <ellipse cx="90.66" cy="332.89" fill="#DDE0E9" fill-rule="nonzero" rx="14.88" ry="5.07"/>
        <path fill="#272B3F" fill-rule="nonzero" d="M105.2 125.16a13 13 0 0 1 .8-5.83c1-2.82 4.83-5.37 7.29-2.33a6.28 6.28 0 0 1 1.13 2.15 7.08 7.08 0 0 0 2.48 3 29 29 0 0 1 0-5.36c.4-4.52 1.09-9.73 3.77-13.57a9 9 0 0 1 1.8-1.88 7.91 7.91 0 0 1 5.94-1.89c2.57.43 3.83 2.56 4 5 .14 1.7.85 4.38 3.12 3.49 5.87-2.31 4.63-9.17 2.48-13.74-2.72-5.77-6.76-9.65-12.91-11.41-6.15-1.76-12.62-2.84-18.6-.34a22.15 22.15 0 0 0-8.39 5.94c-2.65 3.11-4.95 8.06-4.58 12.24a27.58 27.58 0 0 0 1 4.94c1.09 3.88 3.76 7.49 4.79 11.52 1.23 4.84-1 9.82.42 14.63 0 0 .53 1.85-.35 2.55 0 0 .18 1.85 3.08.18 0-.05 3.87-2.07 2.73-9.29z"/>
        <path fill="#788DDF" fill-rule="nonzero" d="M121.07 134.52h-.17a5.54 5.54 0 0 0-1.43.65 27 27 0 0 1-8.91 3.14 7.44 7.44 0 0 0 3.71 4.77c2.88 1.52 6.38.74 9-.88a17.78 17.78 0 0 0 3.82-3.25c.31-.34 2.5-3.61 2.67-3.59l-7.17-.83a5.59 5.59 0 0 0-1.52-.01z"/>
        <path fill="#FFF" fill-rule="nonzero" d="M128.64 131.53c-.72-.22-2.52-1.49-3.23-1.34h-.12c-1.44.45-.51 3.09.3 3.92a6.24 6.24 0 0 0 3.63 1.67c1.07-.49 2.56-3.8 2.56-3.8l.12-.08a8.49 8.49 0 0 1-3.26-.37z"/>
    </g>
</svg>