<svg xmlns="http://www.w3.org/2000/svg" width="415" height="406" viewBox="0 0 415 406">
    <g fill="none" fill-rule="evenodd" transform="translate(-1 -1)">
        <path fill="#F5F6FB" fill-rule="nonzero" d="M64.11 402.14c-21.86-7.86-40.58-25.59-51.83-49.76C-6.43 312.17.45 266 16.06 226c10.86-27.83 33.51-54.12 58-70.72 3.68-2.49 7.58-4.93 10-8.63 9.3-14-13.66-28.36-23.52-33.5C49.82 107.59 38 98.36 33 87.11 19.56 57 61.8 38.32 83.12 29.88 148.41 4 222.2-6.2 291.76 6.34 340.08 15 398.85 41.22 397.41 97.87c-1 40.62-34.69 61.57-58.53 89.08-10.18 11.74-19.25 31.66-9.5 46.28 12.56 18.83 43.58 11.67 61.8 21 27.69 14.1 32.39 47.75 13.2 71.07-18.95 23-47.35 38.11-73.55 51.34-17.21 8.69-41.55 12.63-60 4.27-9.81-4.45-17.55-12.47-20.6-23-4.84-16.68-8.75-30.82-30.47-27.84-12 1.64-24.29 8.65-33.7 16-17.81 14-31.33 33.37-50.27 45.9-24.08 15.95-49.49 18.14-71.68 10.17z"/>
        <path fill="#FFF" fill-rule="nonzero" d="M93.46 109.08h32.57v28.78H93.46zM128.08 109.08h32.57v28.78h-32.57zM93.46 140h32.57v28.78H93.46zM128.08 140h32.57v28.78h-32.57zM93.46 170.76h32.57v28.78H93.46zM128.08 170.76h32.57v28.78h-32.57z"/>
        <path stroke="#FFF" stroke-linecap="round" stroke-width=".75" d="M85.87 101.04h84.43M89.09 100.23s0-38.19 38.6-40.2c0 0 35.78-1.21 39 40.61"/>
        <path stroke="#FFF" stroke-linecap="round" stroke-width=".75" d="M116 101a12.78 12.78 0 0 1 1.92-6c2.75-4.55 8.08-7.89 13.44-5.89 4.9 1.83 7.24 6.75 8 11.55M117.23 94.2L94.31 80.8M121.65 89.38l-13.67-23.72M127.68 60.03l.4 28.14M134.12 90.05l12.86-24.8M137.73 93.8l23.72-13"/>
        <path fill="#DDE0E9" fill-rule="nonzero" d="M229.64 243.9l.41 25.48-.1 5.9 2.44.21-.2-21.06-.1-11.16zM219.94 318.8l5.06.05 4.43.15-.18 1.12h-4.14l-5.62-.11zM233.84 318.73l5.06.05 4.43.15-.18 1.12-4.14-.01-5.62-.1z"/>
        <path fill="#E1709A" fill-rule="nonzero" d="M202.82 320.78a10.47 10.47 0 0 0 2.68.09l3.21.07c1.3 0 2.6 0 3.89.09l2.87.1c1.94.06 4.14.9 5-1.39.75-2.12-1.81-3-3.51-3l-6.05-.1-4.53-.08c-1.63 0-3.23-.41-4.49.88a2 2 0 0 0 .59 3.21 2 2 0 0 0 .34.13zM243.27 321.57c1.49.49 3.86.16 5.08.19 3.66.087 7.327.197 11 .33 1 0 1.75-1.48 1.69-2.38-.1-1.68-2.38-2-3.67-2.16l-5.51-.09-4.4-.07c-1.68 0-5.56-.63-5.8 2a2.27 2.27 0 0 0 .61 1.52 2.07 2.07 0 0 0 1 .66z"/>
        <path fill="#3C496D" fill-rule="nonzero" d="M216.67 307.08l1.58 3.69s2 2.58-2.16 5.53c0 0-3.46 3.81-4.18 5.9 0 0-1.44 5.9-14.41 4.55 0 0-1-1.11 2.31-5.16l5.91-8.36s1-2.83.72-4.18l10.23-1.97z"/>
        <path fill="#E1709A" fill-rule="nonzero" d="M213.59 246.61l18.87-.19 13.48.21s5.26-8.42-8.21-9.27c0 0-18.11-2.95-24 1.47-.01.02-3.64 5.65-.14 7.78z"/>
        <path stroke="#CFD4E2" d="M310.8 294.72l7.86-.28s7.3-14.32 5.33-27.52c0 0 .56-4.21-2.25-9.83 0 0-4.21-5.9-4.21-10.39l-5.9-.28c-1.46-.01-5.63 48.47-.83 48.3z"/>
        <path fill="#DDE0E9" fill-rule="nonzero" d="M317.54 246.71l-5.9-.28c-1.51-.07-3.82-3-4.59-4-6.73-8.92 1.21-15.77 2.87-24.39.67-3.46-.4-6.52-4.18-6.84a18 18 0 0 1-4-.43 3.17 3.17 0 0 1-2.41-2.87 3.4 3.4 0 0 1 .61-1.63 9.66 9.66 0 0 1 5.28-3.81 19.44 19.44 0 0 1 6.58-.7 12.75 12.75 0 0 1 6.5 1.61c1.9 1.22 3.23 3.58 2.64 5.76-.45 1.67-1.9 4-.23 5.23.85.65 2.93 0 4 0 4.44.22 7.58 2.38 4.38 6.54-2.69 2.07-6.08 5.19-3.92 8.71 5.49 8.96-9.98 10.05-7.63 17.1z"/>
        <path stroke="#FFF" stroke-width=".5" d="M304.83 206.06s16.22 4.21 11.58 15.79c0 0-4.42 18.53-2.32 24.22M316.21 224s4.21-4 8.42-4.84M314.1 237.44s3.16-4 7.58-4.42M314.31 230.91s-.84-2.53-4.42-4"/>
        <path fill="#788DDF" fill-rule="nonzero" d="M276.73 108.08s-4.33-11.7-.47-12.63a5.71 5.71 0 0 1 4.21 3.86l7.84 1.64s.23 6.08-4.21 10.06l-7.37-2.93z"/>
        <path fill="#CFD4E2" fill-rule="nonzero" d="M268.54 93.93l31.24 3.86s1.75 1.75-.58 2l-30.53-3.63s-3.06-.83-.13-2.23z"/>
        <path fill="#CFD4E2" fill-rule="nonzero" d="M256.25 86.91a11.92 11.92 0 0 1 10.4-1.5c3.35 1.13 5 3.67 5.89 7a10.13 10.13 0 0 1-.85 7.35c-1.54 2.72-4.25 3.31-7.15 3.65-3.73.43-8.94-.47-10.35-4.52-1.3-3.71-1.68-9.54 2.06-11.98zM297.9 107.38a10 10 0 0 1 2-12.17s8.89-5.62 15 1.75c0 0 6.79 11.35-6.32 14.62-.03.01-9.74.83-10.68-4.2z"/>
        <path fill="#3C496D" fill-rule="nonzero" d="M251.31 308.34l-3.77 4.77s-3.78 1.82-.49 4.77c0 0 3.78 3.22 6.08 5a55.67 55.67 0 0 0 10.87 4.39s7.89 1.82 7.39-1.12c0 0 .66-2.66-9.2-7.85 0 0-4.27-3.36-2.14-6.59l-8.74-3.37z"/>
        <path fill="#515872" fill-rule="nonzero" d="M202.17 224l-.35.15a9.64 9.64 0 0 0-3 2.58c-8.16 9.43-19.73 22.14-20.78 35.15-.44 5.5 1.16 11 3.51 16 4.12 8.75 10.48 16.22 16.76 23.57l7.59 8.87c.392.54.91.976 1.51 1.27a4.13 4.13 0 0 0 3.14-.53l3.86-1.79a4.77 4.77 0 0 0 2.49-1.93c1-2-1-4-2.55-5.54-8.81-8.71-9.09-22.84-15.36-33.53a7.17 7.17 0 0 1-1.3-3.23c-.05-1.49.91-2.8 1.85-4a87.9 87.9 0 0 1 24.88-20.92 9.32 9.32 0 0 1 4.58-1.55 9.13 9.13 0 0 1 3.59 1 65.84 65.84 0 0 1 29.13 26.46 11.17 11.17 0 0 1 1.56 3.76 12.23 12.23 0 0 1-.61 5c-2.81 10.56-5.67 21.24-10.83 30.88-.65 1.21-1.35 2.62-.81 3.89a4.52 4.52 0 0 0 2.32 2l4.45 2.27a1.73 1.73 0 0 0 2.85-.69l20.05-34.15c1.45-2.47 2.94-5.06 3.08-7.92.16-3.23-1.41-6.26-3-9.07a187.51 187.51 0 0 0-22.25-31.19 15.88 15.88 0 0 0-5.16-4.34 16.57 16.57 0 0 0-6-1l-40.82-1.91a10.8 10.8 0 0 0-4.38.44z"/>
        <path fill="#FFF" fill-rule="nonzero" d="M202.57 153.56l19.55-5.45 12.14 1.68c6.77.94 12 2.8 18.19-1.3 3-2 6-4 8.86-6.28a21.38 21.38 0 0 0 5.11-5.1c1.42-2.27 1.89-5.2 2.74-7.72l3.22-9.56 2.85-8.46c.17-.51.72-3.4 1.23-3.65 0 0 5.29-2.56 8.49 2.4l-12 38.3s-2.56 6.09-6.41 9.14l-9.46 8.44c-2.21 2-3.82 3.54-5 6.4-3.77 9.18-4.55 20-3.24 29.71a44.81 44.81 0 0 0 3 12c1.63 3.69 4.05 6.9 4.38 11.06 0 0 .48 6.09-11.22 4.17 0 0-12.82-.64-17.79 1.28-4.74 1.83-10.1 1.65-15 .46a32.2 32.2 0 0 1-7.26-2.71c-1.46-.76-4.36-1.88-5.06-3.42-1.39-3.07.85-6.47 1.9-9.27 1.17-3.11.65-6.56.65-9.83a76.53 76.53 0 0 0-.87-11.6 77.781 77.781 0 0 0-2.39-10.67 5.59 5.59 0 0 0-1.1-2.54c-1.51 1.69-2.47 4.32-3.55 6.32l-5.06 9.37-7.26 13.43v.08s-3.2-3.53.64-14.58l9.46-32.85s1.28-7.32 10.26-9.25z"/>
        <path fill="#5772C9" fill-rule="nonzero" d="M281.29 92.87a7.88 7.88 0 0 1 8.66 2s2.34 6.79-3.16 6.9c0 0-8.77-.12-7.6-4.68-.01 0 .35-4.33 2.1-4.22z"/>
        <path fill="#788DDF" fill-rule="nonzero" d="M218.09 140.46a8 8 0 0 1 1.05 6.67s-2.22 6 4.91 10.41c0 0 6.43-2.81 4.91-11.23 0 0-1.4-7.49-.58-9l-10.29 3.15z"/>
        <path fill="#272B3F" fill-rule="nonzero" d="M241.82 108.83l-2.34 19s-4.33 16.73-16.38 14.86c0 0-13.1.94-17.55-22.11l-2-14.51S206 79.94 232 90.35c0 0 13.33 3.74 9.82 18.48z"/>
        <path fill="#788DDF" fill-rule="nonzero" d="M208.48 109.77a5.09 5.09 0 0 1 .46-3.33 3.73 3.73 0 0 1 4.26-1.33 11.58 11.58 0 0 1 4 2.47 10.3 10.3 0 0 0 4 2.36 8.12 8.12 0 0 0 5.34-.94c1.65-.82 3.17-1.9 4.85-2.66a4.76 4.76 0 0 1 3.47-.45c1.59.56 2.35 2.4 2.48 4.08.13 1.68-.17 3.41.15 5.05.32 1.64 1.26 3.28.81 4.89-.41 1.45-1.8 2.36-2.71 3.57-1.21 1.61-1.51 3.71-2.44 5.49-1.9 3.62-6.38 5.46-10.42 4.88a15.12 15.12 0 0 1-9.92-6.62c-1.18-1.71-2.09-3.6-3.35-5.25a6.25 6.25 0 0 1-1.38-2.34 6.5 6.5 0 0 1 .41-2.91c.409-1.569.524-3.2.34-4.81-.12-.69-.26-1.42-.35-2.15z"/>
        <path fill="#F5F6FB" fill-rule="nonzero" d="M183.18 210.84s-4-3.58-.42-10.53c2.38-4.61 3.56-9.6 5.22-14.48 1.66-4.88 4.29-9.41 5.89-14.33a10.13 10.13 0 0 1 2.61-4.53c.34-.3 4.68-2.27 4.6-1l-.84 15-17.06 29.87zM201.79 192.46c-1.88-3.07-1.24-7-.53-10.51a98.18 98.18 0 0 1 4.48-16.81c2.69 3.3 8.21 5.33 4.77 10.46-1.63 2.42-4.68 3.9-5.3 6.95-.42 2.1.75 3.74-.24 5.79a11 11 0 0 1-3.18 4.12z" opacity=".55"/>
        <path fill="#FFF" fill-rule="nonzero" d="M199.21 167.14s5 0 7.76 2.75c0 0 .81.48-1 3.56 0 0-8.41 28.13-9.21 31 0 0-2.26 10.83-11.15 9.38 0 0-8.08-3.23-1.13-15.68L196.95 171s-.16-4.51 2.26-3.86z"/>
        <path fill="#DDE0E9" fill-rule="nonzero" d="M201.18 159.2l4.25-13.01 10.39 3.51-2.9 10.47-9.68 2.05z"/>
        <path fill="#CFD4E2" fill-rule="nonzero" d="M205.43 146.19c0-.11-.45-.53-.56-.61a8 8 0 0 0-.93 2.52l-1.32 3.9-1.78 5.32 1-.27 3.59-10.86z"/>
        <path fill="#788DDF" fill-rule="nonzero" d="M207 169.79a14.71 14.71 0 0 1 3.63-5.46s4.33-4.21 2.34-9.24a3.27 3.27 0 0 0-3.16-2.69s-5.15 1.05-6.32 5.85a2.14 2.14 0 0 1-1.64-1.17s-3.16-.47-2.34 2.34a23.47 23.47 0 0 1 1.4 3.63 19.73 19.73 0 0 1-.47 4l6.56 2.74z"/>
        <path stroke="#F4BA64" stroke-width="2" d="M167 140.13s6.82 3 9.47-13.78"/>
        <path fill="#F4BA64" fill-rule="nonzero" d="M183.24 122c-1 2.77-1 5.13-3.73 6.76a4.91 4.91 0 0 1-6.5-1.55c-1.57-2.33-.45-5.79 1-7.93a23.59 23.59 0 0 1 2.13 1c-.18 1.07-1.1 3.93-.44 5 2.09 3.28 4.47-2.73 4.85-4l2.69.72z"/>
        <path stroke="#FFF" stroke-linecap="round" stroke-width=".5" d="M175 129.57s1.15.76 1.61.46M174.79 130.79s1.08.84 1.61.46M174.47 131.82s.9.9 1.51.59M174.08 133s1 .88 1.61.46M173.62 134.21s1 .78 1.57.51M173.14 135.18s.85.79 1.55.62M172.67 136.23c.43.407.998.639 1.59.65M172 137.14s.71.95 1.63.69M171.36 138s.78.87 1.56.77M170.62 138.64s.83 1.05 1.64.91M169.77 139.16s.66 1.18 1.59 1.14M168.76 139.54s.1 1.26 1.09 1.4"/>
        <path stroke="#F4BA64" stroke-width="2" d="M139.94 146s-4.45 6-15-7.34"/>
        <path fill="#F4BA64" fill-rule="nonzero" d="M116.86 138.15c2.24 1.92 3.36 4 6.57 4a4.91 4.91 0 0 0 4.9-4.55c.22-2.8-2.45-5.26-4.76-6.42a23.59 23.59 0 0 0-1.35 1.94c.68.85 2.89 2.88 2.82 4.11-.21 3.89-5.24-.18-6.18-1.08l-2 2z"/>
        <path stroke="#FFF" stroke-linecap="round" stroke-width=".5" d="M127.79 140.72s-.62 1.23-1.17 1.2M128.56 141.68s-.52 1.27-1.17 1.2M129.35 142.42s-.34 1.22-1 1.25M130.28 143.26s-.47 1.28-1.17 1.2M131.27 144.08s-.49 1.17-1.12 1.21M132.16 144.69s-.35 1.1-1 1.3M133.09 145.37a2.38 2.38 0 0 1-1.06 1.35M134.09 145.85s-.15 1.18-1.08 1.4M135.11 146.28s-.25 1.14-1 1.43M136.06 146.46s-.21 1.33-1 1.6M137.05 146.49s0 1.35-.82 1.77M138.13 146.33s.53 1.15-.26 1.76"/>
        <path fill="#F4BA64" fill-rule="nonzero" d="M137.4 131.84c.23-.46 13.39-18.71 28.71-1.61 0 0 13.07 22.74-11.94 26.29 0 0-17.26 3.55-18.87-13.23a19.91 19.91 0 0 1 2.1-11.45z"/>
        <path fill="#FFD194" fill-rule="nonzero" d="M147.45 130.73c3.37-2.22 7.81-1.67 11.07.48 4.15 2.74 5.58 8.33 4 13s-6 6.5-10.79 6c0 0-9.52-.65-8.55-11.13a14 14 0 0 1 .81-3.94 9.12 9.12 0 0 1 3.46-4.41z"/>
        <path fill="#272B3F" fill-rule="nonzero" d="M224.57 92.36c-1.62-1.06-2.71-4-.64-5.14 1-.58 2.42-.62 3.53-1 .39-.14.83-.35.92-.75.22-1-1.31-1.56-1.6-2.37a3.25 3.25 0 0 1 .37-2.64c2.43-2.87 8.3 1 9.85 3a2.32 2.32 0 0 1 .57 2.43 2.27 2.27 0 0 1-1.12.86c-.78.35-5.28.75-4.53 2.52 0 0 3.42 7.2-4.24 5.15l-3.11-2.06z"/>
        <rect width="1.46" height="5.61" x="148.625" y="120.544" fill="#F4BA64" fill-rule="nonzero" rx=".73" transform="rotate(-10.65 149.355 123.35)"/>
        <path fill="#F4BA64" fill-rule="nonzero" d="M144.62 115.52l.62 3.31s1.81 3 4.11 2.71a4.76 4.76 0 0 0 1.68-4.43l-.52-2.47s-2.38-2-5.89.88z"/>
        <path fill="#F7A226" fill-rule="nonzero" d="M145.24 118.83a11.13 11.13 0 0 1 5.88-1.34l-.62-2.84s-2.31-2.12-5.88.88l.62 3.3z"/>
        <ellipse cx="153.08" cy="139.96" fill="#F7A226" fill-rule="nonzero" rx="4.37" ry="4.32"/>
        <ellipse cx="153.84" cy="140.45" fill="#FFF" fill-rule="nonzero" rx="3.88" ry="3.83"/>
        <path stroke="#F7A226" stroke-linecap="round" stroke-linejoin="round" stroke-width=".79" d="M152.37 140.71a1.78 1.78 0 0 1 3.54 0"/>
        <path stroke="#FFF" stroke-linecap="round" stroke-linejoin="round" d="M215.09 119.07s2.63-3.37 5.69-.21M225.51 119.07s2.63-3.37 5.69-.21"/>
        <rect width="14.74" height="9.27" x="216.39" y="127.37" fill="#272B3F" fill-rule="nonzero" rx="4.63"/>
        <path fill="#FFF" fill-rule="nonzero" d="M218.62 130.61a.94.94 0 0 1 .93-.42 4.13 4.13 0 0 1 1.83.94 4.21 4.21 0 0 0 3.2.65c1.18-.22 2.09-1.28 3.29-1.35.266-.03.534.04.75.2.94.78.09 2.19-.49 2.87-2.13 2.5-6.38 2.16-8.63.06a3.55 3.55 0 0 1-1-2.45 1.13 1.13 0 0 1 .12-.5z"/>
        <path fill="#272B3F" fill-rule="nonzero" d="M227.06 341.7v-67.79s.22-5.72 4.26-5.72c4.89 0 4.78 8.75 4.69 13.06-.17 8.71-.63 17.42-.84 26.14-.12 4.91-.19 28.71-.15 33.62 0 4 1 9.33.12 13.21-.64 3-2.83 3.81-4.95 2.92 0 0-2.69-1.14-3.14-7.72l.01-7.72z"/>
        <path fill="#FFF" fill-rule="nonzero" d="M257.31 91.85s-1.79-1.9 2.21-3.79c0 0 2.53-.53 2.32.84 0 0 .21.74-1.79 1.05 0 0-1.68.11-1.47 1.16-.01.01-.11.74-1.27.74zM206.28 148.71l-.35 1.05s-.18.42.6.67a.54.54 0 0 0 .56-.18l.39-1.05s.11-.42-.42-.6a.82.82 0 0 0-.78.11z"/>
        <path fill="#CFD4E2" fill-rule="nonzero" d="M215.68 149.66l-10.39-3.51a8.43 8.43 0 0 0-.48-.73c.2.27 1.52.46 1.83.56.8.27 1.59.57 2.39.84l3.32 1.11c.75.17 1.485.397 2.2.68.45.25.65.89 1.13 1.05z"/>
        <path stroke="#FFF" stroke-linecap="round" stroke-width=".75" d="M292.76 134.53l32.57-1.12-.56 11.79-32.01 1.13zM308.48 146.33l33.7-1.13.56 11.8-33.69 2.8z"/>
        <path stroke="#FFF" stroke-width=".5" d="M204.82 315.5a3.62 3.62 0 0 1 3.11-.05 26.56 26.56 0 0 1-3.69 1.68l1.95 1.9M261.67 318.23s-1.49.79-1.49 2l3.26-.93v2.56"/>
    </g>
</svg>