<svg xmlns="http://www.w3.org/2000/svg" width="415" height="406" viewBox="0 0 415 406">
    <g fill="none" fill-rule="evenodd" transform="translate(-1 -1)">
        <path fill="#F5F6FB" fill-rule="nonzero" d="M64.11 402.14c-21.86-7.86-40.58-25.59-51.83-49.76C-6.43 312.17.45 266 16.06 226c10.86-27.83 33.51-54.12 58-70.72 3.68-2.49 7.58-4.93 10-8.63 9.3-14-13.66-28.36-23.52-33.5C49.82 107.59 38 98.36 33 87.11 19.56 57 61.8 38.32 83.12 29.88 148.41 4 222.2-6.2 291.76 6.34 340.08 15 398.85 41.22 397.41 97.87c-1 40.62-34.69 61.57-58.53 89.08-10.18 11.74-19.25 31.66-9.5 46.28 12.56 18.83 43.58 11.67 61.8 21 27.69 14.1 32.39 47.75 13.2 71.07-18.95 23-47.35 38.11-73.55 51.34-17.21 8.69-41.55 12.63-60 4.27-9.81-4.45-17.55-12.47-20.6-23-4.84-16.68-8.75-30.82-30.47-27.84-12 1.64-24.29 8.65-33.7 16-17.81 14-31.33 33.37-50.27 45.9-24.08 15.95-49.49 18.14-71.68 10.17z"/>
        <path fill="#DDE0E9" fill-rule="nonzero" d="M179.67 301.03h-2.58l10.64-92.16h4.17zM297.83 301.03h-2.57l-12.24-92.16h4.17z"/>
        <rect width="146.35" height="3.23" x="164.13" y="207.48" fill="#CFD4E2" fill-rule="nonzero" rx="1.32"/>
        <path fill="#DDE0E9" fill-rule="nonzero" d="M270.26 207.59h-56.82v-40.38h49.48a62.76 62.76 0 0 1 6.52-.15c2 .21.83 3.58.83 4.8v35.72l-.01.01z"/>
        <path fill="#272B3F" fill-rule="nonzero" d="M296 315.72l.5 7.71-.5 2s1 4 6.37 2.18c0 0 1.17-1 2.85 1.17 0 0 7.37 8.54 17.93.17 0 0 1.51-1.68-7.2-3.69 0 0-9.21-4-9.88-6l-.34-6.37-9.73 2.83zM265.65 313.44c.74 3.21-.91 6.57-3.28 8.87-2.37 2.3-14.47 8-5.33 10.92a7.51 7.51 0 0 0 6.26-1.14 21.59 21.59 0 0 0 4.67-4.6 4 4 0 0 1 1.79-1.46 6.78 6.78 0 0 1 2.07 0 9.53 9.53 0 0 0 4.11-1.19l-.74-12-9.55.6z"/>
        <path fill="#515872" fill-rule="nonzero" d="M249.17 211.09l6.8 55s5.71 35.29 6 39.63c0 0-1.75 9.33 8.25 9.33 0 0 6.91-1.3 6.46-6.65l-1.82-23 3.36-52.36 12.25 57.8 3.75 20.2s-1 8 6 6c0 0 11 1 6-10l-2-82-2-16s-42.9 9.34-53.05 2.05z"/>
        <path fill="#F5F6FB" fill-rule="nonzero" d="M258.65 132.94l26.13 3.69 2.02 82.76-27.48-1.01z"/>
        <path fill="#788DDF" fill-rule="nonzero" d="M250.57 99.18c-.13.38 3.39 9.93 4.52 13.19a15.76 15.76 0 0 1 1 3.39s.63 5.65 10.3 2.89l.13 3s1.13 3.77-6.53 4.9c0 0 .88 16.46 12.82 14.07a16.78 16.78 0 0 0 13.32-14.07l-6.91-3.14s-6-3.27-.63-14.83l4.77-8.29 1.38-7.41-3.9-8.8-30.16.25-.11 14.85zM316.62 210c.07 0-4 12.57-1.17 12.57 0 0 3-.67 3-3 0 0-.5 7 3.18 8.38 6.85 2.5 2.29-19.48.5-19.1l-5.51 1.15zM235.63 215.35c-.07 0 4 11 1.17 11 0 0-3-.59-3-2.65 0 0 .5 6.17-3.18 7.35-6.85 2.19-2.29-17.09-.5-16.76l5.51 1.06z"/>
        <path fill="#FFF" fill-rule="nonzero" d="M286.16 126.58c4.49 2.92 10.29 3.61 14.31 7.15 2.73 2.4 4.29 5.82 5.77 9.14l9.23 20.63c2.45 5.47 4.91 11 6 16.9 1.5 8.13.32 16.71 2.8 24.6.38 1.22.84 2.57.28 3.71-.69 1.39-2.49 1.71-4 1.86l-5.17.51c-.79.08-1.74.09-2.21-.55a2.39 2.39 0 0 1-.23-1.68c1.36-13.38-1.45-33.43-11.7-43.25-4.5 5.41-1.6 18.52-.84 25A86.84 86.84 0 0 0 307 215c1.09 2.51 2.33 5.23 1.63 7.87-1 3.79-5.39 5.47-9.26 6.08a45 45 0 0 1-9.12.49c-2.34-.11-5-.59-6.25-2.57a8.2 8.2 0 0 1-.89-4.27 414.51 414.51 0 0 0-5.14-53.48c-1.56-9.84-3.28-20.5 1.39-29.3 2.33-4.43 6.25-8.27 6.8-13.24z"/>
        <path stroke="#FFF" stroke-linecap="round" stroke-linejoin="round" d="M254.68 98.88s1.61-3.32 4.25-.14M263.11 99s1.84-3.79 4.87-.16"/>
        <rect width="2.33" height="5.83" x="336.23" y="77.1" fill="#F7A226" fill-rule="nonzero" rx="1.165"/>
        <path fill="#F7A226" fill-rule="nonzero" d="M347 63.14s-11.29-3-22.35.43c-.06-1 1.14-1.28 1.83-1.82a11.2 11.2 0 0 1 3.35-1.28 22.53 22.53 0 0 1 6.87-.93c4.09 0 9.09.35 12.65 2.49.93.56 1.59 1.51 2.47 2.05a7.69 7.69 0 0 0-4.82-.94z"/>
        <path fill="#FFD194" fill-rule="nonzero" d="M346.73 62.8a16.1 16.1 0 0 1 .27 12.83s6.74-1.32 7.06-6.29c-.06-.01-.06-7.16-7.33-6.54z"/>
        <path fill="#F4BA64" fill-rule="nonzero" d="M325.74 76.25a29.44 29.44 0 0 1-1.17-12.9S333 60.24 347 62.8c0 0 2.8 6.37.23 12.82.04.01-8.04 5.21-21.49.63zM331.73 81.77l12.59-.31s6.84-1.17 6.22 5.44c0 0-1.48 10.41-12.2 9.87 0 0-8.7-.08-10.34-9.09 0-.01-1.79-5.99 3.73-5.91z"/>
        <path fill="#F7A226" fill-rule="nonzero" d="M336.44 54.51h1.32v5.27h-1.32z"/>
        <ellipse cx="337.24" cy="53.9" fill="#F4BA64" fill-rule="nonzero" rx="2.49" ry="2.4"/>
        <ellipse cx="337.11" cy="57.44" stroke="#F7A226" stroke-width=".5" rx="4.14" ry="1"/>
        <circle cx="331.75" cy="69.24" r="2.47" fill="#FFF" fill-rule="nonzero"/>
        <circle cx="340.55" cy="69.35" r="2.47" fill="#FFF" fill-rule="nonzero"/>
        <path stroke="#F4BA64" d="M329 86s-7.93-1.4-11.19 3.89M349.1 85.69s5.28-1.09 7.77 10.41"/>
        <path fill="#F4BA64" fill-rule="nonzero" d="M313.11 94.32l-1.24-.85 2.8-4.27a3.75 3.75 0 0 1 5 .31c.6.56.55 2 .42 2.73-.34 1.95-2.1 3.49-3.3 5l-1.39-1.08a8.81 8.81 0 0 0 2.08-4c.08-.41.23-1.09-.13-1.43a1.51 1.51 0 0 0-1.65.15l-2.59 3.44zM355.84 102.91l-1.5.15-.62-5.06a3.75 3.75 0 0 1 4.06-3c.82 0 1.73 1.2 2.08 1.81 1 1.71.65 4 .69 5.92l-1.76.07a8.81 8.81 0 0 0-1-4.42c-.2-.37-.53-1-1-1a1.51 1.51 0 0 0-1.17 1.18l.22 4.35z"/>
        <circle cx="337.94" cy="88.68" r="2.53" fill="#FFD194" fill-rule="nonzero"/>
        <circle cx="337.94" cy="88.68" r="1.44" fill="#F4BA64" fill-rule="nonzero"/>
        <path stroke="#FFF" stroke-width=".5" d="M336.23 78.78a15.31 15.31 0 0 0 2.25 0M336.23 79.75a5.87 5.87 0 0 0 2.37-.16M336.2 80.87s1.75.23 2.33-.27"/>
        <path fill="#75EFD2" fill-rule="nonzero" d="M283.3 150.77a.34.34 0 0 0-.16.27v2.61a.34.34 0 0 0 .16.27l2.26 1.31a.34.34 0 0 0 .31 0l2.26-1.3a.34.34 0 0 0 .16-.27V151a.34.34 0 0 0-.16-.27l-2.26-1.31a.34.34 0 0 0-.31 0l-2.26 1.35z"/>
        <path fill="#54C9F7" fill-rule="nonzero" d="M289.24 150.77a.34.34 0 0 0-.16.27v2.61a.34.34 0 0 0 .16.27l2.26 1.31a.34.34 0 0 0 .31 0l2.26-1.3a.34.34 0 0 0 .16-.27V151a.34.34 0 0 0-.16-.27l-2.26-1.31a.34.34 0 0 0-.31 0l-2.26 1.35z"/>
        <path fill="#A188ED" fill-rule="nonzero" d="M283.31 157.35a.34.34 0 0 0-.16.27v2.61a.34.34 0 0 0 .16.27l2.26 1.31a.34.34 0 0 0 .31 0l2.26-1.3a.34.34 0 0 0 .16-.27v-2.61a.34.34 0 0 0-.16-.27l-2.26-1.36a.34.34 0 0 0-.31 0l-2.26 1.35z"/>
        <path fill="#FCDC7A" fill-rule="nonzero" d="M289.26 157.35a.34.34 0 0 0-.16.27v2.61a.34.34 0 0 0 .16.27l2.26 1.31a.34.34 0 0 0 .31 0l2.26-1.3a.34.34 0 0 0 .16-.27v-2.61a.34.34 0 0 0-.16-.27l-2.26-1.36a.34.34 0 0 0-.31 0l-2.26 1.35z"/>
        <path fill="#F5F6FB" fill-rule="nonzero" d="M286.06 152c-.1 0-.18.08-.18.18v8.61a.37.37 0 0 0 .15.28l2.52 1.65a.3.3 0 0 0 .3 0l2.53-1.65a.37.37 0 0 0 .15-.28v-8.61a.18.18 0 0 0-.18-.18h-5.29z"/>
        <rect width="4.37" height="7.75" x="286.51" y="152.9" fill="#627384" fill-rule="nonzero" rx=".94"/>
        <path fill="#49D6D8" fill-rule="nonzero" d="M94.75 178.57l-3.24 12 3.24 31.14s1.53.71 2 0c0 0 2.43-2 3.25 1.42 0 0 1.72 2.94-1.12 7.1 0 0-3.45 5.68-8.82 0 0 0-5.48-4.46-1.93-7.61l-8.32-27.89s-1.52-2.94.61-11l2.44-9.36 11.89 4.2zM160.87 164.34l7.95 11.38s14.89-16.72 23.77-22.36a9.67 9.67 0 0 0 3.44-4.3l1.53-5.73s.67-1.72 3.82-3.34l5-3.05c1.88-1.16 1.39 1.83.9 2.66a15.94 15.94 0 0 1-4 4.69l4.58 10a19.26 19.26 0 0 1-6 .76 15.39 15.39 0 0 0-3.63 2.77s-12.32 14.45-17.23 21.61c0 0-9.55 14.61-15.94 7.35l-11.74-13 7.55-9.44z"/>
        <path fill="#49CECE" fill-rule="nonzero" d="M204.53 154.16s2.86.7 4.29 0c0 0 1.72.44 1.72-3.47 0 0-.19-4.77-1.24-6.68a2.4 2.4 0 0 0-3.06-1.43s-3.48-.37-3.07 4.44c0-.02-.25 4.69 1.36 7.14z"/>
        <path fill="#272B3F" fill-rule="nonzero" d="M158.14 328s1.52 2.62-.51 3.63c0 0-11.91 3.63-18.17-3a5.64 5.64 0 0 1-1.47-3c-.25-1.85.28-1.9 1.93-1.65 2.94.45 5.78 1.38 8.69 2l9.53 2.02z"/>
        <path fill="#3C496D" fill-rule="nonzero" d="M138.14 324.19l11.35-2.19 8.11 5.44s3.77 3.11-6 3.44c0 .03-9.7 1.47-13.46-6.69z"/>
        <path stroke="#FFF" stroke-width=".25" d="M152.6 324.8s-1.11-.22-2.78 1.22l4.55-.33s-1.89 1.22-2.11 2"/>
        <path fill="#272B3F" fill-rule="nonzero" d="M106.47 331.08s-1.18 2.79 1 3.54c0 0 12.27 2.12 17.65-5.28a5.64 5.64 0 0 0 1.08-3.16c0-1.87-.51-1.85-2.12-1.39-2.86.81-5.57 2.09-8.37 3.08l-9.24 3.21z"/>
        <path fill="#3C496D" fill-rule="nonzero" d="M125.84 324.82l-11.53-.73-7.31 6.41s-3.36 3.56 6.38 2.67c-.05 0 9.75.22 12.46-8.35z"/>
        <path stroke="#FFF" stroke-width=".25" d="M111.58 327.23s1.07-.36 2.91.87l-4.56.24s2 1 2.34 1.72"/>
        <path fill="#272B3F" fill-rule="nonzero" d="M144.59 214l-37.15 5s1.56 62.71 6.64 92.39l.18 6.1-1.76 5s-2.86 3.23 3 5c0 0 10.55 1.56 11.1-3.11l-.6-16.52 1.54-60.68s.88-3 1.21.72l6.48 63.67.55 8.86a4.14 4.14 0 0 1-.88 2.75s-2.09 2.51 4.07 2.63c0 0 8.35-.36 9.78-1.2a5.85 5.85 0 0 0 3.41-5.27l-5.38-21.78-2.2-57.92.01-25.64z"/>
        <path fill="#FFF" fill-rule="nonzero" d="M82.6 169l6.4-20s.88-6.59 6.15-7.91l16.15-6.92 10.22 1.43 16.92 2.2s6.81-2.2 12.53 5.93l9.23 16.92s5.27 1.54 2.2 6.81a19.44 19.44 0 0 1-7.69 8.57s-2.86.66-3.3-2l-9.23-7 1.1 36.7s.22 4 2 6.15c0 0 4.18 5.71-4.4 9 0 0-16.49 5.71-33.41 2.42 0 0-6.15-1.32-5.05-5.93 0 0-2.64-38.46-4.18-44.62l-1.87 5.49-.55 2.42s1.54 4.18-2.93 3.74c0 0-8.64.88-12.6-6.23 0 0-.59-2.34 1.17-3.3L82.6 169z"/>
        <path fill="#49D6D8" fill-rule="nonzero" d="M131.5 91s1.79 24.18-3.28 32.31c0 0-4.63 7.47-13.09 1.87 0 0-6-4.73-8.57-9.56 0 0-8.13-2-8-8.9l-2.2-9.12L111 85.14h18.46L131.5 91z"/>
        <path fill="#272B3F" fill-rule="nonzero" d="M107.33 105s-3.52-13.08 4.07-15.82c0 0 12.2-5.6 20.11 1.76 0 0 4-4.07 0-11.21 0 0-2.53-5.16-6-2.53a11.53 11.53 0 0 1-6.26.44s-22.53-3.3-26.37 11.76c0 0-3.74 7.14 5.71 17.25 0 0-.22-3.74 2.31-2.42l4.4 4.4h3.19l-1.16-3.63z"/>
        <path fill="#49D6D8" fill-rule="nonzero" d="M107.43 117s4.3 9.19 3.67 17.1c0 0 .52 5.27 4.92 5.38 0 0 4.82.33 4.82-4a30.58 30.58 0 0 1 .52-9.12L107.43 117z"/>
        <path fill="#FFF" fill-rule="nonzero" d="M117.92 113.33a2.57 2.57 0 0 1 .37-1.87c1.43-2.12 3.45.14 5 .57a2.58 2.58 0 0 0 2.38-.53s2.14-2 3.15.1c0 0 1 4.93-4.69 5.52.04 0-4.58-.07-6.21-3.79zM267 108.46a2.37 2.37 0 0 0-.55-1.67c-1.54-1.78-3.14.51-4.54 1.08a2.38 2.38 0 0 1-2.23-.22s-2.19-1.63-2.88.44c0 0-.38 4.63 4.9 4.53.02 0 4.24-.62 5.3-4.16z"/>
        <path fill="#DDE0E9" fill-rule="nonzero" d="M123.4 182.86c-.69-2.57-1.41-5.13-2.06-7.71-.11-.43-.58-2.48-1.28-2.24a.94.94 0 0 0-.65 1 16.49 16.49 0 0 0 .66 3.36 60 60 0 0 0 1.33 6.33 2.6 2.6 0 0 0 .49 1c.4.44 1.24.6 1.55 0a2.63 2.63 0 0 0-.04-1.74zM116.57 176.64c-1.09.72-2.22 1.4-3.32 2.11 0 0-.46.11.21.91l1.83 1.88c.51.53 1.88 1.48 1.81 2.33-.07.85-1.44.24-1.74-.08l-3.44-3.65s-1.4-1.33 0-2.35l4.45-2.95a.87.87 0 0 1 1.24.53c.08.39-.17.63-.46.83l-.58.44zM127 181.56c1.08-.71 2.19-1.38 3.28-2.09 0 0 .45-.1-.21-.9l-1.81-1.86c-.5-.52-1.86-1.47-1.79-2.31.07-.84 1.42-.24 1.72.08l3.4 3.6s1.39 1.32 0 2.32l-4.4 2.91a.86.86 0 0 1-1.23-.53c-.08-.38.16-.63.45-.82l.59-.4z"/>
        <path fill="#FFF" fill-rule="nonzero" d="M264.32 188.12c1.39-20.77 1.34-41.39-4.33-61.59h-.16c-7.07 1.3-14.51 2.82-19.81 7.66-5.3 4.84-7.5 12.17-8.44 19.27-1.64 12.4-4.68 24.55-4.68 37l-.42 28.09s-.93 1.77 2.33 2c0 0 8.2 1.15 8.64-2l2.8-43.52v-.15c0-2.52 1.78-5.09 3.43-6.87.48-.52 1.8 12.73 1.87 13.87l.8 12.37s.41 30.16 0 30.28c-.41.12.5 1.51-1.88 3.14 0 0-4.4 4.52 2.89 5.65 0 0 11.9 1.26 15.17.38a12 12 0 0 0 5.78-4.4l-3.99-41.18z"/>
        <path stroke="#FFF" stroke-linecap="round" stroke-linejoin="round" d="M115.52 102.82s3.14-3.85 6.23-.47M124.53 102.12s2.35-2.88 4.66-.35"/>
        <path fill="#272B3F" fill-rule="nonzero" d="M250.88 99.69s-6.35-16.24-3.53-19.69c0 0 3.59-8 8-7.73 3.54-.68 7.11-1.22 10.69-1.63a56.22 56.22 0 0 1 7.74-.5c5.15.12 12.43 2.6 15.75 6.9a9.75 9.75 0 0 1 2 6.79c-.3 4-2.74 6.56-4.18 10.06 0 0-2.44 5.93-2.56 8.47 0 0 1.69 2.7-2.26 4.46a5 5 0 0 1-5.23 2.34 13.52 13.52 0 0 1 3.36-6.12s2.7-3.22 0-3.26c0 0-2.61.94-3.4 2.36 0 0-1.47-1.31 1.11-6 0 0 6.66-8.51 1.51-9.63 0 0-13.06 3-18 .42.05.07-13.63-6.63-11 12.76z"/>
        <path fill="#272B3F" fill-rule="nonzero" d="M265.54 87.25s-7.44.44-9.26 2.49c0 0 1.88-4.81 5.7-5l3.56 2.51z"/>
    </g>
</svg>