<svg xmlns="http://www.w3.org/2000/svg" width="415" height="406" viewBox="0 0 415 406">
    <g fill="none" fill-rule="evenodd" transform="translate(-1 -1)">
        <path fill="#F5F6FB" fill-rule="nonzero" d="M64.11 402.14c-21.86-7.86-40.58-25.59-51.83-49.76C-6.43 312.17.45 266 16.06 226c10.86-27.83 33.51-54.12 58-70.72 3.68-2.49 7.58-4.93 10-8.63 9.3-14-13.66-28.36-23.52-33.5C49.82 107.59 38 98.36 33 87.11 19.56 57 61.8 38.32 83.12 29.88 148.41 4 222.2-6.2 291.76 6.34 340.08 15 398.85 41.22 397.41 97.87c-1 40.62-34.69 61.57-58.53 89.08-10.18 11.74-19.25 31.66-9.5 46.28 12.56 18.83 43.58 11.67 61.8 21 27.69 14.1 32.39 47.75 13.2 71.07-18.95 23-47.35 38.11-73.55 51.34-17.21 8.69-41.55 12.63-60 4.27-9.81-4.45-17.55-12.47-20.6-23-4.84-16.68-8.75-30.82-30.47-27.84-12 1.64-24.29 8.65-33.7 16-17.81 14-31.33 33.37-50.27 45.9-24.08 15.95-49.49 18.14-71.68 10.17z"/>
        <path stroke="#F7A226" stroke-width="1.68" d="M24.94 153.21s-1.09-7.1 3.28-16.32M80.69 152.67s-2.19-11.1-12.35-15.16"/>
        <path fill="#F4BA64" fill-rule="nonzero" d="M22.72 163.7s-.88-6.4 3-5.65c0 0 3.53.52 2.66 6.41h3.72s1.67-10.79-6.49-11.7c0 0-7.92 0-6.67 11.46a28.89 28.89 0 0 0 3.78-.52zM76 162.76l4.06-.47s-.94-5.94 2.19-5.63c0 0 3 .78 2.81 6.1a6.84 6.84 0 0 0 3.75-.63S88 151.5 81.16 152c0 0-5.94.75-5.16 10.76z"/>
        <path fill="#F7A226" fill-rule="nonzero" d="M25 121.73s-2.6 10.22-1.11 17.09c0 0 .56 5.39 13.56 11l.74-20.43L25 121.73z"/>
        <path fill="#FFD194" fill-rule="nonzero" d="M37.42 149.78s-3.16-12.07.56-18.58c0 0 9.29-1.49 34.74.74a21.48 21.48 0 0 1-1.3 16.16s-13.42 6.69-34 1.68z"/>
        <path fill="#F4BA64" fill-rule="nonzero" d="M72.71 131.95a53.38 53.38 0 0 0-16.9-10.77l-30.81.55s3.9 5 13 9.47l34.71.75z"/>
        <path stroke="#F4BA64" d="M49.31 125.63l.55-17.27"/>
        <path fill="#F7A226" fill-rule="nonzero" d="M51.36 108.35c-3.31.81-7-3.58-4-6.21s7.7 1.14 5.94 4.63a2.86 2.86 0 0 1-1.94 1.58z"/>
        <ellipse cx="49.68" cy="114.67" stroke="#F4BA64" rx="6.87" ry="1.86"/>
        <circle cx="61.5" cy="141.67" r="3.4" fill="#FFF" fill-rule="nonzero" opacity=".29"/>
        <circle cx="61.5" cy="141.7" r="2.73" fill="#FFF" fill-rule="nonzero"/>
        <circle cx="51.03" cy="142.27" r="3.49" fill="#FFF" fill-rule="nonzero" opacity=".29"/>
        <circle cx="51.09" cy="142.26" r="2.73" fill="#FFF" fill-rule="nonzero"/>
        <path stroke="#FFF" stroke-linecap="round" stroke-linejoin="round" stroke-width=".5" d="M23.91 152.33s.42-.6 1.81-.37M23.81 151.08s.51-.46 2-.28M23.91 149.85a3.22 3.22 0 0 1 1.88-.09M23.88 148.83s.37-.44 2-.14M24 147.71a3 3 0 0 1 2 0M24.14 146.57s.42-.28 2 0M24.42 145.44a4.1 4.1 0 0 1 1.83.21M24.63 144.39a2.4 2.4 0 0 1 1.88.28M79.49 151.92a2.43 2.43 0 0 1 1.79-.63M79.17 150.82a3.21 3.21 0 0 1 1.76-.63M78.8 149.78a2.85 2.85 0 0 1 1.76-.58M78.35 148.83a2.93 2.93 0 0 1 1.83-.65M77.91 147.85a4.17 4.17 0 0 1 1.74-.7M77.38 146.9a3.55 3.55 0 0 1 1.76-.72M76.82 146a2.24 2.24 0 0 1 1.65-.88M76.15 144.95a2.68 2.68 0 0 1 1.72-.88M75.43 144s.84-1 1.65-1M74.73 143.12s.88-1.11 1.56-1.07M73.85 142.26a2.31 2.31 0 0 1 1.42-1.32"/>
        <path fill="#272B3F" fill-rule="nonzero" d="M115 146.48c-.57.08-1.38-2.82-1.43-3.17a4.45 4.45 0 0 1 .59-3c.64-1.06 1-2.22-.05-3.16a16 16 0 0 0-3.49-1.83 4.07 4.07 0 0 1-2.22-3.14 7.17 7.17 0 0 0-.43-2.49c-.54-1-1.67-1.48-2.47-2.2a14.68 14.68 0 0 1-2.63-3.15c-3-4.57-5.42-10.66-3.17-16a11.64 11.64 0 0 1 3.52-4.54c5-4 5.92-10.85 9.91-15.64a18.14 18.14 0 0 1 7.75-5.86 13.86 13.86 0 0 0 2.16-.86c1.21-.68 2-1.84 3.16-2.64a34.24 34.24 0 0 1 3.9-2.41 24.31 24.31 0 0 1 11.13-2.94 23.47 23.47 0 0 1 5.94.72 7.76 7.76 0 0 1 2.8 1.78 8 8 0 0 1 2.83 6c0 3.07-2.52 6-1.25 9.07a5.36 5.36 0 0 0 2.32 2.52c1.58.92 3.59.88 5.06 2 4.08 3.18-.74 7.91-2.36 10.91a2.77 2.77 0 0 0-.33 2.39c.48 1.06 1.79 1.26 2.78 1.57a4.81 4.81 0 0 1 2.88 1.85 3.94 3.94 0 0 1-.25 4.37c-.68 1-1.62 2-1.7 3.27-.09 1.41 1 2.52 1.38 3.81a7.33 7.33 0 0 1-.34 4.43c-1 2.77-3.88 5.09-3.21 8.26.28 1.32 1.59 8.21 2.7 9-.07.09-45.48 1.07-45.48 1.08z"/>
        <path fill="#49D6D8" fill-rule="nonzero" d="M162.41 166.08s.69-3.79 6.57-26.16l24.17-45.33a10.61 10.61 0 0 1 5-4.37s4.43-2.4 5-5.28c0 0-.08-4.47-3.36-5.93l-4.83-2.32s-2.58.69-3 4.24c0 0-.79-2.16-2.13-1 0 0-2.83.94-1.16 9.07a11.25 11.25 0 0 1-2.52 6.48l-34.33 49.11s.93 14.36 10.59 21.49zM115.22 145.48s-6 .85-10.51-7.92l-14-39.45s-.43-3.4 1.5-5.1c0 0 6.3-9.72-2.1-11.36 0 0 .77-5.77-4.32-3.14 0 0-10.86 6.08-6.53 12.85 0 0 2.66 3.6 3.72 4.12a9.09 9.09 0 0 1 1.74 4l15 49s9 18.69 8.83 20.22c-.01-.03 14.59-5.18 6.67-23.22z"/>
        <path fill="#3C496D" fill-rule="nonzero" d="M130.63 330.25c.23 0 0 2.2 0 2.35-.87 5.31-6.54 7.69-11.24 8.53-2.75.49-6.76 1.36-9.25-.24-2.25-1.45 0-3.41 1.44-4.46l9.22-6.85 9.83.67zM155.95 329.17l10.09-.3 11.76 7.75s4.24 3.22-3.88 4.22c-.01-.01-16.82 1.9-17.97-11.67z"/>
        <path fill="#272B3F" fill-rule="nonzero" d="M117.74 225.94s5.7 74.17 3.1 97.43l-.28 5.95s4.69 5.21 10.4.53L139 265l3.7-20.59 2.48-.12 4.34 27.94c2 12.68 3.79 25.4 5.92 38.05.21 1.23 0 2.38.49 3.55s1.62 1.68 1.05 3.18c-1.51 4-1.69 7.57-1.83 11.77 0 0 7.18 4.93 11.42-.44.87-1.11.24-6 .29-7.3l.6-15c.47-24.73 2-49.48 3-74.19.12-3.07.31-6.15.37-9.23l-53.09 3.32z"/>
        <path fill="#FFF" fill-rule="nonzero" d="M114.85 145.65c0-1.19 22.16-1.91 24.07-2 1.91-.09 5.92-.59 7.93-.66 2.01-.07 3.34-.06 5 1.5.77.73.94 4 1.24 5 1.77 6 4.7 12.12 9.69 16.08.34.27-1.25 7.63-1.31 8.3a68.12 68.12 0 0 0 1.08 20 58.4 58.4 0 0 0 3.56 11.27c2.18 5 10.24 14.43 5.14 19.62-3.92 4-9.25 6.36-14.72 7.52-9.76 2.08-20.47 1.42-30.1-1a63.32 63.32 0 0 1-9.24-3.11l-.74-.33a7.47 7.47 0 0 1-2.24-1.53 5.24 5.24 0 0 1-1.26-5.5 9.07 9.07 0 0 1 3.33-3.61c.76-.53 6.87-4 4.65-5.19a2.73 2.73 0 0 0-1.71-.05 2 2 0 0 1-1.66-.26 1.49 1.49 0 0 1 0-1.94 5.85 5.85 0 0 1 1.69-1.28c.86-.54 2.24-1.32 2.27-2.46a2.74 2.74 0 0 0-.22-1c-2.13-5.92-4.18-11.88-6.28-17.81-1.12-3.16-2.35-6.5-3.54-9.72-.58-1.56-1.1-3.16-1.77-4.68-.55-1.23-1.58-2.59-1.55-4l-.12-.29c.17.42 5.64-4.52 5.92-4.88 3.64-4.68 3.77-10.59 1.65-16a7.32 7.32 0 0 1-.76-1.99z"/>
        <path fill="#49D6D8" fill-rule="nonzero" d="M114.34 103.33a1.88 1.88 0 0 0 .36-.7c.16-.55.2-1.19.36-1.77a34.53 34.53 0 0 1 1.28-3.77 23.51 23.51 0 0 1 5.57-8.5 14.6 14.6 0 0 1 11.14-3.84c4 .3 8.06 3 10.75 5.78a23.79 23.79 0 0 1 4 5.43 28.71 28.71 0 0 1 1.67 3.74c.35 1 .56 3.27 1.33 3.92.13.098.272.182.42.25a3.75 3.75 0 0 1 1.74 2 5.37 5.37 0 0 1-.24 3.72c-.79 2.07-2.44 3.59-3.12 5.73a30.1 30.1 0 0 1-1.73 4.19 23.2 23.2 0 0 1-8.75 10 2.15 2.15 0 0 0-1.24 2.4s.54 10.66 7.4 11.16c0 0-7.09 14.24-21.14 1.26 0 0 7.23.31 6-11.67-.23-2.19-1.76-2.52-3.43-3.36a30.16 30.16 0 0 1-3.75-2.26 21.08 21.08 0 0 1-7.95-9.64c-.25-.69-.33-1.48-.61-2.14-.5-1.22-1.49-2.18-2.06-3.38a9.85 9.85 0 0 1-.93-3 5.26 5.26 0 0 1 .45-3.05 4.94 4.94 0 0 1 1-1.37 17.39 17.39 0 0 0 1.48-1.13z"/>
        <path fill="#FFF" fill-rule="nonzero" d="M126.1 122.68a9.25 9.25 0 0 0 8.37 3c2.94-.45 7.3-3 6.87-6.55-.21-1.73-2.28-2.11-3.73-1.84-1.45.27-2.65 1.1-4.12 1.27a6.55 6.55 0 0 1-4.49-1.06s-2.64-1.9-3.88.17c-.98 1.68-.31 3.5.98 5.01z"/>
        <path stroke="#FFF" stroke-linecap="round" stroke-linejoin="round" d="M123.88 108s2.24-4 5.84 0M135.28 108s2.24-4 5.84 0"/>
        <path fill="#272B3F" fill-rule="nonzero" d="M122.89 84.79a33.61 33.61 0 0 0 15.37 11.65c3.28 1.25 8.27 3.22 9.42 6.86 1.15 3.64 3 1.87 4.34-.91-.02 0-4.71-27.52-29.13-17.6z"/>
        <path fill="#272B3F" fill-rule="nonzero" d="M126.53 86.73c.69 1.64-1.64 3.73-2.62 4.75a53.22 53.22 0 0 1-5.57 4.68c-1.55 1.24-3.37 2.88-3.37 5V88.88l10.25-5.29 1.31 3.14z"/>
        <path fill="#75EFD2" fill-rule="nonzero" d="M132.35 177.28a.54.54 0 0 0-.21.43l.28 4.05a.54.54 0 0 0 .27.4l3.65 1.78a.54.54 0 0 0 .48 0l3.37-2.27a.54.54 0 0 0 .21-.43l-.28-4.05a.54.54 0 0 0-.27-.4L136.2 175a.54.54 0 0 0-.48 0l-3.37 2.28z"/>
        <path fill="#54C9F7" fill-rule="nonzero" d="M141.58 176.64a.54.54 0 0 0-.21.43l.28 4.05a.54.54 0 0 0 .27.4l3.65 1.78a.54.54 0 0 0 .48 0l3.37-2.27a.54.54 0 0 0 .21-.43l-.28-4.05a.54.54 0 0 0-.27-.4l-3.65-1.78a.54.54 0 0 0-.48 0l-3.37 2.27z"/>
        <path fill="#A188ED" fill-rule="nonzero" d="M133.08 187.49a.54.54 0 0 0-.21.43l.28 4.05a.54.54 0 0 0 .27.4l3.65 1.78a.54.54 0 0 0 .48 0l3.37-2.27a.54.54 0 0 0 .21-.43l-.28-4.05a.54.54 0 0 0-.27-.4l-3.65-1.78a.54.54 0 0 0-.48 0l-3.37 2.27z"/>
        <path fill="#FCDC7A" fill-rule="nonzero" d="M142.31 186.85a.54.54 0 0 0-.21.43l.28 4.05a.54.54 0 0 0 .27.4l3.65 1.78a.54.54 0 0 0 .48 0l3.37-2.27a.54.54 0 0 0 .21-.43l-.28-4.05a.54.54 0 0 0-.27-.4l-3.65-1.78a.54.54 0 0 0-.48 0l-3.37 2.27z"/>
        <path fill="#F5F6FB" fill-rule="nonzero" d="M136.76 178.84a.28.28 0 0 0-.26.3l.92 13.37a.58.58 0 0 0 .26.41l4.1 2.3a.46.46 0 0 0 .47 0l3.74-2.84a.58.58 0 0 0 .2-.45l-.92-13.37a.28.28 0 0 0-.3-.26l-8.21.54z"/>
        <rect width="6.81" height="12.06" x="137.972" y="180.01" fill="#627384" fill-rule="nonzero" rx=".94" transform="rotate(-3.95 141.377 186.04)"/>
        <path fill="#3C496D" fill-rule="nonzero" d="M277.15 326.89s-6.09 5.4-8.57 11.9c0 0-2.63 5.42 6.5 2.48 0 0 11.46-4.84 13.63-6.75 0 0 3.56-.68 1-9.35l-12.56 1.72zM311.59 329.17v4.67s-.89 2.17 2.52 4.49c0 0 12.7 6.86 23.07 4.75 0 0 4.56-2.67-12.12-14.78l-13.47.87z"/>
        <path fill="#272B3F" fill-rule="nonzero" d="M274.54 222.33s-.07 12.71 2.1 35.63c0 0-1.24 33-1.24 46.15v22.14s11.15 5 17.19-2l-2-10.64c-.27-1.44-1-3.27-.83-4.72.07-.83 1.23-2 0-2.6a9.35 9.35 0 0 1 0-3.56l6.58-65.35s11.46 46 13.94 63.18a43.25 43.25 0 0 1 0 9.45s-.69.93.28 3.56c0 0-.89 13.47-1.2 14.71-.16.64 6.46 1.83 6.92 1.87a15.5 15.5 0 0 0 6.52-.75 13.58 13.58 0 0 0 3.45-1.83c2.17-1.58.32-2.91.77-5.16a9.73 9.73 0 0 0-.81-4.72 10.89 10.89 0 0 0-2.23-3c-2.16-2.66-.81-7.46-1.31-10.14l-.08-5.4c.82-7-2.77-15.37-2.83-22.61v-3.41s-.5-42.18-5.9-52.22l-39.32 1.42z"/>
        <path fill="#788DDF" fill-rule="nonzero" d="M340.46 139.75l12.88-15.48a17.17 17.17 0 0 0 2.83-6.3L362 89.7l7-13.42s2.62-3.67-2.23-5.15c0 0-12.59-7.68-13.1.66 0 0-5.09-.41-2 5.13l2.66 5.65-11.19 33.13-13 15.74 10.32 8.31zM242 140l8.07-9.05-10.47-12.71-15.17-29.59s2.94-7 3.72-11.15c0 0 .31-.93-2.32-2.79 0 0 2.63-4.49-3.1-6 0 0-7.59-.93-11.77 11 0 0 2.32 5.57 5.27 8.36 0 0 10.38 32.06 11.46 34.53A47.48 47.48 0 0 0 242 140z"/>
        <path fill="#FFF" fill-rule="nonzero" d="M237.15 138.83s6-11.77 12.39-12.7c4.66 4.25 8.75 10.24 14.3 13.38 5.95 3.36 8.45-.3 14.66-.37L292 139l20.29 1.86s16.19-10.22 20.29-14.71c0 0 10.38.62 13.78 9.45l-26.64 24.16s-5.73 25.55-4.34 48.93c0 0 13.47 13.32-18.58 19.51 0 0-33.76 4-26-15.33 0 0-1.7-41.66-7.59-51.1l-26.06-22.94z"/>
        <path fill="#788DDF" fill-rule="nonzero" d="M267 103.3c-.45 1.05-1.79 1.46-2.09 2.86-.59 2.77 2 5.31 4.16 6.63 1.59 1 4.51.79 5.22 2.91 2.43 7.29 8.39 17.42 17.68 15.26 7.23-1.69 10.5-11.07 12.2-17.26a3.57 3.57 0 0 1 2.73-2.73s8.75-6.38 2.37-9.47l-15.71-15.15-17.31-4.55-9.25 21.5z"/>
        <path fill="#272B3F" fill-rule="nonzero" d="M280.69 86.09c-.8.78 4 6.78 4.6 7.58a13.65 13.65 0 0 0 8.59 5.33c2.48.37 7.72-.58 8.61 2.8 0 0 1.28 4.37.73 6.19 0 0 1.28 1.82 2.55-2.37 0 0 1.82-5.1 3.46-4.19 0 0 1.22-5.59 1.28-6.2a27 27 0 0 0-.13-7.31c-.89-5.41-3.93-12.61-10.1-13.48-2.74-.39-5.56-.14-8.23-.93a28.51 28.51 0 0 0-10.7-1.4c-16.21.5-19.89 21.2-12.49 33.07l3.19 3.21s1.82 1.43.91-4c-.66-3.93 1.68-6.43 3.81-9.37 1.94-2.65 1.55-6.65 3.92-8.93z"/>
        <path fill="#788DDF" fill-rule="nonzero" d="M283.87 128a18.32 18.32 0 0 1 1.16 10.9s-3 6.23 4.82 7.4c0 0 8.82.5 6.9-6.65 0 0-2.41-7.32-1.25-11.65h-11.63z"/>
        <path fill="#FFF" fill-rule="nonzero" d="M283.38 120.33c-.56-1.58-.1-3.54 1.72-4 1.36-.35 2.41 1 3.68 1.19 1.58.26 2-.57 3.17-1.27 0 0 3.09-1.84 4.34.66 1.05 2.11-1 4.15-2.64 5.23a7.6 7.6 0 0 1-9.24-.28 3.43 3.43 0 0 1-1.03-1.53z"/>
        <path fill="#75EFD2" fill-rule="nonzero" d="M284.46 175.06a.54.54 0 0 0-.24.42v4.08a.54.54 0 0 0 .24.42l3.53 2a.54.54 0 0 0 .49 0l3.53-2a.54.54 0 0 0 .24-.42v-4.08a.54.54 0 0 0-.24-.42l-3.53-2a.54.54 0 0 0-.49 0l-3.53 2z"/>
        <path fill="#54C9F7" fill-rule="nonzero" d="M293.74 175.07a.54.54 0 0 0-.24.42v4.08a.54.54 0 0 0 .24.42l3.53 2a.54.54 0 0 0 .49 0l3.53-2a.54.54 0 0 0 .24-.42v-4.08a.54.54 0 0 0-.24-.42l-3.53-2a.54.54 0 0 0-.49 0l-3.53 2z"/>
        <path fill="#A188ED" fill-rule="nonzero" d="M284.48 185.34a.54.54 0 0 0-.24.42v4.08a.54.54 0 0 0 .24.42l3.53 2a.54.54 0 0 0 .49 0l3.53-2a.54.54 0 0 0 .24-.42v-4.08a.54.54 0 0 0-.24-.42l-3.53-2a.54.54 0 0 0-.49 0l-3.53 2z"/>
        <path fill="#FCDC7A" fill-rule="nonzero" d="M293.76 185.34a.54.54 0 0 0-.24.42v4.08a.54.54 0 0 0 .24.42l3.53 2a.54.54 0 0 0 .49 0l3.53-2a.54.54 0 0 0 .24-.42v-4.08a.54.54 0 0 0-.24-.42l-3.53-2a.54.54 0 0 0-.49 0l-3.53 2z"/>
        <path fill="#F5F6FB" fill-rule="nonzero" d="M288.77 176.93a.28.28 0 0 0-.28.28v13.44a.58.58 0 0 0 .23.43l3.94 2.58a.47.47 0 0 0 .47 0l3.94-2.58a.58.58 0 0 0 .23-.43v-13.43a.28.28 0 0 0-.28-.28l-8.25-.01z"/>
        <rect width="6.83" height="12.09" x="289.47" y="178.4" fill="#627384" fill-rule="nonzero" rx=".94"/>
        <path stroke="#FFF" stroke-linecap="round" stroke-linejoin="round" d="M280.1 108s2.16-4.23 5.8 0M296.64 108s-2.16-4.23-5.8 0"/>
    </g>
</svg>